<svg width="202" height="239" viewBox="0 0 202 239" fill="none" xmlns="http://www.w3.org/2000/svg">
<path d="M65.2464 16.1621C64.8423 16.5513 64.3485 17.0452 64.0691 17.3346C64.2637 17.125 64.4732 16.9155 64.6777 16.7109C64.7725 16.6161 64.8723 16.5163 64.9721 16.4215C64.997 16.3966 65.0269 16.3717 65.0519 16.3417C65.1167 16.2819 65.1816 16.222 65.2464 16.1621Z" fill="url(#paint0_linear_14_479)"/>
<path d="M112.326 34.8569C112.156 34.0985 111.587 33.0358 109.961 31.9032C109.961 31.9032 106.823 29.4735 100.951 27.5426C95.0793 29.4735 91.9414 31.9032 91.9414 31.9032C90.3101 33.0358 89.7463 34.1035 89.5767 34.8619C88.6687 31.7885 85.6156 30.3965 83.2709 29.6281C80.7865 28.8099 75.7179 27.3331 73.7324 26.4051C66.4238 22.9825 64.3435 18.3225 63.8446 17.5741C63.8446 17.5741 63.8845 17.5342 63.9494 17.4644C63.9643 17.4444 63.9843 17.4294 63.9993 17.4095C64.0242 17.3845 64.0442 17.3646 64.0691 17.3396C64.2637 17.1301 64.4732 16.9205 64.6777 16.716C64.7725 16.6212 64.8723 16.5214 64.9721 16.4266C64.997 16.4016 65.0269 16.3767 65.0519 16.3468C65.1167 16.2869 65.1816 16.227 65.2464 16.1672C65.2764 16.1372 65.3063 16.1073 65.3412 16.0773C65.3712 16.0474 65.4061 16.0175 65.436 15.9875C65.4759 15.9476 65.5208 15.9127 65.5558 15.8778C65.8501 15.6084 66.1494 15.3439 66.4487 15.0845C68.105 13.7324 69.876 12.515 71.692 11.3974C74.6104 9.59631 77.6934 8.05962 80.9012 6.86719C84.104 5.66479 87.4116 4.73678 90.779 4.13807C94.1364 3.54934 97.5438 3.25997 100.951 3.26496C104.358 3.25997 107.766 3.55433 111.123 4.13807C114.491 4.73678 117.798 5.66479 121.001 6.86719C124.209 8.05962 127.292 9.59631 130.21 11.3974C132.026 12.515 133.797 13.7324 135.453 15.0845C135.758 15.3439 136.052 15.6084 136.346 15.8778C136.386 15.9127 136.426 15.9476 136.466 15.9875C136.486 16.0075 136.506 16.0275 136.531 16.0474L136.546 16.0624C136.551 16.0674 136.561 16.0773 136.566 16.0823C136.596 16.1123 136.626 16.1422 136.661 16.1672C136.671 16.1771 136.681 16.1871 136.691 16.1971C136.696 16.2021 136.701 16.2021 136.701 16.2071C136.776 16.2769 136.85 16.3468 136.925 16.4166C137.045 16.5314 137.16 16.6461 137.279 16.7609C137.334 16.8158 137.389 16.8706 137.439 16.9205C137.489 16.9704 137.544 17.0303 137.599 17.0852C137.604 17.0952 137.614 17.1001 137.624 17.1101C137.708 17.1949 137.793 17.2847 137.878 17.3746C137.888 17.3845 137.903 17.3995 137.908 17.4095C137.928 17.4294 137.943 17.4444 137.958 17.4644C138.028 17.5342 138.063 17.5741 138.063 17.5741C137.564 18.3225 135.483 22.9825 128.175 26.4051C126.189 27.3331 121.121 28.8099 118.636 29.6281C116.287 30.3915 113.233 31.7835 112.326 34.8569Z" fill="url(#paint1_radial_14_479)"/>
<path d="M137.898 17.4046C137.644 17.1451 137.125 16.6163 136.691 16.2021C136.766 16.272 136.84 16.3419 136.915 16.4117C137.035 16.5265 137.15 16.6412 137.269 16.756C137.324 16.8108 137.379 16.8657 137.429 16.9156C137.484 16.9705 137.534 17.0254 137.589 17.0803C137.594 17.0902 137.604 17.0952 137.614 17.1052C137.698 17.19 137.783 17.2798 137.868 17.3696C137.878 17.3846 137.888 17.3946 137.898 17.4046Z" fill="url(#paint2_linear_14_479)"/>
<path d="M92.8194 55.3476C92.7296 55.2578 92.7296 55.2628 92.8194 55.3476C92.6248 53.9956 90.5495 39.6964 89.7114 35.4256C89.0329 31.9531 85.7503 30.4363 83.2659 29.6231C80.7815 28.8048 75.7129 27.328 73.7273 26.4C66.4188 22.9774 64.3385 18.3174 63.8396 17.5691C63.6301 17.5341 63.2908 17.4792 63.2908 17.4792C63.2908 17.4792 63.0713 19.1407 63.3357 20.6075C63.5951 22.0743 64.0491 22.9874 64.0491 22.9874L68.7535 32.4171C68.7535 32.4171 70.3849 36.5033 70.8438 37.9102C71.3028 39.3172 71.3826 39.8959 71.3826 39.8959C71.5822 40.345 71.8216 40.7641 72.0511 41.1832C72.8793 42.6999 74.8299 44.4062 74.8398 44.4112C78.4018 47.4147 83.5702 49.2258 88.1399 51.925L92.8194 55.3476Z" fill="url(#paint3_linear_14_479)"/>
<path d="M113.757 51.925C118.332 49.2258 123.495 47.4197 127.057 44.4112C127.062 44.4062 129.013 42.6949 129.846 41.1832C130.076 40.7641 130.315 40.345 130.515 39.8959C130.515 39.8959 130.594 39.3122 131.053 37.9102C131.512 36.5033 133.144 32.4171 133.144 32.4171L137.848 22.9874C137.848 22.9874 138.302 22.0743 138.561 20.6075C138.821 19.1407 138.606 17.4792 138.606 17.4792C138.606 17.4792 138.267 17.5341 138.058 17.5691C137.559 18.3174 135.478 22.9774 128.17 26.4C126.184 27.328 121.116 28.8048 118.631 29.6231C116.147 30.4363 112.864 31.9531 112.186 35.4256C111.348 39.6914 109.277 53.9956 109.078 55.3427C109.173 55.2528 109.173 55.2578 109.078 55.3427L113.757 51.925Z" fill="url(#paint4_linear_14_479)"/>
<path d="M110.964 33.2751C112.026 34.228 112.49 35.1211 112.306 36.1938C113.323 32.7512 114.795 31.2544 118.267 30.2267C121.739 29.1989 133.583 26.5147 138.212 17.6138C138.212 17.6138 137.993 17.4841 137.564 17.05C125.212 28.3258 112.465 18.8512 110.964 33.2751Z" fill="url(#paint5_linear_14_479)"/>
<path d="M90.9336 33.2751C89.871 34.228 89.4071 35.1211 89.5916 36.1938C88.5739 32.7512 87.1023 31.2544 83.6301 30.2267C80.1579 29.1989 68.3145 26.5147 63.6849 17.6138C63.6849 17.6138 63.9045 17.4841 64.3335 17.05C76.6857 28.3258 89.432 18.8512 90.9336 33.2751Z" fill="url(#paint6_linear_14_479)"/>
<path d="M112.156 28.6301C110.061 18.9909 100.956 15.219 100.956 15.219C100.956 15.219 91.8515 18.9909 89.7562 28.6301C89.3022 30.7854 89.2124 33.3799 89.5916 36.1888C89.6465 32.6365 96.9401 29.7726 100.956 28.4255C104.972 29.7726 112.296 32.5017 112.345 36.0541C112.73 33.2451 112.61 30.7904 112.156 28.6301Z" fill="url(#paint7_radial_14_479)"/>
<path d="M100.961 6.06885C100.961 6.25345 100.961 6.4181 100.961 6.59771C100.956 6.4181 100.951 6.25345 100.951 6.06885C100.951 14.6204 90.9536 12.5798 89.7313 28.73C91.7817 19.0159 100.956 15.2191 100.956 15.2191C100.956 15.2191 110.13 19.0159 112.181 28.73C110.959 12.5798 100.961 14.6204 100.961 6.06885Z" fill="url(#paint8_linear_14_479)"/>
<path opacity="0.63" d="M100.991 21.3809H100.966C94.0117 22.0295 90.3101 31.1947 89.6366 35.4605C90.3051 32.3672 97.1048 29.7229 100.961 28.4307C104.977 29.7778 112.196 32.5967 112.341 35.8547C112.345 35.7998 112.35 35.7499 112.355 35.7C111.787 31.5489 108.08 22.0394 100.991 21.3809Z" fill="url(#paint9_linear_14_479)"/>
<path d="M71.8815 13.6075C75.2639 11.5519 79.1851 9.50634 83.5054 7.90479C88.2896 6.26832 93.9768 5.05593 100.951 4.7915C95.229 6.10867 88.4642 11.1578 89.6116 26.5895C86.1993 14.0765 73.6476 23.3814 66.6483 17.4842C67.9703 16.3915 69.7414 15.0245 71.8815 13.6075Z" fill="url(#paint10_linear_14_479)"/>
<path d="M71.8815 13.6075C75.2639 11.5519 79.1851 9.50634 83.5054 7.90479C88.2896 6.26832 93.9768 5.05593 100.951 4.7915C95.229 6.10867 88.4642 11.1578 89.6116 26.5895C86.4637 10.0302 74.1315 23.3066 66.6483 17.4842C67.9703 16.3915 69.7414 15.0245 71.8815 13.6075Z" fill="url(#paint11_linear_14_479)"/>
<path d="M71.8815 13.6075C75.2639 11.5519 79.1851 9.50634 83.5054 7.90479C88.2896 6.26832 93.9768 5.05593 100.951 4.7915C83.2759 6.94686 79.1502 22.2589 66.6483 17.4842C67.9703 16.3915 69.7414 15.0245 71.8815 13.6075Z" fill="url(#paint12_linear_14_479)"/>
<path d="M71.8815 13.6075C75.2639 11.5519 79.1851 9.50634 83.5054 7.90479C88.2896 6.26832 93.9768 5.05593 100.951 4.7915C78.3121 6.58264 74.81 20.1185 66.6483 17.4842C67.9703 16.3915 69.7414 15.0245 71.8815 13.6075Z" fill="url(#paint13_linear_14_479)"/>
<path d="M130.046 13.6075C126.663 11.5519 122.742 9.50634 118.422 7.90479C113.638 6.26832 107.95 5.05593 100.976 4.7915C106.698 6.10867 113.463 11.1578 112.316 26.5895C115.728 14.0765 128.28 23.3814 135.279 17.4842C133.952 16.3915 132.181 15.0245 130.046 13.6075Z" fill="url(#paint14_linear_14_479)"/>
<path d="M130.046 13.6075C126.663 11.5519 122.742 9.50634 118.422 7.90479C113.638 6.26832 107.95 5.05593 100.976 4.7915C106.698 6.10867 113.463 11.1578 112.316 26.5895C115.463 10.0302 127.796 23.3066 135.279 17.4842C133.952 16.3915 132.181 15.0245 130.046 13.6075Z" fill="url(#paint15_linear_14_479)"/>
<path d="M130.046 13.6075C126.663 11.5519 122.742 9.50634 118.422 7.90479C113.638 6.26832 107.95 5.05593 100.976 4.7915C118.651 6.94686 122.777 22.2589 135.279 17.4842C133.952 16.3915 132.181 15.0245 130.046 13.6075Z" fill="url(#paint16_linear_14_479)"/>
<path d="M130.046 13.6075C126.663 11.5519 122.742 9.50634 118.422 7.90479C113.638 6.26832 107.95 5.05593 100.976 4.7915C123.615 6.58264 127.117 20.1185 135.279 17.4842C133.952 16.3915 132.181 15.0245 130.046 13.6075Z" fill="url(#paint17_linear_14_479)"/>
<path d="M112.325 35.9743C112.306 36.0891 112.166 36.8973 112.146 36.9971C112.42 35.0713 109.502 33.3899 109.502 33.3899C103.58 29.9772 101.066 29.7278 100.946 29.7178C100.826 29.7278 98.312 29.9772 92.3904 33.3899C92.3904 33.3899 89.4719 35.0713 89.7463 36.9971C89.7263 36.8973 89.5867 36.0941 89.5667 35.9743C89.5468 35.8496 88.9232 33.9936 91.9314 31.9031C91.9314 31.9031 95.0693 29.4733 100.941 27.5425C106.813 29.4733 109.951 31.9031 109.951 31.9031C112.969 33.9936 112.345 35.8496 112.325 35.9743Z" fill="url(#paint18_linear_14_479)"/>
<path d="M112.216 35.9843C112.201 35.5053 112.141 35.0114 111.876 34.6122C111.552 34.1083 111.123 33.6793 110.659 33.3001C109.726 32.5417 108.664 31.953 107.581 31.4291C105.456 30.4063 103.216 29.638 100.956 28.9494H100.951H100.946C98.6862 29.633 96.4462 30.4063 94.321 31.4291C93.2384 31.953 92.1758 32.5417 91.2429 33.3001C90.7789 33.6793 90.3499 34.1083 90.0256 34.6122C89.7612 35.0114 89.7064 35.5003 89.6864 35.9843C89.6914 35.5402 89.6914 34.9415 89.9159 34.5524C90.2152 34.0085 90.6243 33.5346 91.0733 33.1155C91.9762 32.2723 93.0189 31.5987 94.0815 30.9901C96.2217 29.7777 98.4966 28.4655 100.791 27.6024L100.946 27.5425L101.101 27.6024C103.396 28.4655 105.67 29.7777 107.811 30.9901C108.873 31.5987 109.916 32.2773 110.819 33.1155C111.268 33.5346 111.682 34.0085 111.976 34.5524C112.206 34.9415 112.206 35.5452 112.216 35.9843Z" fill="url(#paint19_linear_14_479)"/>
<path d="M92.8193 55.3478C91.9713 54.5445 91.0533 53.8261 90.0905 53.1625C89.9308 52.2095 88.7385 45.055 88.519 43.8825C88.2845 42.6202 87.631 37.2019 85.1217 34.2981C80.7216 29.1991 76.4113 30.0473 69.9458 25.6917C65.3711 22.6133 63.2958 17.4844 63.2958 17.4844C63.2958 17.4844 63.635 17.5393 63.8445 17.5742C64.3434 18.3226 66.4237 22.9825 73.7323 26.4052C75.7178 27.3331 80.7864 28.81 83.2708 29.6282C85.7552 30.4415 89.0379 31.9582 89.7163 35.4307C90.5494 39.6965 92.6248 54.0057 92.8193 55.3478Z" fill="url(#paint20_linear_14_479)"/>
<path d="M92.8193 55.3478C91.9713 54.5445 91.0533 53.8261 90.0905 53.1625C89.9308 52.2095 88.7385 45.055 88.519 43.8825C88.2845 42.6202 87.631 37.2019 85.1217 34.2981C80.7216 29.1991 76.4113 30.0473 69.9458 25.6917C65.3711 22.6133 63.2958 17.4844 63.2958 17.4844C63.2958 17.4844 66.4237 23.2619 73.7323 26.6845C75.7178 27.6125 79.19 28.9147 81.6744 29.733C84.1588 30.5462 87.5662 31.8285 89.1526 35.6602C90.0107 37.7357 90.9086 42.6152 91.5721 46.9708C92.1908 51.047 92.7246 54.6992 92.8193 55.3478Z" fill="url(#paint21_linear_14_479)"/>
<path d="M92.8193 55.3479C91.9712 54.5446 91.0533 53.8261 90.0905 53.1626C90.0256 52.7684 89.7961 50.0443 89.3721 46.7813C88.7784 42.1912 87.621 36.6681 85.8949 34.6425C81.5247 29.5185 76.4113 30.0424 69.9458 25.6868C80.1728 30.2869 86.0396 32.4921 88.0501 35.8299C90.1054 39.2426 91.0932 43.5084 92.0311 50.0293C92.4252 52.7534 92.7495 54.8689 92.8193 55.3479Z" fill="url(#paint22_linear_14_479)"/>
<path d="M92.2257 54.8087C91.4624 54.1452 90.6542 53.5365 89.8111 52.9727C89.5717 52.0347 89.3372 50.9371 89.1077 49.6648C88.5639 47.6242 88.0102 45.7882 87.5213 44.3014C84.2686 34.4127 72.7046 41.3827 64.0541 22.9873C64.2287 23.2817 64.4083 23.571 64.5829 23.8504C75.7278 41.5723 88.8932 31.8981 90.8937 46.0376C91.4724 50.1588 91.9064 52.9328 92.2257 54.8087Z" fill="url(#paint23_linear_14_479)"/>
<path d="M91.4425 54.1551C90.9137 53.736 90.3699 53.3469 89.8111 52.9727C89.5717 52.0347 89.3372 50.9371 89.1077 49.6648C88.5639 47.6242 88.0102 45.7882 87.5213 44.3014C84.2686 34.4127 72.7046 41.3827 64.0541 22.9873C64.2287 23.2817 64.4083 23.571 64.5829 23.8504C75.6929 41.9614 88.2397 33.4797 90.1853 46.0975C90.734 49.6648 90.9137 50.5479 91.4425 54.1551Z" fill="url(#paint24_linear_14_479)"/>
<path d="M90.5046 53.4517C90.2751 53.287 90.0456 53.1273 89.8111 52.9727C89.5717 52.0347 89.3372 50.9371 89.1077 49.6648C88.5639 47.6242 88.0102 45.7882 87.5213 44.3014C84.2686 34.4127 72.7046 41.3827 64.0541 22.9873C64.2287 23.2817 64.4133 23.5661 64.5579 23.8654C73.0189 41.1681 86.1743 35.1461 88.6038 45.1346C89.6465 49.4154 90.0705 51.4061 90.5046 53.4517Z" fill="url(#paint25_linear_14_479)"/>
<path d="M90.9336 53.7711C90.0456 53.1026 89.1078 52.4939 88.1449 51.9301C87.9454 51.1967 87.7259 50.4483 87.4814 49.7149C85.1417 42.7449 72.6248 44.6857 68.7585 32.4221C74.6204 43.7128 87.676 42.4206 90.0456 49.6001C90.4497 50.8225 90.7091 52.2095 90.9336 53.7711Z" fill="url(#paint26_linear_14_479)"/>
<path d="M89.8112 52.9727C89.2674 52.6085 88.7087 52.2592 88.1449 51.925C87.9454 51.1915 87.7259 50.4431 87.4814 49.7097C85.1417 42.7397 72.6248 44.6806 68.7585 32.417C74.336 44.3213 87.5762 43.094 89.0529 49.5201C89.3472 50.7774 89.5368 51.431 89.8112 52.9727Z" fill="url(#paint27_linear_14_479)"/>
<path d="M138.606 17.4843L138.058 17.5741C137.514 17.0003 136.935 16.4116 136.341 15.8777C136.047 15.6083 135.748 15.3439 135.448 15.0844C133.792 13.7323 132.021 12.515 130.205 11.3974C127.287 9.59626 124.204 8.05958 120.996 6.86715C117.793 5.66474 114.486 4.73674 111.118 4.13803C107.761 3.54929 104.353 3.25992 100.946 3.26491C97.5387 3.25992 94.1314 3.55428 90.7739 4.13803C87.4065 4.73674 84.099 5.66474 80.8962 6.86715C77.6884 8.05958 74.6053 9.59626 71.6869 11.3974C69.871 12.515 68.1 13.7323 66.4437 15.0844C66.1394 15.3439 65.845 15.6083 65.5507 15.8777C64.957 16.4116 64.3783 17.0003 63.8346 17.5741L63.2908 17.4843C63.3157 17.4543 65.8849 14.4508 66.8927 13.4879C68.1698 12.2755 69.5218 11.1529 70.9286 10.0902C73.7522 7.97975 76.8253 6.1936 80.0531 4.74671C83.2858 3.29983 86.6831 2.21717 90.1603 1.49372C91.8964 1.1345 93.6525 0.865079 95.4185 0.690455C97.1845 0.515831 98.9555 0.431015 100.727 0.426025C100.796 0.426025 100.871 0.426025 100.941 0.426025C101.011 0.426025 101.086 0.426025 101.156 0.426025C102.927 0.431015 104.698 0.515831 106.464 0.690455C108.23 0.865079 109.986 1.1345 111.722 1.49372C115.194 2.21218 118.596 3.29983 121.829 4.74671C125.062 6.1936 128.13 7.98473 130.954 10.0902C132.36 11.1479 133.717 12.2755 134.989 13.4879C136.007 14.4458 138.581 17.4543 138.606 17.4843Z" fill="url(#paint28_linear_14_479)"/>
<path d="M138.606 17.4843L138.058 17.5741C138.058 17.5741 136.935 16.4116 136.341 15.8777C136.047 15.6083 135.748 15.3439 135.448 15.0844C133.792 13.7323 132.021 12.515 130.205 11.3974C127.287 9.59626 124.204 8.05957 120.996 6.86714C117.793 5.66473 114.486 4.73673 111.118 4.13802C107.761 3.54929 104.353 3.25991 100.946 3.2649C97.5387 3.25991 94.1314 3.55428 90.7739 4.13802C87.4065 4.73673 84.099 5.66473 80.8962 6.86714C77.6884 8.05957 74.6053 9.59626 71.6869 11.3974C69.871 12.515 68.1 13.7323 66.4437 15.0844C66.1394 15.3439 65.845 15.6083 65.5507 15.8777C64.957 16.4116 63.8346 17.5741 63.8346 17.5741L63.2908 17.4843C63.4205 17.3446 65.9099 14.6753 66.8927 13.8122C68.1698 12.6996 69.5218 11.6618 70.9286 10.6839C73.7522 8.7431 76.8253 7.09664 80.0531 5.76452C83.2858 4.43239 86.6831 3.43454 90.1603 2.77097C91.8964 2.44168 93.6525 2.19221 95.4185 2.03256C97.1845 1.8729 98.9555 1.79308 100.727 1.78809C100.796 1.78809 100.871 1.78809 100.941 1.78809C101.011 1.78809 101.086 1.78809 101.156 1.78809C102.927 1.79308 104.698 1.8729 106.464 2.03256C108.23 2.19221 109.986 2.44168 111.722 2.77097C115.194 3.43454 118.596 4.43239 121.829 5.76452C125.062 7.09664 128.13 8.7431 130.954 10.6839C132.36 11.6618 133.717 12.6946 134.989 13.8122C135.987 14.6753 138.477 17.3446 138.606 17.4843Z" fill="url(#paint29_linear_14_479)"/>
<path d="M63.2958 17.4844L63.5801 17.5143L63.8396 17.5742C64.3384 18.3226 66.4188 22.9825 73.7273 26.4052C75.7128 27.3331 80.7814 28.81 83.2658 29.6282C72.1359 26.8143 66.8777 24.1949 63.2958 17.4844Z" fill="url(#paint30_linear_14_479)"/>
<path d="M109.083 55.3478C109.931 54.5445 110.849 53.8261 111.812 53.1625C111.971 52.2095 113.164 45.055 113.383 43.8825C113.618 42.6202 114.271 37.2019 116.78 34.2981C121.181 29.1991 125.491 30.0473 131.956 25.6917C136.531 22.6133 138.611 17.4844 138.611 17.4844C138.611 17.4844 138.272 17.5393 138.063 17.5742C137.564 18.3226 135.483 22.9825 128.175 26.4052C126.189 27.3331 121.121 28.81 118.636 29.6282C116.152 30.4415 112.869 31.9582 112.191 35.4307C111.353 39.6965 109.272 54.0057 109.083 55.3478Z" fill="url(#paint31_linear_14_479)"/>
<path d="M109.083 55.3478C109.931 54.5445 110.849 53.8261 111.812 53.1625C111.971 52.2095 113.164 45.055 113.383 43.8825C113.618 42.6202 114.271 37.2019 116.78 34.2981C121.181 29.1991 125.491 30.0473 131.956 25.6917C136.531 22.6133 138.611 17.4844 138.611 17.4844C138.611 17.4844 135.483 23.2669 128.175 26.6845C126.189 27.6125 122.717 28.9147 120.233 29.733C117.748 30.5462 114.341 31.8285 112.755 35.6602C111.896 37.7357 110.998 42.6152 110.335 46.9708C109.711 51.047 109.173 54.6992 109.083 55.3478Z" fill="url(#paint32_linear_14_479)"/>
<path d="M109.083 55.3479C109.931 54.5446 110.849 53.8261 111.812 53.1626C111.876 52.7684 112.106 50.0443 112.53 46.7813C113.124 42.1912 114.281 36.6681 116.007 34.6425C120.377 29.5185 125.491 30.0424 131.956 25.6868C121.729 30.2869 115.863 32.4921 113.852 35.8299C111.797 39.2426 110.809 43.5084 109.871 50.0293C109.477 52.7534 109.148 54.8689 109.083 55.3479Z" fill="url(#paint33_linear_14_479)"/>
<path d="M109.676 54.8087C110.44 54.1452 111.248 53.5365 112.091 52.9727C112.33 52.0347 112.565 50.9371 112.794 49.6648C113.338 47.6242 113.892 45.7882 114.381 44.3014C117.633 34.4127 129.197 41.3827 137.848 22.9873C137.673 23.2817 137.494 23.571 137.319 23.8504C126.174 41.5723 113.009 31.8981 111.008 46.0376C110.43 50.1588 109.996 52.9328 109.676 54.8087Z" fill="url(#paint34_linear_14_479)"/>
<path d="M110.46 54.1551C110.988 53.736 111.532 53.3469 112.091 52.9727C112.33 52.0347 112.565 50.9371 112.794 49.6648C113.338 47.6242 113.892 45.7882 114.381 44.3014C117.633 34.4127 129.197 41.3827 137.848 22.9873C137.673 23.2817 137.494 23.571 137.319 23.8504C126.209 41.9614 113.662 33.4797 111.717 46.0975C111.163 49.6648 110.988 50.5479 110.46 54.1551Z" fill="url(#paint35_linear_14_479)"/>
<path d="M111.398 53.4517C111.627 53.287 111.857 53.1273 112.091 52.9727C112.33 52.0347 112.565 50.9371 112.794 49.6648C113.338 47.6242 113.892 45.7882 114.381 44.3014C117.634 34.4127 129.198 41.3827 137.848 22.9873C137.673 23.2817 137.489 23.5661 137.344 23.8654C128.883 41.1681 115.728 35.1461 113.298 45.1346C112.256 49.4154 111.832 51.4061 111.398 53.4517Z" fill="url(#paint36_linear_14_479)"/>
<path d="M110.969 53.7711C111.857 53.1026 112.794 52.4939 113.757 51.9301C113.957 51.1967 114.176 50.4483 114.421 49.7149C116.76 42.7449 129.277 44.6857 133.144 32.4221C127.282 43.7128 114.226 42.4206 111.857 49.6001C111.452 50.8225 111.193 52.2095 110.969 53.7711Z" fill="url(#paint37_linear_14_479)"/>
<path d="M112.086 52.9727C112.63 52.6085 113.189 52.2592 113.752 51.925C113.952 51.1915 114.171 50.4431 114.416 49.7097C116.756 42.7397 129.272 44.6806 133.139 32.417C127.561 44.3213 114.321 43.094 112.844 49.5201C112.555 50.7774 112.365 51.431 112.086 52.9727Z" fill="url(#paint38_linear_14_479)"/>
<path d="M138.606 17.4844L138.327 17.5143L138.058 17.5742C137.559 18.3226 135.478 22.9825 128.17 26.4052C126.184 27.3331 121.116 28.81 118.631 29.6282C129.766 26.8143 135.024 24.1949 138.606 17.4844Z" fill="url(#paint39_linear_14_479)"/>
<path d="M89.5517 111.946C93.3482 111.946 108.554 111.946 112.35 111.946C116.222 111.946 117.055 113.358 117.055 113.358C116.91 111.686 114.486 108.313 112.35 108.313C110.25 108.313 91.652 108.313 89.5517 108.313C87.4215 108.313 84.992 111.686 84.8473 113.358C84.8473 113.358 85.6804 111.946 89.5517 111.946Z" fill="#1B1C2B"/>
<path d="M112.35 107.86C110.235 107.86 91.667 107.86 89.5517 107.86C87.4215 107.86 85.0718 111.232 84.9321 112.904C84.9321 112.904 85.6854 111.492 89.5517 111.492C93.3831 111.492 108.519 111.492 112.35 111.492C116.222 111.492 116.97 112.904 116.97 112.904C116.825 111.232 114.481 107.86 112.35 107.86Z" fill="url(#paint40_radial_14_479)"/>
<path d="M115.204 116.107C113.094 116.107 88.8034 116.107 86.6982 116.107C84.568 116.107 81.9938 119.215 81.9938 123.456C81.9938 123.456 82.8269 120.113 86.6982 120.113C90.5196 120.113 111.383 120.113 115.204 120.113C119.075 120.113 119.908 123.456 119.908 123.456C119.908 119.215 117.334 116.107 115.204 116.107Z" fill="#1B1C2B"/>
<path d="M115.204 115.453C113.094 115.453 88.8034 115.453 86.6981 115.453C84.5679 115.453 82.0137 118.561 82.0137 122.802C82.0137 122.802 82.8268 119.459 86.6981 119.459C90.5195 119.459 111.383 119.459 115.204 119.459C119.075 119.459 119.888 122.802 119.888 122.802C119.888 118.561 117.334 115.453 115.204 115.453Z" fill="url(#paint41_radial_14_479)"/>
<path d="M99.5791 97.5119C99.5791 97.5169 99.3047 98.9289 99.1102 99.6723L99.0154 99.9966L98.8607 99.6972C96.3813 94.9474 92.9839 93.9745 89.7013 93.0366C86.5534 92.1335 83.5751 91.2853 82.1234 86.9796L81.9288 86.4009C87.3816 91.7294 93.0937 88.3317 98.0376 95.626C98.2272 95.8754 98.4167 96.1399 98.5963 96.4193C98.726 93.755 98.2321 91.7394 97.3292 90.1628C94.0216 84.8342 85.386 85.2234 81.3801 80.4637C80.8313 79.8699 80.3923 79.1864 80.0979 78.3782C80.0929 78.3682 80.088 78.3582 80.083 78.3482V78.3432C79.634 77.2855 79.3546 76.0432 79.2948 74.5614C79.2748 74.1373 79.2748 73.6932 79.2948 73.2292C82.5025 80.7281 103.076 78.3831 99.5791 97.5119Z" fill="url(#paint42_linear_14_479)"/>
<path d="M99.6689 96.07C99.5891 97.6266 99.3696 98.5197 99.19 99.3679C99.3945 98.38 99.18 97.3772 98.6013 96.4093C98.731 93.745 98.2371 91.7294 97.3342 90.1527C94.0266 84.8242 85.391 85.2134 81.3851 80.4536C80.8363 79.8599 80.3973 79.1764 80.1029 78.3681C80.098 78.3582 80.093 78.3482 80.088 78.3382V78.3332C79.639 77.2755 79.3596 76.0332 79.2998 74.5514C79.2798 74.1273 79.2798 73.6832 79.2998 73.2192C82.3978 83.6118 100.612 77.8642 99.6689 96.07Z" fill="url(#paint43_linear_14_479)"/>
<path d="M99.1102 99.6672C99.0154 99.9915 99.0154 99.9915 99.0154 99.9915L98.8607 99.6921C96.3813 94.9423 92.984 93.9694 89.7013 93.0315C86.5534 92.1284 83.5751 91.2802 82.1234 86.9745L81.9288 86.3958C86.0246 91.7143 93.6674 89.3494 98.5414 96.3343C98.5414 96.3343 98.5564 96.3493 98.5963 96.4142C99.2449 97.4769 99.4295 98.5895 99.1102 99.6672Z" fill="url(#paint44_linear_14_479)"/>
<path d="M99.1102 99.6673C99.0154 99.9916 99.0154 99.9916 99.0154 99.9916L98.8607 99.6922C96.3813 94.9424 93.2035 93.75 89.9208 92.812C86.7729 91.909 83.9942 91.0259 82.1234 86.9696L81.9288 86.3909C86.0246 91.7094 93.6674 89.3445 98.5414 96.3295C98.5414 96.3295 98.5714 96.3644 98.5963 96.4093C99.2748 97.5119 99.4295 98.5896 99.1102 99.6673Z" fill="url(#paint45_linear_14_479)"/>
<path d="M90.2601 92.2482C87.1122 91.3452 83.5901 90.1927 82.1234 86.9696L81.9288 86.3909C86.0246 91.7094 93.6674 89.3445 98.5414 96.3295L98.5963 96.4093C95.3985 93.7301 93.5477 93.1912 90.2601 92.2482Z" fill="url(#paint46_linear_14_479)"/>
<path d="M96.4711 94.3985C95.3636 93.5952 92.1309 91.7742 89.6315 91.1904C85.2564 90.1626 83.1162 88.7158 81.9837 86.5404L81.9338 86.3958C86.0296 91.7143 93.6724 89.3494 98.5465 96.3343C98.5465 96.3343 98.5764 96.3643 98.6013 96.4142C98.0426 95.8504 96.7006 94.5681 96.4711 94.3985Z" fill="url(#paint47_linear_14_479)"/>
<path d="M99.6689 96.07C99.619 97.6316 99.3696 98.5197 99.19 99.3679C99.3945 98.38 99.18 97.3772 98.6013 96.4093C98.731 93.745 98.2371 91.7294 97.3342 90.1527C94.0266 84.8242 85.391 85.2134 81.3851 80.4536C80.8363 79.8599 80.3973 79.1764 80.1029 78.3681C80.098 78.3582 80.093 78.3482 80.088 78.3382V78.3332C79.639 77.2755 79.3596 76.0332 79.2998 74.5514C79.2798 74.1273 79.2798 73.6832 79.2998 73.2192C82.6023 84.9989 100.223 78.892 99.6689 96.07Z" fill="url(#paint48_linear_14_479)"/>
<path d="M99.669 96.0699C99.6191 97.6315 99.3697 98.5196 99.1901 99.3678C99.3946 98.3799 99.1801 97.377 98.6014 96.4091C98.7311 93.7449 98.347 91.3051 97.444 89.7235C94.1365 84.395 82.8219 84.2004 80.3026 78.3031C80.2976 78.2932 80.2926 78.2832 80.2876 78.2732V78.2682C79.8386 77.2105 79.2849 75.6439 79.2999 74.5462C79.3048 74.1222 79.2799 73.6781 79.2999 73.2141C82.6024 84.9987 100.223 78.8919 99.669 96.0699Z" fill="url(#paint49_linear_14_479)"/>
<path d="M99.669 96.07C99.6191 97.6316 99.3996 91.4399 97.7533 88.8356C91.9064 80.9725 82.8269 82.7387 80.532 77.5499C80.527 77.5399 79.2948 75.0004 79.2948 73.2092C82.6024 84.9988 100.223 78.892 99.669 96.07Z" fill="url(#paint50_linear_14_479)"/>
<path d="M97.4839 76.2476C97.4789 76.2625 96.8104 79.2112 96.7056 79.5904C91.8765 66.2391 75.658 75.0751 75.1541 60.4915C75.1541 60.4965 75.1491 60.3967 75.1441 60.3418C75.1691 60.4017 75.194 60.4566 75.2239 60.5115C76.6258 63.3553 79.8934 64.2634 83.4155 64.9818C84.8623 65.2413 86.3389 65.4858 87.7208 65.8749C87.7258 65.8749 92.7994 67.1821 94.3459 69.7067C94.3509 69.6717 94.5056 67.9854 94.5255 67.1621C94.5205 64.892 94.0117 63.1009 93.1536 61.644C90.6792 57.9121 86.9426 56.4402 81.3402 54.225C75.7328 52.0098 70.6093 49.3655 71.3826 39.5916C71.5821 40.0406 71.8216 40.4597 72.0511 40.8788C72.8792 42.3955 74.8298 44.1018 74.8398 44.1068C82.3928 50.4781 97.1496 51.466 98.2022 66.9726C98.4716 70.8492 98.1224 72.8948 97.4839 76.2476Z" fill="url(#paint51_linear_14_479)"/>
<path d="M96.7107 79.5903C91.8815 66.2391 75.663 75.075 75.1591 60.4915C75.1591 60.4965 75.1542 60.3967 75.1492 60.3418C75.1741 60.4017 75.204 60.4565 75.229 60.5114C76.7605 64.1187 79.8935 64.8072 83.4106 65.5206C84.8573 65.7801 86.2193 65.9996 87.6061 66.3888C89.871 66.9326 92.3854 67.9304 94.5306 70.5997C94.5306 70.5997 95.7129 71.7971 96.1719 74.167C96.7156 76.9859 96.7107 79.5903 96.7107 79.5903Z" fill="url(#paint52_linear_14_479)"/>
<path d="M97.4989 76.2426C97.4939 76.2575 96.8254 79.2062 96.7256 79.5854C96.7256 79.5854 96.7256 76.981 96.1868 74.167C95.648 71.3531 94.3659 69.7017 94.3659 69.7017C94.3709 69.6667 94.5206 67.9804 94.5455 67.1571C94.5356 64.887 94.0317 63.0959 93.1736 61.639C90.6992 57.9071 86.9626 56.4402 81.3552 54.225C75.7478 52.0098 70.6244 47.1952 71.3926 39.5916C71.5922 40.0406 71.8316 40.4547 72.0611 40.8788C72.8893 42.3955 74.8449 44.3812 74.8498 44.3862C82.5176 51.1965 97.0649 52.8829 97.9429 66.8179C98.1823 70.7045 98.1374 72.8898 97.4989 76.2426Z" fill="url(#paint53_linear_14_479)"/>
<path d="M96.7107 79.5903C93.3482 65.9896 77.9529 73.8677 75.1591 60.4915C75.1591 60.4965 75.1542 60.3967 75.1492 60.3418C75.1741 60.4017 75.204 60.4565 75.229 60.5114C76.7605 64.1187 79.8935 64.8072 83.4106 65.5206C84.8573 65.7801 86.2193 65.9996 87.6061 66.3888C89.871 66.9326 92.3854 67.9304 94.5306 70.5997C94.5306 70.5997 95.7129 71.7971 96.1719 74.167C96.7156 76.9859 96.7107 79.5903 96.7107 79.5903Z" fill="url(#paint54_linear_14_479)"/>
<path d="M96.7107 79.5903C95.0294 63.3254 79.2898 72.6203 75.1591 60.4915C75.1591 60.4965 75.1542 60.3967 75.1492 60.3418C75.1741 60.4017 75.204 60.4565 75.229 60.5114C76.7605 64.1187 79.8935 64.8072 83.4106 65.5206C84.8573 65.7801 86.2193 65.9996 87.6061 66.3888C89.871 66.9326 92.3854 67.9304 94.5306 70.5997C94.5306 70.5997 95.7129 71.7971 96.1719 74.167C96.7156 76.9859 96.7107 79.5903 96.7107 79.5903Z" fill="url(#paint55_linear_14_479)"/>
<path d="M96.7107 79.5903C96.1519 61.6889 77.7533 70.0409 75.1591 60.4915C75.1591 60.4965 75.1542 60.3967 75.1492 60.3418C75.1741 60.4017 75.204 60.4565 75.229 60.5114C76.7605 64.1187 79.8935 64.8072 83.4106 65.5206C84.8573 65.7801 86.2193 65.9996 87.6061 66.3888C89.871 66.9326 92.3854 67.9304 94.5306 70.5997C94.5306 70.5997 95.7129 71.7971 96.1719 74.167C96.7156 76.9859 96.7107 79.5903 96.7107 79.5903Z" fill="url(#paint56_linear_14_479)"/>
<path d="M97.4989 76.2426C97.4939 76.2575 96.8254 79.2062 96.7256 79.5854C96.7256 79.5854 96.7256 76.981 96.1869 74.167C96.0073 73.2191 95.7379 72.4008 95.4685 71.7373C95.7478 68.0652 95.9723 65.6354 94.6553 62.4223C93.3383 59.2093 90.3051 56.9392 84.6927 54.7389C77.1347 51.7753 70.6194 47.1952 71.3877 39.5916C71.5872 40.0406 71.8267 40.4547 72.0561 40.8788C72.8843 42.3955 74.8399 44.3812 74.8449 44.3862C82.5126 51.1965 97.0599 52.8829 97.9379 66.8179C98.1824 70.7045 98.1375 72.8898 97.4989 76.2426Z" fill="url(#paint57_linear_14_479)"/>
<path d="M97.4988 76.2426C97.4938 76.2575 98.2072 65.9847 96.7106 62.3176C94.735 57.488 89.856 53.4766 84.2436 51.2764C76.6856 48.3128 71.8914 43.6179 71.3876 39.5916C71.5871 40.0406 71.8266 40.4547 72.0561 40.8788C72.8842 42.3955 74.8398 44.3812 74.8448 44.3862C82.5125 51.1965 97.0598 52.8829 97.9378 66.8179C98.1823 70.7045 98.1374 72.8898 97.4988 76.2426Z" fill="url(#paint58_linear_14_479)"/>
<path d="M95.6729 68.3895C95.2688 63.8094 94.9046 62.4224 93.0139 60.3418C90.6791 57.7724 89.2224 56.8544 83.6101 54.6541C76.0521 51.6905 70.6143 47.1952 71.3876 39.5916C71.9463 44.501 74.8747 47.729 74.8847 47.734C80.3674 52.1994 82.747 52.359 87.0723 54.4894C90.0506 55.9613 92.3803 57.8123 93.857 59.6034C96.1818 62.4423 95.7827 64.8621 95.6729 68.3895Z" fill="url(#paint59_linear_14_479)"/>
<path d="M102.323 97.5119C102.323 97.5169 102.597 98.9289 102.792 99.6723L102.887 99.9966L103.041 99.6972C105.521 94.9474 108.918 93.9745 112.201 93.0366C115.349 92.1335 118.327 91.2853 119.779 86.9796L119.973 86.4009C114.521 91.7294 108.808 88.3317 103.865 95.626C103.675 95.8754 103.485 96.1399 103.306 96.4193C103.176 93.755 103.67 91.7394 104.573 90.1628C107.88 84.8342 116.516 85.2234 120.522 80.4637C121.071 79.8699 121.51 79.1864 121.804 78.3782C121.809 78.3682 121.814 78.3582 121.819 78.3482V78.3432C122.268 77.2855 122.547 76.0432 122.607 74.5614C122.627 74.1373 122.627 73.6932 122.607 73.2292C119.4 80.7281 98.8209 78.3831 102.323 97.5119Z" fill="url(#paint60_linear_14_479)"/>
<path d="M102.233 96.07C102.313 97.6266 102.533 98.5197 102.712 99.3679C102.508 98.38 102.722 97.3772 103.301 96.4093C103.171 93.745 103.665 91.7294 104.568 90.1527C107.876 84.8242 116.511 85.2134 120.517 80.4536C121.066 79.8599 121.505 79.1764 121.799 78.3681C121.804 78.3582 121.809 78.3482 121.814 78.3382V78.3332C122.263 77.2755 122.543 76.0332 122.602 74.5514C122.622 74.1273 122.622 73.6832 122.602 73.2192C119.499 83.6118 101.285 77.8642 102.233 96.07Z" fill="url(#paint61_linear_14_479)"/>
<path d="M102.792 99.6672C102.887 99.9915 102.887 99.9915 102.887 99.9915L103.041 99.6921C105.521 94.9423 108.918 93.9694 112.201 93.0315C115.349 92.1284 118.327 91.2802 119.779 86.9745L119.973 86.3958C115.878 91.7143 108.235 89.3494 103.361 96.3343C103.361 96.3343 103.346 96.3493 103.306 96.4142C102.657 97.4769 102.473 98.5895 102.792 99.6672Z" fill="url(#paint62_linear_14_479)"/>
<path d="M102.792 99.6673C102.887 99.9916 102.887 99.9916 102.887 99.9916L103.041 99.6922C105.521 94.9424 108.699 93.75 111.981 92.812C115.129 91.909 117.908 91.0259 119.779 86.9696L119.973 86.3909C115.877 91.7094 108.235 89.3445 103.361 96.3295C103.361 96.3295 103.331 96.3644 103.306 96.4093C102.627 97.5119 102.473 98.5896 102.792 99.6673Z" fill="url(#paint63_linear_14_479)"/>
<path d="M111.637 92.2482C114.785 91.3452 118.307 90.1927 119.774 86.9696L119.968 86.3909C115.872 91.7094 108.23 89.3445 103.356 96.3295L103.301 96.4093C106.499 93.7301 108.354 93.1912 111.637 92.2482Z" fill="url(#paint64_linear_14_479)"/>
<path d="M105.431 94.3985C106.538 93.5952 109.771 91.7742 112.271 91.1904C116.646 90.1626 118.786 88.7158 119.918 86.5404L119.968 86.3958C115.872 91.7143 108.23 89.3494 103.356 96.3343C103.356 96.3343 103.326 96.3643 103.301 96.4142C103.86 95.8504 105.201 94.5681 105.431 94.3985Z" fill="url(#paint65_linear_14_479)"/>
<path d="M102.233 96.07C102.283 97.6316 102.533 98.5197 102.712 99.3679C102.508 98.38 102.722 97.3772 103.301 96.4093C103.171 93.745 103.665 91.7294 104.568 90.1527C107.876 84.8242 116.511 85.2134 120.517 80.4536C121.066 79.8599 121.505 79.1764 121.799 78.3681C121.804 78.3582 121.809 78.3482 121.814 78.3382V78.3332C122.263 77.2755 122.543 76.0332 122.602 74.5514C122.622 74.1273 122.622 73.6832 122.602 73.2192C119.3 84.9989 101.674 78.892 102.233 96.07Z" fill="url(#paint66_linear_14_479)"/>
<path d="M102.233 96.0699C102.283 97.6315 102.533 98.5196 102.712 99.3678C102.508 98.3799 102.722 97.377 103.301 96.4091C103.171 93.7449 103.555 91.3051 104.458 89.7235C107.766 84.395 119.08 84.2004 121.6 78.3031C121.605 78.2932 121.61 78.2832 121.615 78.2732V78.2682C122.064 77.2105 122.617 75.6439 122.602 74.5462C122.597 74.1222 122.622 73.6781 122.602 73.2141C119.3 84.9987 101.674 78.8919 102.233 96.0699Z" fill="url(#paint67_linear_14_479)"/>
<path d="M102.233 96.07C102.283 97.6316 102.503 91.4399 104.149 88.8356C109.996 80.9725 119.075 82.7387 121.37 77.5499C121.375 77.5399 122.607 75.0004 122.607 73.2092C119.3 84.9988 101.674 78.892 102.233 96.07Z" fill="url(#paint68_linear_14_479)"/>
<path d="M104.418 76.2476C104.423 76.2625 105.092 79.2112 105.197 79.5904C110.026 66.2391 126.244 75.0751 126.748 60.4915C126.748 60.4965 126.753 60.3967 126.758 60.3418C126.733 60.4017 126.708 60.4566 126.678 60.5115C125.276 63.3553 122.009 64.2634 118.487 64.9818C117.04 65.2413 115.563 65.4858 114.181 65.8749C114.176 65.8749 109.103 67.1821 107.556 69.7067C107.551 69.6717 107.397 67.9854 107.377 67.1621C107.382 64.892 107.89 63.1009 108.749 61.644C111.223 57.9121 114.96 56.4402 120.562 54.225C126.169 52.0098 131.293 49.3655 130.52 39.5916C130.32 40.0406 130.081 40.4597 129.851 40.8788C129.023 42.3955 127.072 44.1018 127.062 44.1068C119.509 50.4781 104.753 51.466 103.7 66.9726C103.43 70.8492 103.775 72.8948 104.418 76.2476Z" fill="url(#paint69_linear_14_479)"/>
<path d="M105.192 79.5903C110.021 66.2391 126.239 75.075 126.743 60.4915C126.743 60.4965 126.748 60.3967 126.753 60.3418C126.728 60.4017 126.698 60.4565 126.673 60.5114C125.142 64.1187 122.009 64.8072 118.492 65.5206C117.045 65.7801 115.683 65.9996 114.296 66.3888C112.031 66.9326 109.517 67.9304 107.372 70.5997C107.372 70.5997 106.189 71.7971 105.73 74.167C105.182 76.9859 105.192 79.5903 105.192 79.5903Z" fill="url(#paint70_linear_14_479)"/>
<path d="M104.403 76.2426C104.408 76.2575 105.077 79.2062 105.177 79.5854C105.177 79.5854 105.177 76.981 105.715 74.167C106.254 71.3531 107.536 69.7017 107.536 69.7017C107.531 69.6667 107.382 67.9804 107.357 67.1571C107.367 64.887 107.871 63.0959 108.729 61.639C111.203 57.9071 114.94 56.4402 120.547 54.225C126.154 52.0098 131.278 47.1952 130.51 39.5916C130.31 40.0406 130.071 40.4547 129.841 40.8788C129.013 42.3955 127.057 44.3812 127.052 44.3862C119.385 51.1965 104.837 52.8829 103.959 66.8179C103.72 70.7045 103.765 72.8898 104.403 76.2426Z" fill="url(#paint71_linear_14_479)"/>
<path d="M105.192 79.5903C108.554 65.9896 123.949 73.8677 126.743 60.4915C126.743 60.4965 126.748 60.3967 126.753 60.3418C126.728 60.4017 126.698 60.4565 126.673 60.5114C125.142 64.1187 122.009 64.8072 118.492 65.5206C117.045 65.7801 115.683 65.9996 114.296 66.3888C112.031 66.9326 109.517 67.9304 107.372 70.5997C107.372 70.5997 106.189 71.7971 105.73 74.167C105.182 76.9859 105.192 79.5903 105.192 79.5903Z" fill="url(#paint72_linear_14_479)"/>
<path d="M105.192 79.5903C106.873 63.3254 122.612 72.6203 126.743 60.4915C126.743 60.4965 126.748 60.3967 126.753 60.3418C126.728 60.4017 126.698 60.4565 126.673 60.5114C125.142 64.1187 122.009 64.8072 118.492 65.5206C117.045 65.7801 115.683 65.9996 114.296 66.3888C112.031 66.9326 109.517 67.9304 107.372 70.5997C107.372 70.5997 106.189 71.7971 105.73 74.167C105.182 76.9859 105.192 79.5903 105.192 79.5903Z" fill="url(#paint73_linear_14_479)"/>
<path d="M105.192 79.5903C105.75 61.6889 124.149 70.0409 126.743 60.4915C126.743 60.4965 126.748 60.3967 126.753 60.3418C126.728 60.4017 126.698 60.4565 126.673 60.5114C125.142 64.1187 122.009 64.8072 118.492 65.5206C117.045 65.7801 115.683 65.9996 114.296 66.3888C112.031 66.9326 109.517 67.9304 107.372 70.5997C107.372 70.5997 106.189 71.7971 105.73 74.167C105.182 76.9859 105.192 79.5903 105.192 79.5903Z" fill="url(#paint74_linear_14_479)"/>
<path d="M104.403 76.2426C104.408 76.2575 105.077 79.2062 105.177 79.5854C105.177 79.5854 105.177 76.981 105.715 74.167C105.895 73.2191 106.164 72.4008 106.434 71.7373C106.154 68.0652 105.93 65.6354 107.247 62.4223C108.564 59.2093 111.597 56.9392 117.21 54.7389C124.768 51.7753 131.283 47.1952 130.515 39.5916C130.315 40.0406 130.076 40.4547 129.846 40.8788C129.018 42.3955 127.062 44.3812 127.057 44.3862C119.39 51.1965 104.842 52.8829 103.964 66.8179C103.72 70.7045 103.765 72.8898 104.403 76.2426Z" fill="url(#paint75_linear_14_479)"/>
<path d="M104.403 76.2426C104.408 76.2575 103.695 65.9847 105.192 62.3176C107.167 57.488 112.046 53.4766 117.659 51.2764C125.217 48.3128 130.011 43.6179 130.515 39.5916C130.315 40.0406 130.076 40.4547 129.846 40.8788C129.018 42.3955 127.062 44.3812 127.057 44.3862C119.39 51.1965 104.842 52.8829 103.964 66.8179C103.72 70.7045 103.765 72.8898 104.403 76.2426Z" fill="url(#paint76_linear_14_479)"/>
<path d="M106.229 68.3895C106.633 63.8094 106.997 62.4224 108.888 60.3418C111.223 57.7724 112.68 56.8544 118.292 54.6541C125.85 51.6905 131.288 47.1952 130.515 39.5916C129.956 44.501 127.027 47.729 127.017 47.734C121.535 52.1994 119.155 52.359 114.83 54.4894C111.852 55.9613 109.522 57.8123 108.045 59.6034C105.72 62.4423 106.114 64.8621 106.229 68.3895Z" fill="url(#paint77_linear_14_479)"/>
<path d="M103.865 233.614L98.9656 238.089C97.9529 239.012 96.8005 239.012 95.7878 238.089L90.8938 233.614L95.7878 229.133C96.8005 228.21 97.9529 228.21 98.9656 229.133L103.865 233.614Z" fill="white"/>
<path d="M11.9763 205.225C11.9763 203.678 12.2208 202.231 12.7147 200.894C13.2036 199.552 13.907 198.394 14.8149 197.412C15.7229 196.429 16.8104 195.655 18.0776 195.092C19.3447 194.528 20.7616 194.243 22.328 194.243C23.8945 194.243 25.3113 194.528 26.5785 195.092C27.8456 195.655 28.9282 196.429 29.8262 197.412C30.7241 198.394 31.4226 199.557 31.9115 200.894C32.4053 202.231 32.6498 203.678 32.6498 205.225C32.6498 206.522 32.4752 207.744 32.131 208.897C31.7867 210.049 31.2978 211.082 30.6693 212C30.0407 212.923 29.2724 213.706 28.3644 214.355C27.4565 215.004 26.4338 215.488 25.3063 215.797C25.5757 216.55 25.9798 217.259 26.5136 217.912C27.0474 218.571 27.656 219.145 28.3345 219.639C29.013 220.128 29.7214 220.512 30.4547 220.781C31.1881 221.051 31.8765 221.19 32.5251 221.19V222.009C31.3328 222.009 30.1404 221.899 28.9481 221.679C27.7558 221.46 26.5835 221.101 25.436 220.597C24.2836 220.093 23.1761 219.449 22.1085 218.651C21.0409 217.858 20.0282 216.875 19.0654 215.702C17.9778 215.368 16.995 214.869 16.117 214.21C15.239 213.552 14.4957 212.768 13.887 211.855C13.2784 210.942 12.8094 209.925 12.4752 208.797C12.1459 207.669 11.9763 206.477 11.9763 205.225ZM28.3245 205.225C28.3245 202.171 27.8007 199.811 26.7581 198.145C25.7104 196.484 24.2387 195.65 22.333 195.65C20.4273 195.65 18.9606 196.484 17.9229 198.145C16.8853 199.811 16.3714 202.166 16.3714 205.225C16.3714 208.278 16.8903 210.638 17.9229 212.299C18.9606 213.961 20.4273 214.794 22.333 214.794C24.2337 214.794 25.7104 213.961 26.7581 212.299C27.8007 210.633 28.3245 208.278 28.3245 205.225Z" fill="white"/>
<path d="M69.5817 194.867V196.279H63.0264V215.578H58.9456V196.279H56.7156C55.6081 196.279 54.7301 196.559 54.0816 197.112C53.433 197.666 53.1088 198.644 53.1088 200.046H52.2108V197.377C52.2108 197.062 52.2008 196.758 52.2756 196.454C52.3505 196.149 52.4852 195.885 52.6847 195.655C52.8843 195.426 53.1536 195.236 53.5029 195.092C53.8471 194.947 54.2911 194.872 54.8349 194.872H69.5817V194.867Z" fill="white"/>
<path d="M96.1868 206.103H94.9297V215.578H90.8189V198.948C90.8189 198.005 90.6892 197.252 90.4248 196.673C90.1604 196.1 89.5617 195.81 88.6189 195.81H88.3046V194.867H96.9651C97.4689 194.867 98.0227 194.887 98.6263 194.932C99.235 194.972 99.8486 195.067 100.477 195.211C101.106 195.361 101.714 195.566 102.313 195.825C102.912 196.09 103.436 196.434 103.899 196.863C104.358 197.292 104.733 197.816 105.012 198.43C105.296 199.048 105.436 199.782 105.436 200.64C105.436 201.458 105.281 202.161 104.982 202.755C104.678 203.349 104.279 203.853 103.79 204.262C103.296 204.666 102.747 205 102.143 205.25C101.535 205.499 100.941 205.699 100.357 205.844L103.65 211.337C104.049 212.005 104.428 212.554 104.797 212.983C105.162 213.412 105.516 213.751 105.85 214.001C106.184 214.25 106.494 214.435 106.778 214.55C107.062 214.665 107.317 214.744 107.546 214.784V215.568C107.377 215.652 107.082 215.722 106.653 215.787C106.224 215.852 105.81 215.882 105.416 215.882C104.872 215.882 104.343 215.807 103.83 215.662C103.316 215.518 102.817 215.263 102.323 214.909C101.829 214.55 101.34 214.081 100.846 213.497C100.352 212.913 99.8486 212.19 99.3248 211.332L96.1868 206.103ZM96.9701 196.124C96.7206 196.124 96.4662 196.134 96.2168 196.154C95.9673 196.174 95.7478 196.204 95.5582 196.249C95.3288 196.289 95.1192 196.324 94.9297 196.344V204.846H96.8104C97.3143 204.846 97.8132 204.771 98.317 204.626C98.8209 204.481 99.2749 204.237 99.684 203.903C100.093 203.568 100.422 203.119 100.672 202.556C100.921 201.992 101.046 201.303 101.046 200.485C101.046 199.667 100.921 198.983 100.672 198.43C100.422 197.876 100.098 197.427 99.6989 197.082C99.2998 196.738 98.8608 196.494 98.3819 196.344C97.898 196.194 97.429 196.124 96.9701 196.124Z" fill="white"/>
<path d="M116.297 215.578V213.542C116.736 213.103 117.284 212.579 117.943 211.975C118.601 211.367 119.285 210.703 119.998 209.985C120.707 209.261 121.425 208.503 122.148 207.71C122.872 206.916 123.515 206.098 124.079 205.265C124.643 204.427 125.102 203.588 125.461 202.755C125.815 201.922 125.995 201.104 125.995 200.31C125.995 199.492 125.895 198.794 125.695 198.205C125.496 197.621 125.242 197.137 124.927 196.763C124.613 196.384 124.249 196.11 123.83 195.93C123.411 195.75 122.982 195.66 122.543 195.66C121.226 195.66 120.118 196.1 119.215 196.978C118.317 197.856 117.708 199.248 117.394 201.149H116.391C116.391 200.355 116.327 199.547 116.391 198.719C116.456 197.891 116.676 197.237 117.05 196.758C117.614 196.065 118.447 195.476 119.544 194.987C120.642 194.493 121.849 194.249 123.166 194.249C123.875 194.249 124.658 194.323 125.501 194.468C126.349 194.613 127.132 194.907 127.856 195.346C128.579 195.785 129.178 196.399 129.662 197.197C130.145 197.995 130.385 199.028 130.385 200.305C130.385 201.288 130.15 202.266 129.677 203.239C129.208 204.212 128.604 205.15 127.871 206.063C127.137 206.976 126.329 207.849 125.441 208.682C124.553 209.521 123.69 210.289 122.852 210.992C122.014 211.691 121.25 212.315 120.562 212.858C119.874 213.402 119.36 213.841 119.025 214.176H125.521C126.778 214.176 127.741 213.881 128.424 213.283C129.103 212.689 129.442 211.831 129.442 210.723H130.385V213.078C130.385 213.392 130.35 213.702 130.275 214.001C130.2 214.305 130.066 214.57 129.866 214.799C129.667 215.029 129.397 215.218 129.053 215.363C128.709 215.513 128.265 215.583 127.721 215.583H116.297V215.578Z" fill="white"/>
<path d="M141.425 194.239C142.932 194.239 144.204 194.508 145.236 195.037C146.274 195.571 147.107 196.319 147.746 197.282C148.384 198.245 148.848 199.397 149.143 200.75C149.437 202.097 149.582 203.588 149.582 205.225C149.582 206.856 149.437 208.348 149.143 209.695C148.848 211.042 148.384 212.2 147.746 213.163C147.107 214.126 146.269 214.874 145.236 215.408C144.199 215.942 142.932 216.206 141.425 216.206C139.918 216.206 138.651 215.937 137.614 215.408C136.576 214.874 135.743 214.126 135.104 213.163C134.466 212.2 134.002 211.047 133.707 209.695C133.413 208.348 133.268 206.856 133.268 205.225C133.268 203.593 133.413 202.102 133.707 200.75C134.002 199.402 134.466 198.245 135.104 197.282C135.743 196.319 136.581 195.571 137.614 195.037C138.651 194.508 139.918 194.239 141.425 194.239ZM141.425 195.655C140.108 195.655 139.15 196.424 138.557 197.961C137.958 199.502 137.664 201.917 137.664 205.225C137.664 208.528 137.963 210.953 138.557 212.489C139.15 214.026 140.108 214.794 141.425 214.794C142.742 214.794 143.7 214.026 144.294 212.489C144.887 210.953 145.187 208.533 145.187 205.225C145.187 201.917 144.887 199.497 144.294 197.961C143.7 196.424 142.742 195.655 141.425 195.655Z" fill="white"/>
<path d="M174.396 196.279C173.144 196.279 172.176 196.573 171.492 197.172C170.814 197.766 170.475 198.624 170.475 199.732H169.532V197.377C169.532 197.062 169.567 196.758 169.642 196.454C169.716 196.149 169.851 195.885 170.051 195.655C170.25 195.426 170.52 195.236 170.869 195.092C171.218 194.947 171.657 194.872 172.201 194.872H182.807V196.284L174.995 203.628C175.289 203.588 175.533 203.558 175.733 203.548C175.932 203.538 176.147 203.528 176.376 203.518C176.606 203.508 176.815 203.503 177.005 203.503C177.718 203.503 178.477 203.613 179.28 203.833C180.083 204.052 180.831 204.407 181.525 204.9C182.213 205.394 182.787 206.043 183.236 206.846C183.685 207.65 183.909 208.632 183.909 209.78C183.909 211.097 183.635 212.175 183.091 213.008C182.548 213.846 181.889 214.5 181.116 214.969C180.343 215.443 179.529 215.762 178.686 215.942C177.838 216.121 177.125 216.211 176.536 216.211C175.533 216.211 174.635 216.131 173.852 215.977C173.069 215.822 172.365 215.587 171.752 215.288C171.133 214.984 170.579 214.625 170.091 214.205C169.597 213.786 169.133 213.327 168.694 212.823L169.572 211.915C170.45 212.898 171.378 213.627 172.351 214.096C173.323 214.565 174.261 214.799 175.159 214.799C175.763 214.799 176.337 214.704 176.87 214.52C177.404 214.33 177.863 214.031 178.252 213.622C178.641 213.213 178.946 212.694 179.18 212.055C179.41 211.416 179.524 210.658 179.524 209.78C179.524 208.942 179.42 208.218 179.21 207.6C179.001 206.981 178.711 206.472 178.347 206.078C177.983 205.684 177.554 205.389 177.06 205.2C176.566 205.01 176.052 204.915 175.508 204.915C175.024 204.915 174.585 204.945 174.191 205.01C173.792 205.07 173.448 205.145 173.154 205.23C172.799 205.31 172.485 205.409 172.211 205.509L171.458 204.317L180.023 196.284H174.396V196.279Z" fill="white"/>
<path d="M86.8678 213.821C86.3241 213.277 85.8651 212.549 85.486 211.626L83.2959 206.407C84.149 206.158 85.002 205.958 85.8551 205.818C84.9122 205.774 83.9793 205.794 83.0664 205.858L78.4568 194.872H77.0449L67.7908 215.582H69.3523C69.3572 215.577 69.3622 215.572 69.3622 215.572C72.2906 212.304 75.8027 209.64 79.4795 207.884L81.0609 211.626C81.4351 212.529 81.8741 213.242 82.363 213.776C82.8569 214.31 83.3757 214.719 83.9344 215.004C84.4882 215.288 85.0519 215.473 85.6306 215.567C86.2043 215.662 86.7431 215.707 87.247 215.707C87.4765 215.707 87.7459 215.692 88.0502 215.662C88.3545 215.627 88.589 215.592 88.7536 215.548V214.764C88.0402 214.679 87.4116 214.365 86.8678 213.821ZM72.2008 209.281L76.2717 200.265L78.9108 206.517C76.0522 207.215 73.6626 208.303 72.2008 209.281Z" fill="white"/>
<path d="M69.3678 215.567L69.3625 215.578H69.3572C69.3572 215.573 69.3625 215.567 69.3678 215.567Z" fill="white"/>
<path d="M52.5101 213.821C51.9663 213.277 51.5073 212.549 51.1332 211.626L48.9431 206.407C49.7962 206.158 50.6493 205.958 51.5024 205.818C50.5595 205.774 49.6266 205.794 48.7136 205.858L44.104 194.872H42.6922L33.438 215.582H34.9995C34.9995 215.582 35.0045 215.577 35.0095 215.572C37.9429 212.304 41.45 209.635 45.1267 207.884L46.7081 211.626C47.0873 212.529 47.5163 213.242 48.0102 213.776C48.4991 214.31 49.0229 214.719 49.5817 215.004C50.1354 215.288 50.6992 215.473 51.2729 215.567C51.8466 215.662 52.3854 215.707 52.8892 215.707C53.1187 215.707 53.3881 215.692 53.6924 215.662C53.9967 215.627 54.2312 215.592 54.4008 215.548V214.764C53.6824 214.679 53.0539 214.365 52.5101 213.821ZM37.8431 209.281L41.9139 200.265L44.553 206.517C41.6944 207.215 39.3098 208.303 37.8431 209.281Z" fill="white"/>
<path d="M35.0102 215.567L35.0048 215.578H34.9995C35.0048 215.578 35.0048 215.573 35.0102 215.567Z" fill="white"/>
<path d="M152.151 215.578V213.542C152.59 213.103 153.139 212.579 153.797 211.975C154.456 211.367 155.139 210.703 155.853 209.985C156.561 209.261 157.279 208.503 158.003 207.71C158.726 206.916 159.37 206.098 159.933 205.265C160.497 204.427 160.956 203.588 161.315 202.755C161.669 201.922 161.849 201.104 161.849 200.31C161.849 199.492 161.749 198.794 161.55 198.205C161.35 197.621 161.096 197.137 160.781 196.763C160.467 196.384 160.103 196.11 159.684 195.93C159.265 195.75 158.836 195.66 158.397 195.66C157.08 195.66 155.972 196.1 155.069 196.978C154.171 197.856 153.563 199.248 153.248 201.149H152.246C152.246 200.355 152.181 199.547 152.246 198.719C152.311 197.891 152.53 197.237 152.904 196.758C153.468 196.065 154.301 195.476 155.399 194.987C156.496 194.493 157.703 194.249 159.02 194.249C159.729 194.249 160.512 194.323 161.355 194.468C162.203 194.613 162.986 194.907 163.71 195.346C164.433 195.785 165.032 196.399 165.516 197.197C165.995 197.99 166.239 199.028 166.239 200.305C166.239 201.288 166.005 202.266 165.531 203.239C165.062 204.212 164.458 205.15 163.725 206.063C162.991 206.976 162.183 207.849 161.295 208.682C160.407 209.521 159.544 210.289 158.706 210.992C157.868 211.691 157.105 212.315 156.416 212.858C155.728 213.402 155.214 213.841 154.88 214.176H161.375C162.632 214.176 163.595 213.881 164.279 213.283C164.957 212.689 165.296 211.831 165.296 210.723H166.239V213.078C166.239 213.392 166.204 213.702 166.129 214.001C166.055 214.305 165.92 214.57 165.72 214.799C165.521 215.029 165.251 215.218 164.907 215.363C164.563 215.513 164.119 215.583 163.575 215.583H152.151V215.578Z" fill="white"/>
<path d="M190.844 199.178H190.101V194.872H190.764L192.171 196.778L193.498 194.957H194.241V199.183H193.413V196.284L192.256 197.856H192.091L190.849 196.284V199.178H190.844ZM188.025 195.695V199.173H187.197V195.695H186.04V194.867H189.272V195.695H188.025Z" fill="white"/>
<path d="M58.3719 162.302H49.5917L50.5046 165.53V185.412L49.5917 188.645H58.3719L57.459 185.412V165.53L58.3719 162.302Z" fill="white"/>
<path d="M114.95 188.645V162.302H107.99V178.038L97.8881 162.302H91.0085L91.0933 188.645H97.9679V172.984L108.155 188.645H114.95Z" fill="white"/>
<path d="M68.6438 162.302L69.5567 165.535L59.9484 188.65H67.0723L68.3994 185.502L67.656 183.267H79.4196L81.5747 188.65H88.6987L77.7633 162.307H68.6438V162.302ZM70.9636 178.123L74.3609 169.257L77.6735 178.123H70.9636Z" fill="white"/>
<path d="M35.0145 171.577C34.2712 171.163 33.9369 170.585 33.9369 169.921C33.9369 169.178 34.1864 168.679 34.9297 168.265C35.673 167.935 36.6708 167.766 37.8282 167.766L44.124 167.681L46.1145 162.297H36.586C34.6802 162.297 32.9392 162.547 31.4525 163.21C29.8811 163.874 28.7187 164.702 27.8905 165.86C27.0624 167.017 26.6483 168.265 26.6483 169.751C26.6483 171.493 27.1472 172.984 28.3046 174.142C29.462 175.469 31.2879 176.212 32.8593 176.876C34.8499 177.789 37.2495 178.532 39.0704 179.86C39.4844 180.109 39.8985 180.603 39.8985 181.187C39.8985 181.77 39.7339 182.18 39.3198 182.429C38.0776 183.422 36.3365 183.257 34.8449 183.257H26.7281L18.0327 162.297H8.91821L9.83116 165.53L0.222778 188.646H7.34675L8.67377 185.413L7.93043 183.257H19.694L21.9289 188.641H36.6758C40.1529 188.641 42.807 187.977 44.6279 186.735C46.4488 185.328 47.5263 182.923 47.0325 180.603C45.9449 175.14 39.4046 174.232 35.0145 171.577ZM11.238 178.123L14.6353 169.257L17.9479 178.123H11.238Z" fill="white"/>
<path d="M164.319 189.14C167.551 189.14 171.278 188.226 173.348 186.076C175.339 184.006 176.332 181.187 176.332 177.624V162.297H169.622V177.704C169.622 179.445 169.123 180.768 168.215 181.681C167.302 182.594 165.98 183.088 164.324 183.088C162.583 183.088 161.34 182.589 160.348 181.681C159.435 180.768 158.941 179.445 158.941 177.704V162.297H152.226V177.624C152.226 181.187 153.219 184.006 155.289 186.076C157.279 188.231 161.006 189.14 164.319 189.14Z" fill="white"/>
<path d="M200.437 176.382C201.35 175.055 201.68 173.319 201.68 171.413C201.68 168.514 200.851 166.279 199.03 164.702C197.289 163.131 194.89 162.297 191.742 162.297H179.814V188.641H186.773V182.599L186.03 180.443H191.912C193.483 180.443 195.309 180.194 196.8 179.53C198.616 178.622 199.859 177.21 200.437 176.382ZM193.064 174.062C192.321 174.561 191.323 174.805 189.916 174.805H186.105V167.93H189.916C191.323 167.93 192.321 168.18 193.064 168.674C193.807 169.173 194.141 170.081 194.141 171.408C194.141 172.655 193.812 173.568 193.064 174.062Z" fill="white"/>
<path d="M131.602 187.483C129.367 186.405 127.626 184.834 126.384 182.763C125.226 180.693 124.563 178.288 124.563 175.554C124.563 172.735 125.226 170.335 126.384 168.264C127.626 166.194 129.367 164.617 131.602 163.545C133.837 162.387 136.491 161.888 139.39 161.888C141.38 161.888 143.116 162.053 144.608 162.387C146.179 162.801 147.591 163.38 148.913 164.208V170.505C147.756 169.592 146.429 168.933 145.022 168.599C143.53 168.185 141.874 167.935 140.053 167.935C137.404 167.935 135.334 168.599 133.842 170.006C132.435 171.333 131.687 173.154 131.687 175.559C131.687 177.879 132.43 179.785 133.842 181.112C135.334 182.439 137.404 183.102 140.053 183.102C141.959 183.102 143.615 182.938 145.107 182.524C146.598 182.025 147.925 181.366 149.247 180.453V186.75C146.763 188.321 143.45 189.154 139.474 189.154C136.486 189.139 133.837 188.561 131.602 187.483Z" fill="white"/>
<path d="M105.521 140.614V136.608H92.0911V155.342H96.9202V149.39L96.3914 147.858H103.226V144.032H96.9202V140.614H105.521Z" fill="white"/>
<path d="M111.353 154.454C109.761 153.691 108.524 152.568 107.641 151.096C106.758 149.684 106.344 147.913 106.344 145.972C106.344 144.032 106.758 142.26 107.641 140.849C108.524 139.377 109.761 138.254 111.353 137.431C112.944 136.668 114.77 136.253 116.89 136.253C118.302 136.253 119.539 136.373 120.602 136.668C121.719 136.902 122.722 137.316 123.605 137.905V142.38C122.842 141.732 121.899 141.318 120.896 141.023C119.834 140.729 118.656 140.609 117.364 140.609C115.419 140.609 113.947 141.078 112.944 142.021C111.882 142.964 111.413 144.261 111.413 145.967C111.413 147.674 111.882 148.971 112.944 149.914C114.007 150.857 115.478 151.386 117.364 151.386C118.661 151.386 119.898 151.211 120.896 150.917C121.959 150.622 122.957 150.153 123.84 149.445V153.92C122.133 155.038 119.774 155.627 116.89 155.627C114.77 155.637 112.944 155.282 111.353 154.454Z" fill="white"/>
<path d="M90.4997 155.342L82.6673 136.608H76.2467L76.8953 138.903L70.0607 155.337H75.1243L76.0672 153.042L75.5383 151.451H83.9045L85.4361 155.337H90.4997V155.342ZM77.8931 147.799L80.2478 141.552L82.6623 147.799H77.8931Z" fill="white"/>
<defs>
<linearGradient id="paint0_linear_14_479" x1="65.0973" y1="16.7498" x2="64.338" y2="16.7498" gradientUnits="userSpaceOnUse">
<stop stop-color="#B8B7CA"/>
<stop offset="0.5084" stop-color="#F2F1F5"/>
<stop offset="0.6019" stop-color="#ECEBF1"/>
<stop offset="0.7209" stop-color="#DCDBE5"/>
<stop offset="0.8535" stop-color="#C1C1D1"/>
<stop offset="0.9951" stop-color="#9E9FB8"/>
<stop offset="0.9989" stop-color="#9D9EB7"/>
</linearGradient>
<radialGradient id="paint1_radial_14_479" cx="0" cy="0" r="1" gradientUnits="userSpaceOnUse" gradientTransform="translate(102.564 18.2938) scale(44.0213 44.0255)">
<stop stop-color="#CC0C31"/>
<stop offset="0.1568" stop-color="#CA0D30"/>
<stop offset="0.2647" stop-color="#C21130"/>
<stop offset="0.3577" stop-color="#B61530"/>
<stop offset="0.4421" stop-color="#A4182F"/>
<stop offset="0.4497" stop-color="#A2192F"/>
<stop offset="0.5169" stop-color="#9A1D2F"/>
<stop offset="0.6345" stop-color="#83242D"/>
<stop offset="0.7872" stop-color="#612528"/>
<stop offset="0.9067" stop-color="#432020"/>
</radialGradient>
<linearGradient id="paint2_linear_14_479" x1="137.747" y1="16.8055" x2="136.971" y2="16.8055" gradientUnits="userSpaceOnUse">
<stop stop-color="#B8B7CA"/>
<stop offset="0.5084" stop-color="#F2F1F5"/>
<stop offset="0.6019" stop-color="#ECEBF1"/>
<stop offset="0.7209" stop-color="#DCDBE5"/>
<stop offset="0.8535" stop-color="#C1C1D1"/>
<stop offset="0.9951" stop-color="#9E9FB8"/>
<stop offset="0.9989" stop-color="#9D9EB7"/>
</linearGradient>
<linearGradient id="paint3_linear_14_479" x1="58.2174" y1="9.13792" x2="88.7626" y2="47.8062" gradientUnits="userSpaceOnUse">
<stop offset="0.3338" stop-color="#CC0C31"/>
<stop offset="0.3908" stop-color="#C80E30"/>
<stop offset="0.4632" stop-color="#BA1330"/>
<stop offset="0.5436" stop-color="#A5182F"/>
<stop offset="0.5539" stop-color="#A2192F"/>
<stop offset="0.6156" stop-color="#9A1D2F"/>
<stop offset="0.7236" stop-color="#83242D"/>
<stop offset="0.864" stop-color="#612528"/>
<stop offset="0.9738" stop-color="#432020"/>
</linearGradient>
<linearGradient id="paint4_linear_14_479" x1="143.684" y1="9.13653" x2="113.138" y2="47.806" gradientUnits="userSpaceOnUse">
<stop offset="0.3338" stop-color="#CC0C31"/>
<stop offset="0.3908" stop-color="#C80E30"/>
<stop offset="0.4632" stop-color="#BA1330"/>
<stop offset="0.5436" stop-color="#A5182F"/>
<stop offset="0.5539" stop-color="#A2192F"/>
<stop offset="0.6158" stop-color="#9A1D2F"/>
<stop offset="0.7242" stop-color="#83242D"/>
<stop offset="0.8651" stop-color="#612528"/>
<stop offset="0.9753" stop-color="#432020"/>
</linearGradient>
<linearGradient id="paint5_linear_14_479" x1="106.258" y1="42.5681" x2="134.24" y2="14.2105" gradientUnits="userSpaceOnUse">
<stop stop-color="#CC0C31"/>
<stop offset="0.1164" stop-color="#C80E30"/>
<stop offset="0.2644" stop-color="#BA1330"/>
<stop offset="0.4288" stop-color="#A5182F"/>
<stop offset="0.4497" stop-color="#A2192F"/>
<stop offset="0.5307" stop-color="#9A1D2F"/>
<stop offset="0.6722" stop-color="#83242D"/>
<stop offset="0.8561" stop-color="#612528"/>
<stop offset="1" stop-color="#432020"/>
</linearGradient>
<linearGradient id="paint6_linear_14_479" x1="95.6427" y1="42.5681" x2="67.6606" y2="14.2105" gradientUnits="userSpaceOnUse">
<stop stop-color="#CC0C31"/>
<stop offset="0.1164" stop-color="#C80E30"/>
<stop offset="0.2644" stop-color="#BA1330"/>
<stop offset="0.4288" stop-color="#A5182F"/>
<stop offset="0.4497" stop-color="#A2192F"/>
<stop offset="0.5307" stop-color="#9A1D2F"/>
<stop offset="0.6722" stop-color="#83242D"/>
<stop offset="0.8561" stop-color="#612528"/>
<stop offset="1" stop-color="#432020"/>
</linearGradient>
<radialGradient id="paint7_radial_14_479" cx="0" cy="0" r="1" gradientUnits="userSpaceOnUse" gradientTransform="translate(100.965 15.4077) scale(27.9999 28.0026)">
<stop stop-color="#CC0C31"/>
<stop offset="0.1033" stop-color="#C80E30"/>
<stop offset="0.2346" stop-color="#BA1330"/>
<stop offset="0.3804" stop-color="#A5182F"/>
<stop offset="0.399" stop-color="#A2192F"/>
<stop offset="0.4874" stop-color="#9A1D2F"/>
<stop offset="0.642" stop-color="#83242D"/>
<stop offset="0.8429" stop-color="#612528"/>
<stop offset="1" stop-color="#432020"/>
</radialGradient>
<linearGradient id="paint8_linear_14_479" x1="101.216" y1="3.6329" x2="100.896" y2="34.5592" gradientUnits="userSpaceOnUse">
<stop stop-color="#CC0C31" stop-opacity="0"/>
<stop offset="0.6497" stop-color="#70272A" stop-opacity="0.6497"/>
<stop offset="1" stop-color="#432020"/>
</linearGradient>
<linearGradient id="paint9_linear_14_479" x1="99.9383" y1="16.2193" x2="101.015" y2="35.9136" gradientUnits="userSpaceOnUse">
<stop stop-color="#C90C31" stop-opacity="0"/>
<stop offset="0.0298" stop-color="#CC0C31" stop-opacity="0"/>
<stop offset="0.6601" stop-color="#70272A" stop-opacity="0.6497"/>
<stop offset="1" stop-color="#432020"/>
</linearGradient>
<linearGradient id="paint10_linear_14_479" x1="69.2681" y1="-4.60096" x2="95.9239" y2="24.2735" gradientUnits="userSpaceOnUse">
<stop stop-color="#432020"/>
<stop offset="0.3352" stop-color="#CC0C31" stop-opacity="0.6"/>
<stop offset="0.4357" stop-color="#C80E30" stop-opacity="0.7036"/>
<stop offset="0.5634" stop-color="#BA1330" stop-opacity="0.8351"/>
<stop offset="0.7054" stop-color="#A5182F" stop-opacity="0.9814"/>
<stop offset="0.7235" stop-color="#A2192F"/>
<stop offset="0.7641" stop-color="#9A1D2F"/>
<stop offset="0.8353" stop-color="#83242D"/>
<stop offset="0.9277" stop-color="#612528"/>
<stop offset="1" stop-color="#432020"/>
</linearGradient>
<linearGradient id="paint11_linear_14_479" x1="78.6253" y1="25.7883" x2="86.4726" y2="3.55628" gradientUnits="userSpaceOnUse">
<stop stop-color="#432020"/>
<stop offset="0.436" stop-color="#A2192F"/>
<stop offset="0.5678" stop-color="#AB1730"/>
<stop offset="0.7973" stop-color="#C31030"/>
<stop offset="0.8762" stop-color="#CC0C31"/>
</linearGradient>
<linearGradient id="paint12_linear_14_479" x1="103.554" y1="-0.201887" x2="58.8201" y2="24.2009" gradientUnits="userSpaceOnUse">
<stop stop-color="#CC0C31" stop-opacity="0"/>
<stop offset="0.6497" stop-color="#70272A" stop-opacity="0.6497"/>
<stop offset="1" stop-color="#432020"/>
</linearGradient>
<linearGradient id="paint13_linear_14_479" x1="105.714" y1="-1.38194" x2="58.7848" y2="24.2227" gradientUnits="userSpaceOnUse">
<stop stop-color="#C90C31" stop-opacity="0"/>
<stop offset="0.551" stop-color="#6F2328" stop-opacity="0.551"/>
<stop offset="1" stop-color="#2C1313"/>
</linearGradient>
<linearGradient id="paint14_linear_14_479" x1="132.656" y1="-4.60096" x2="106" y2="24.2735" gradientUnits="userSpaceOnUse">
<stop stop-color="#432020"/>
<stop offset="0.3352" stop-color="#CC0C31" stop-opacity="0.6"/>
<stop offset="0.4357" stop-color="#C80E30" stop-opacity="0.7036"/>
<stop offset="0.5634" stop-color="#BA1330" stop-opacity="0.8351"/>
<stop offset="0.7054" stop-color="#A5182F" stop-opacity="0.9814"/>
<stop offset="0.7235" stop-color="#A2192F"/>
<stop offset="0.7641" stop-color="#9A1D2F"/>
<stop offset="0.8353" stop-color="#83242D"/>
<stop offset="0.9277" stop-color="#612528"/>
<stop offset="1" stop-color="#432020"/>
</linearGradient>
<linearGradient id="paint15_linear_14_479" x1="123.299" y1="25.7883" x2="115.452" y2="3.55628" gradientUnits="userSpaceOnUse">
<stop stop-color="#432020"/>
<stop offset="0.436" stop-color="#A2192F"/>
<stop offset="0.5678" stop-color="#AB1730"/>
<stop offset="0.7973" stop-color="#C31030"/>
<stop offset="0.8762" stop-color="#CC0C31"/>
</linearGradient>
<linearGradient id="paint16_linear_14_479" x1="98.3703" y1="-0.201886" x2="143.104" y2="24.2009" gradientUnits="userSpaceOnUse">
<stop stop-color="#CC0C31" stop-opacity="0"/>
<stop offset="0.6497" stop-color="#70272A" stop-opacity="0.6497"/>
<stop offset="1" stop-color="#432020"/>
</linearGradient>
<linearGradient id="paint17_linear_14_479" x1="96.2107" y1="-1.38194" x2="143.14" y2="24.2227" gradientUnits="userSpaceOnUse">
<stop stop-color="#C90C31" stop-opacity="0"/>
<stop offset="0.551" stop-color="#6F2328" stop-opacity="0.551"/>
<stop offset="1" stop-color="#2C1313"/>
</linearGradient>
<linearGradient id="paint18_linear_14_479" x1="87.484" y1="32.2681" x2="114.224" y2="32.2681" gradientUnits="userSpaceOnUse">
<stop stop-color="#1B1C2B"/>
<stop offset="0.1275" stop-color="#9BA1BC"/>
<stop offset="0.1755" stop-color="#A0A5C0"/>
<stop offset="0.2364" stop-color="#B0B4CA"/>
<stop offset="0.304" stop-color="#CACCDD"/>
<stop offset="0.3395" stop-color="#DBDCE8"/>
<stop offset="0.7277" stop-color="#DBDCE8"/>
<stop offset="0.7988" stop-color="#BCBFD3"/>
<stop offset="0.8656" stop-color="#9BA1BC"/>
<stop offset="0.8835" stop-color="#959AB5"/>
<stop offset="0.9062" stop-color="#8488A2"/>
<stop offset="0.9315" stop-color="#6A6D84"/>
<stop offset="0.9588" stop-color="#4A4C61"/>
<stop offset="0.9872" stop-color="#292A3B"/>
<stop offset="1" stop-color="#1B1C2B"/>
</linearGradient>
<linearGradient id="paint19_linear_14_479" x1="88.7219" y1="31.7648" x2="112.827" y2="31.7648" gradientUnits="userSpaceOnUse">
<stop stop-color="#9BA1BC"/>
<stop offset="0.3367" stop-color="#F2F1F5"/>
<stop offset="0.7096" stop-color="#F2F1F5"/>
<stop offset="0.7641" stop-color="#ECECF1"/>
<stop offset="0.8333" stop-color="#DCDCE6"/>
<stop offset="0.9105" stop-color="#C2C4D5"/>
<stop offset="0.993" stop-color="#9EA3BE"/>
<stop offset="1" stop-color="#9BA1BC"/>
</linearGradient>
<linearGradient id="paint20_linear_14_479" x1="67.9995" y1="12.7824" x2="102.04" y2="66.7599" gradientUnits="userSpaceOnUse">
<stop offset="0.1743" stop-color="#F2F1F5"/>
<stop offset="0.2626" stop-color="#ECECF1"/>
<stop offset="0.3748" stop-color="#DCDCE6"/>
<stop offset="0.5" stop-color="#C2C4D5"/>
<stop offset="0.6336" stop-color="#9EA3BE"/>
<stop offset="0.6449" stop-color="#9BA1BC"/>
<stop offset="0.661" stop-color="#8F94AE"/>
<stop offset="0.6892" stop-color="#72748D"/>
<stop offset="0.7261" stop-color="#47495E"/>
<stop offset="0.7698" stop-color="#1C1D2C"/>
<stop offset="0.771" stop-color="#1B1C2B"/>
</linearGradient>
<linearGradient id="paint21_linear_14_479" x1="67.6293" y1="13.0159" x2="101.67" y2="66.9934" gradientUnits="userSpaceOnUse">
<stop offset="0.1985" stop-color="#F2F1F5"/>
<stop offset="0.2444" stop-color="#ECECF1" stop-opacity="0.8499"/>
<stop offset="0.3027" stop-color="#DCDCE6" stop-opacity="0.6592"/>
<stop offset="0.3677" stop-color="#C2C4D5" stop-opacity="0.4464"/>
<stop offset="0.4372" stop-color="#9EA3BE" stop-opacity="0.2192"/>
<stop offset="0.4431" stop-color="#9BA1BC" stop-opacity="0.2"/>
<stop offset="0.6146" stop-color="#9BA1BC"/>
<stop offset="0.6486" stop-color="#8F94AE"/>
<stop offset="0.708" stop-color="#72748D"/>
<stop offset="0.7858" stop-color="#47495E"/>
<stop offset="0.8782" stop-color="#1C1D2C"/>
<stop offset="0.8807" stop-color="#1B1C2B"/>
</linearGradient>
<linearGradient id="paint22_linear_14_479" x1="73.5266" y1="22.0795" x2="100.093" y2="64.2056" gradientUnits="userSpaceOnUse">
<stop offset="0.0745" stop-color="#F2F1F5"/>
<stop offset="0.4087" stop-color="#F2F1F5" stop-opacity="0.7"/>
<stop offset="0.4601" stop-color="#ECECF1" stop-opacity="0.5687"/>
<stop offset="0.5254" stop-color="#DCDCE6" stop-opacity="0.4018"/>
<stop offset="0.5982" stop-color="#C2C4D5" stop-opacity="0.2156"/>
<stop offset="0.676" stop-color="#9EA3BE" stop-opacity="0.0168"/>
<stop offset="0.6826" stop-color="#9BA1BC" stop-opacity="0"/>
</linearGradient>
<linearGradient id="paint23_linear_14_479" x1="67.5992" y1="20.5493" x2="101.364" y2="65.6968" gradientUnits="userSpaceOnUse">
<stop offset="0.253" stop-color="#F2F1F5"/>
<stop offset="0.4732" stop-color="#F2F1F5"/>
<stop offset="0.5493" stop-color="#E7E7EE"/>
<stop offset="0.68" stop-color="#CBCCDC"/>
<stop offset="0.8484" stop-color="#9FA4BF"/>
<stop offset="0.8639" stop-color="#9BA1BC"/>
</linearGradient>
<linearGradient id="paint24_linear_14_479" x1="66.3156" y1="19.5667" x2="95.783" y2="58.9686" gradientUnits="userSpaceOnUse">
<stop offset="0.1837" stop-color="#F2F1F5"/>
<stop offset="0.4027" stop-color="#F2F1F5" stop-opacity="0.6"/>
<stop offset="0.4853" stop-color="#ECECF1" stop-opacity="0.675"/>
<stop offset="0.5903" stop-color="#DCDCE6" stop-opacity="0.7704"/>
<stop offset="0.7075" stop-color="#C2C4D5" stop-opacity="0.8768"/>
<stop offset="0.8326" stop-color="#9EA3BE" stop-opacity="0.9904"/>
<stop offset="0.8431" stop-color="#9BA1BC"/>
<stop offset="0.8632" stop-color="#8F94AE"/>
<stop offset="0.8982" stop-color="#72748D"/>
<stop offset="0.9441" stop-color="#47495E"/>
<stop offset="0.9985" stop-color="#1C1D2C"/>
<stop offset="1" stop-color="#1B1C2B"/>
</linearGradient>
<linearGradient id="paint25_linear_14_479" x1="66.6919" y1="21.2173" x2="96.37" y2="60.9008" gradientUnits="userSpaceOnUse">
<stop offset="0.253" stop-color="#F2F1F5"/>
<stop offset="0.347" stop-color="#ECECF1" stop-opacity="0.9625"/>
<stop offset="0.4664" stop-color="#DCDCE6" stop-opacity="0.9148"/>
<stop offset="0.5996" stop-color="#C2C4D5" stop-opacity="0.8616"/>
<stop offset="0.7418" stop-color="#9EA3BE" stop-opacity="0.8048"/>
<stop offset="0.7538" stop-color="#9BA1BC" stop-opacity="0.8"/>
</linearGradient>
<linearGradient id="paint26_linear_14_479" x1="65.0885" y1="29.5852" x2="134.867" y2="90.1106" gradientUnits="userSpaceOnUse">
<stop stop-color="#F2F1F5"/>
<stop offset="0.0844" stop-color="#ECECF1"/>
<stop offset="0.1916" stop-color="#DCDCE6"/>
<stop offset="0.3112" stop-color="#C2C4D5"/>
<stop offset="0.4389" stop-color="#9EA3BE"/>
<stop offset="0.4497" stop-color="#9BA1BC"/>
<stop offset="0.52" stop-color="#8F94AE"/>
<stop offset="0.6429" stop-color="#72748D"/>
<stop offset="0.8038" stop-color="#47495E"/>
<stop offset="0.9948" stop-color="#1C1D2C"/>
<stop offset="1" stop-color="#1B1C2B"/>
</linearGradient>
<linearGradient id="paint27_linear_14_479" x1="65.0524" y1="29.9413" x2="106.095" y2="65.5411" gradientUnits="userSpaceOnUse">
<stop offset="0.1502" stop-color="#F2F1F5"/>
<stop offset="0.2158" stop-color="#ECECF1"/>
<stop offset="0.2992" stop-color="#DCDCE6"/>
<stop offset="0.3922" stop-color="#C2C4D5"/>
<stop offset="0.4915" stop-color="#9EA3BE"/>
<stop offset="0.4999" stop-color="#9BA1BC"/>
<stop offset="0.5638" stop-color="#8F94AE"/>
<stop offset="0.6755" stop-color="#72748D"/>
<stop offset="0.8217" stop-color="#47495E"/>
<stop offset="0.9952" stop-color="#1C1D2C"/>
<stop offset="1" stop-color="#1B1C2B"/>
</linearGradient>
<linearGradient id="paint28_linear_14_479" x1="63.2949" y1="8.9976" x2="138.607" y2="8.9976" gradientUnits="userSpaceOnUse">
<stop stop-color="#9BA1BC"/>
<stop offset="0.0359" stop-color="#B3B6CC"/>
<stop offset="0.094" stop-color="#D5D5E2"/>
<stop offset="0.1422" stop-color="#EAEAF0"/>
<stop offset="0.174" stop-color="#F2F1F5"/>
<stop offset="0.2613" stop-color="#ECECF1"/>
<stop offset="0.3722" stop-color="#DCDCE6"/>
<stop offset="0.4954" stop-color="#C2C4D5"/>
<stop offset="0.5009" stop-color="#C1C2D5"/>
<stop offset="0.5334" stop-color="#C9CADA"/>
<stop offset="0.637" stop-color="#DFDFE9"/>
<stop offset="0.7364" stop-color="#EDEDF2"/>
<stop offset="0.8259" stop-color="#F2F1F5"/>
<stop offset="0.8586" stop-color="#ECECF1"/>
<stop offset="0.9001" stop-color="#DCDCE6"/>
<stop offset="0.9464" stop-color="#C2C4D5"/>
<stop offset="0.9958" stop-color="#9EA3BE"/>
<stop offset="1" stop-color="#9BA1BC"/>
</linearGradient>
<linearGradient id="paint29_linear_14_479" x1="138.607" y1="9.67754" x2="63.2949" y2="9.67754" gradientUnits="userSpaceOnUse">
<stop offset="0.0898" stop-color="#9BA1BC"/>
<stop offset="0.3558" stop-color="#F2F1F5"/>
<stop offset="0.7124" stop-color="#F2F1F5"/>
<stop offset="0.7479" stop-color="#ECECF1"/>
<stop offset="0.7931" stop-color="#DCDCE6"/>
<stop offset="0.8435" stop-color="#C2C4D5"/>
<stop offset="0.8973" stop-color="#9EA3BE"/>
<stop offset="0.9019" stop-color="#9BA1BC"/>
</linearGradient>
<linearGradient id="paint30_linear_14_479" x1="63.9986" y1="19.7545" x2="86.6035" y2="31.0247" gradientUnits="userSpaceOnUse">
<stop offset="0.2729" stop-color="#9BA1BC"/>
<stop offset="0.6731" stop-color="#DBDCE8"/>
</linearGradient>
<linearGradient id="paint31_linear_14_479" x1="133.902" y1="12.7813" x2="99.8604" y2="66.7604" gradientUnits="userSpaceOnUse">
<stop offset="0.1743" stop-color="#F2F1F5"/>
<stop offset="0.2626" stop-color="#ECECF1"/>
<stop offset="0.3748" stop-color="#DCDCE6"/>
<stop offset="0.5" stop-color="#C2C4D5"/>
<stop offset="0.6336" stop-color="#9EA3BE"/>
<stop offset="0.6449" stop-color="#9BA1BC"/>
<stop offset="0.661" stop-color="#8F94AE"/>
<stop offset="0.6892" stop-color="#72748D"/>
<stop offset="0.7261" stop-color="#47495E"/>
<stop offset="0.7698" stop-color="#1C1D2C"/>
<stop offset="0.771" stop-color="#1B1C2B"/>
</linearGradient>
<linearGradient id="paint32_linear_14_479" x1="134.272" y1="13.0148" x2="100.231" y2="66.9939" gradientUnits="userSpaceOnUse">
<stop offset="0.1985" stop-color="#F2F1F5"/>
<stop offset="0.2444" stop-color="#ECECF1" stop-opacity="0.8499"/>
<stop offset="0.3027" stop-color="#DCDCE6" stop-opacity="0.6592"/>
<stop offset="0.3677" stop-color="#C2C4D5" stop-opacity="0.4464"/>
<stop offset="0.4372" stop-color="#9EA3BE" stop-opacity="0.2192"/>
<stop offset="0.4431" stop-color="#9BA1BC" stop-opacity="0.2"/>
<stop offset="0.6146" stop-color="#9BA1BC"/>
<stop offset="0.6486" stop-color="#8F94AE"/>
<stop offset="0.708" stop-color="#72748D"/>
<stop offset="0.7858" stop-color="#47495E"/>
<stop offset="0.8782" stop-color="#1C1D2C"/>
<stop offset="0.8807" stop-color="#1B1C2B"/>
</linearGradient>
<linearGradient id="paint33_linear_14_479" x1="128.374" y1="22.0795" x2="101.807" y2="64.2056" gradientUnits="userSpaceOnUse">
<stop offset="0.0745" stop-color="#F2F1F5"/>
<stop offset="0.4087" stop-color="#F2F1F5" stop-opacity="0.7"/>
<stop offset="0.4601" stop-color="#ECECF1" stop-opacity="0.5687"/>
<stop offset="0.5254" stop-color="#DCDCE6" stop-opacity="0.4018"/>
<stop offset="0.5982" stop-color="#C2C4D5" stop-opacity="0.2156"/>
<stop offset="0.676" stop-color="#9EA3BE" stop-opacity="0.0168"/>
<stop offset="0.6826" stop-color="#9BA1BC" stop-opacity="0"/>
</linearGradient>
<linearGradient id="paint34_linear_14_479" x1="134.301" y1="20.5493" x2="100.537" y2="65.6968" gradientUnits="userSpaceOnUse">
<stop offset="0.253" stop-color="#F2F1F5"/>
<stop offset="0.4732" stop-color="#F2F1F5"/>
<stop offset="0.5493" stop-color="#E7E7EE"/>
<stop offset="0.68" stop-color="#CBCCDC"/>
<stop offset="0.8484" stop-color="#9FA4BF"/>
<stop offset="0.8639" stop-color="#9BA1BC"/>
</linearGradient>
<linearGradient id="paint35_linear_14_479" x1="135.585" y1="19.5667" x2="106.117" y2="58.9686" gradientUnits="userSpaceOnUse">
<stop offset="0.1837" stop-color="#F2F1F5"/>
<stop offset="0.4027" stop-color="#F2F1F5" stop-opacity="0.6"/>
<stop offset="0.4853" stop-color="#ECECF1" stop-opacity="0.675"/>
<stop offset="0.5903" stop-color="#DCDCE6" stop-opacity="0.7704"/>
<stop offset="0.7075" stop-color="#C2C4D5" stop-opacity="0.8768"/>
<stop offset="0.8326" stop-color="#9EA3BE" stop-opacity="0.9904"/>
<stop offset="0.8431" stop-color="#9BA1BC"/>
<stop offset="0.8632" stop-color="#8F94AE"/>
<stop offset="0.8982" stop-color="#72748D"/>
<stop offset="0.9441" stop-color="#47495E"/>
<stop offset="0.9985" stop-color="#1C1D2C"/>
<stop offset="1" stop-color="#1B1C2B"/>
</linearGradient>
<linearGradient id="paint36_linear_14_479" x1="135.209" y1="21.2173" x2="105.531" y2="60.9007" gradientUnits="userSpaceOnUse">
<stop offset="0.253" stop-color="#F2F1F5"/>
<stop offset="0.347" stop-color="#ECECF1" stop-opacity="0.9625"/>
<stop offset="0.4664" stop-color="#DCDCE6" stop-opacity="0.9148"/>
<stop offset="0.5996" stop-color="#C2C4D5" stop-opacity="0.8616"/>
<stop offset="0.7418" stop-color="#9EA3BE" stop-opacity="0.8048"/>
<stop offset="0.7538" stop-color="#9BA1BC" stop-opacity="0.8"/>
</linearGradient>
<linearGradient id="paint37_linear_14_479" x1="136.812" y1="29.5852" x2="67.0332" y2="90.1107" gradientUnits="userSpaceOnUse">
<stop stop-color="#F2F1F5"/>
<stop offset="0.0844" stop-color="#ECECF1"/>
<stop offset="0.1916" stop-color="#DCDCE6"/>
<stop offset="0.3112" stop-color="#C2C4D5"/>
<stop offset="0.4389" stop-color="#9EA3BE"/>
<stop offset="0.4497" stop-color="#9BA1BC"/>
<stop offset="0.52" stop-color="#8F94AE"/>
<stop offset="0.6429" stop-color="#72748D"/>
<stop offset="0.8038" stop-color="#47495E"/>
<stop offset="0.9948" stop-color="#1C1D2C"/>
<stop offset="1" stop-color="#1B1C2B"/>
</linearGradient>
<linearGradient id="paint38_linear_14_479" x1="136.848" y1="29.9413" x2="95.8057" y2="65.5411" gradientUnits="userSpaceOnUse">
<stop offset="0.1502" stop-color="#F2F1F5"/>
<stop offset="0.2158" stop-color="#ECECF1"/>
<stop offset="0.2992" stop-color="#DCDCE6"/>
<stop offset="0.3922" stop-color="#C2C4D5"/>
<stop offset="0.4915" stop-color="#9EA3BE"/>
<stop offset="0.4999" stop-color="#9BA1BC"/>
<stop offset="0.5638" stop-color="#8F94AE"/>
<stop offset="0.6755" stop-color="#72748D"/>
<stop offset="0.8217" stop-color="#47495E"/>
<stop offset="0.9952" stop-color="#1C1D2C"/>
<stop offset="1" stop-color="#1B1C2B"/>
</linearGradient>
<linearGradient id="paint39_linear_14_479" x1="137.903" y1="19.7538" x2="115.297" y2="31.0248" gradientUnits="userSpaceOnUse">
<stop offset="0.2729" stop-color="#9BA1BC"/>
<stop offset="0.6731" stop-color="#DBDCE8"/>
</linearGradient>
<radialGradient id="paint40_radial_14_479" cx="0" cy="0" r="1" gradientUnits="userSpaceOnUse" gradientTransform="translate(99.0742 104.885) scale(28.4734 25.6173)">
<stop stop-color="#F2F1F5"/>
<stop offset="0.0928" stop-color="#ECECF1"/>
<stop offset="0.2108" stop-color="#DCDCE6"/>
<stop offset="0.3424" stop-color="#C2C4D5"/>
<stop offset="0.483" stop-color="#9EA3BE"/>
<stop offset="0.4949" stop-color="#9BA1BC"/>
<stop offset="0.542" stop-color="#8F94AE"/>
<stop offset="0.6244" stop-color="#72748D"/>
<stop offset="0.7324" stop-color="#47495E"/>
<stop offset="0.8604" stop-color="#1C1D2C"/>
<stop offset="0.864" stop-color="#1B1C2B"/>
</radialGradient>
<radialGradient id="paint41_radial_14_479" cx="0" cy="0" r="1" gradientUnits="userSpaceOnUse" gradientTransform="translate(100.528 113.561) scale(30.8103 27.7197)">
<stop stop-color="#F2F1F5"/>
<stop offset="0.0928" stop-color="#ECECF1"/>
<stop offset="0.2108" stop-color="#DCDCE6"/>
<stop offset="0.3424" stop-color="#C2C4D5"/>
<stop offset="0.483" stop-color="#9EA3BE"/>
<stop offset="0.4949" stop-color="#9BA1BC"/>
<stop offset="0.542" stop-color="#8F94AE"/>
<stop offset="0.6244" stop-color="#72748D"/>
<stop offset="0.7324" stop-color="#47495E"/>
<stop offset="0.8604" stop-color="#1C1D2C"/>
<stop offset="0.864" stop-color="#1B1C2B"/>
</radialGradient>
<linearGradient id="paint42_linear_14_479" x1="63.6152" y1="72.6289" x2="107.206" y2="96.4771" gradientUnits="userSpaceOnUse">
<stop stop-color="#F2F1F5"/>
<stop offset="0.0777" stop-color="#ECECF1"/>
<stop offset="0.1765" stop-color="#DCDCE6"/>
<stop offset="0.2866" stop-color="#C2C4D5"/>
<stop offset="0.4042" stop-color="#9EA3BE"/>
<stop offset="0.4142" stop-color="#9BA1BC"/>
<stop offset="0.4651" stop-color="#8F94AE"/>
<stop offset="0.5543" stop-color="#72748D"/>
<stop offset="0.671" stop-color="#47495E"/>
<stop offset="0.8094" stop-color="#1C1D2C"/>
<stop offset="0.8132" stop-color="#1B1C2B"/>
</linearGradient>
<linearGradient id="paint43_linear_14_479" x1="74.203" y1="74.6861" x2="108.952" y2="100.465" gradientUnits="userSpaceOnUse">
<stop stop-color="#F2F1F5" stop-opacity="0.2"/>
<stop offset="0.1312" stop-color="#EDECF2" stop-opacity="0.5043"/>
<stop offset="0.2975" stop-color="#DDDEE9" stop-opacity="0.8904"/>
<stop offset="0.312" stop-color="#DBDCE8" stop-opacity="0.9239"/>
<stop offset="0.7059" stop-color="#DBDCE8" stop-opacity="0.92"/>
<stop offset="0.7921" stop-color="#CCCEDE" stop-opacity="0.8555"/>
<stop offset="0.9561" stop-color="#A6ABC4" stop-opacity="0.7329"/>
<stop offset="1" stop-color="#9BA1BC" stop-opacity="0.7"/>
</linearGradient>
<linearGradient id="paint44_linear_14_479" x1="74.3957" y1="92.8362" x2="95.351" y2="93.3032" gradientUnits="userSpaceOnUse">
<stop offset="0.0133" stop-color="#9BA1BC"/>
<stop offset="0.5668" stop-color="#F2F1F5"/>
<stop offset="0.5698" stop-color="#F2F1F5"/>
<stop offset="0.6505" stop-color="#ECECF1"/>
<stop offset="0.7531" stop-color="#DCDCE6"/>
<stop offset="0.8675" stop-color="#C2C4D5"/>
<stop offset="0.9897" stop-color="#9EA3BE"/>
<stop offset="1" stop-color="#9BA1BC"/>
</linearGradient>
<linearGradient id="paint45_linear_14_479" x1="90.5991" y1="86.5212" x2="90.5991" y2="101.897" gradientUnits="userSpaceOnUse">
<stop stop-color="#F2F1F5" stop-opacity="0"/>
<stop offset="0.1012" stop-color="#ECECF1" stop-opacity="0.1876"/>
<stop offset="0.2297" stop-color="#DCDCE6" stop-opacity="0.4261"/>
<stop offset="0.3731" stop-color="#C2C4D5" stop-opacity="0.692"/>
<stop offset="0.5263" stop-color="#9EA3BE" stop-opacity="0.976"/>
<stop offset="0.5392" stop-color="#9BA1BC"/>
<stop offset="0.5807" stop-color="#8F94AE"/>
<stop offset="0.6532" stop-color="#72748D"/>
<stop offset="0.7482" stop-color="#47495E"/>
<stop offset="0.8609" stop-color="#1C1D2C"/>
<stop offset="0.864" stop-color="#1B1C2B"/>
</linearGradient>
<linearGradient id="paint46_linear_14_479" x1="81.6941" y1="88.3547" x2="99.1337" y2="94.5604" gradientUnits="userSpaceOnUse">
<stop offset="0.0976" stop-color="#F2F1F5"/>
<stop offset="0.2669" stop-color="#ECECF1" stop-opacity="0.9437"/>
<stop offset="0.4821" stop-color="#DCDCE6" stop-opacity="0.8722"/>
<stop offset="0.722" stop-color="#C2C4D5" stop-opacity="0.7924"/>
<stop offset="0.9784" stop-color="#9EA3BE" stop-opacity="0.7072"/>
<stop offset="1" stop-color="#9BA1BC" stop-opacity="0.7"/>
</linearGradient>
<linearGradient id="paint47_linear_14_479" x1="90.2621" y1="86.5776" x2="90.2621" y2="97.9036" gradientUnits="userSpaceOnUse">
<stop stop-color="#9BA1BC"/>
<stop offset="0.2752" stop-color="#F2F1F5"/>
<stop offset="0.2767" stop-color="#F2F1F5"/>
<stop offset="0.3551" stop-color="#ECECF1"/>
<stop offset="0.4547" stop-color="#DCDCE6"/>
<stop offset="0.5657" stop-color="#C2C4D5"/>
<stop offset="0.6844" stop-color="#9EA3BE"/>
<stop offset="0.6944" stop-color="#9BA1BC"/>
<stop offset="1" stop-color="#9BA1BC" stop-opacity="0"/>
</linearGradient>
<linearGradient id="paint48_linear_14_479" x1="68.9539" y1="69.0637" x2="101.401" y2="95.6192" gradientUnits="userSpaceOnUse">
<stop stop-color="#9BA1BC" stop-opacity="0"/>
<stop offset="0.3253" stop-color="#F2F1F5" stop-opacity="0.5"/>
<stop offset="0.4018" stop-color="#ECECF1" stop-opacity="0.5938"/>
<stop offset="0.499" stop-color="#DCDCE6" stop-opacity="0.713"/>
<stop offset="0.6075" stop-color="#C2C4D5" stop-opacity="0.846"/>
<stop offset="0.7233" stop-color="#9EA3BE" stop-opacity="0.988"/>
<stop offset="0.7331" stop-color="#9BA1BC"/>
<stop offset="0.7672" stop-color="#8F94AE"/>
<stop offset="0.8268" stop-color="#72748D"/>
<stop offset="0.9048" stop-color="#47495E"/>
<stop offset="0.9975" stop-color="#1C1D2C"/>
<stop offset="1" stop-color="#1B1C2B"/>
</linearGradient>
<linearGradient id="paint49_linear_14_479" x1="62.7327" y1="65.6705" x2="87.662" y2="84.8481" gradientUnits="userSpaceOnUse">
<stop offset="0.0133" stop-color="#9BA1BC"/>
<stop offset="0.5668" stop-color="#F2F1F5"/>
<stop offset="0.5698" stop-color="#F2F1F5"/>
<stop offset="0.6505" stop-color="#ECECF1"/>
<stop offset="0.7531" stop-color="#DCDCE6"/>
<stop offset="0.8675" stop-color="#C2C4D5"/>
<stop offset="0.9897" stop-color="#9EA3BE"/>
<stop offset="1" stop-color="#9BA1BC"/>
</linearGradient>
<linearGradient id="paint50_linear_14_479" x1="71.4029" y1="70.6412" x2="95.1557" y2="88.9138" gradientUnits="userSpaceOnUse">
<stop offset="0.0133" stop-color="#9BA1BC" stop-opacity="0.6"/>
<stop offset="0.4024" stop-color="#F2F1F5" stop-opacity="0.4011"/>
<stop offset="0.4045" stop-color="#F2F1F5" stop-opacity="0.4"/>
<stop offset="0.4639" stop-color="#ECECF1" stop-opacity="0.475"/>
<stop offset="0.5393" stop-color="#DCDCE6" stop-opacity="0.5704"/>
<stop offset="0.6234" stop-color="#C2C4D5" stop-opacity="0.6768"/>
<stop offset="0.7133" stop-color="#9EA3BE" stop-opacity="0.7904"/>
<stop offset="0.7209" stop-color="#9BA1BC" stop-opacity="0.8"/>
<stop offset="0.7911" stop-color="#A6AAC3" stop-opacity="0.6741"/>
<stop offset="0.9135" stop-color="#C3C5D7" stop-opacity="0.4549"/>
<stop offset="1" stop-color="#DBDCE8" stop-opacity="0.3"/>
</linearGradient>
<linearGradient id="paint51_linear_14_479" x1="54.6671" y1="42.9434" x2="105.949" y2="71.9909" gradientUnits="userSpaceOnUse">
<stop stop-color="#F2F1F5"/>
<stop offset="0.0777" stop-color="#ECECF1"/>
<stop offset="0.1765" stop-color="#DCDCE6"/>
<stop offset="0.2866" stop-color="#C2C4D5"/>
<stop offset="0.4042" stop-color="#9EA3BE"/>
<stop offset="0.4142" stop-color="#9BA1BC"/>
<stop offset="0.4651" stop-color="#8F94AE"/>
<stop offset="0.5543" stop-color="#72748D"/>
<stop offset="0.671" stop-color="#47495E"/>
<stop offset="0.8094" stop-color="#1C1D2C"/>
<stop offset="0.8132" stop-color="#1B1C2B"/>
</linearGradient>
<linearGradient id="paint52_linear_14_479" x1="62.9923" y1="69.9666" x2="94.7542" y2="69.9666" gradientUnits="userSpaceOnUse">
<stop offset="0.014" stop-color="#9BA1BC"/>
<stop offset="0.3587" stop-color="#F2F1F5"/>
<stop offset="0.3606" stop-color="#F2F1F5"/>
<stop offset="0.4805" stop-color="#ECECF1" stop-opacity="0.8874"/>
<stop offset="0.633" stop-color="#DCDCE6" stop-opacity="0.7444"/>
<stop offset="0.803" stop-color="#C2C4D5" stop-opacity="0.5848"/>
<stop offset="0.9847" stop-color="#9EA3BE" stop-opacity="0.4144"/>
<stop offset="1" stop-color="#9BA1BC" stop-opacity="0.4"/>
</linearGradient>
<linearGradient id="paint53_linear_14_479" x1="69.2501" y1="37.9601" x2="104.686" y2="79.1833" gradientUnits="userSpaceOnUse">
<stop stop-color="#F2F1F5" stop-opacity="0.2"/>
<stop offset="0.1312" stop-color="#EDECF2" stop-opacity="0.5043"/>
<stop offset="0.2975" stop-color="#DDDEE9" stop-opacity="0.8904"/>
<stop offset="0.312" stop-color="#DBDCE8" stop-opacity="0.9239"/>
<stop offset="0.704" stop-color="#DBDCE8" stop-opacity="0.8"/>
<stop offset="0.7908" stop-color="#CCCEDE" stop-opacity="0.5654"/>
<stop offset="0.9558" stop-color="#A6ABC4" stop-opacity="0.1195"/>
<stop offset="1" stop-color="#9BA1BC" stop-opacity="0"/>
</linearGradient>
<linearGradient id="paint54_linear_14_479" x1="75.4516" y1="59.5222" x2="105.592" y2="83.8069" gradientUnits="userSpaceOnUse">
<stop offset="0.0995" stop-color="#9BA1BC" stop-opacity="0.6"/>
<stop offset="0.1831" stop-color="#BEC0D3" stop-opacity="0.6567"/>
<stop offset="0.2668" stop-color="#DADAE5" stop-opacity="0.7135"/>
<stop offset="0.3401" stop-color="#ECEBF1" stop-opacity="0.7632"/>
<stop offset="0.3944" stop-color="#F2F1F5" stop-opacity="0.8"/>
<stop offset="0.4841" stop-color="#A29EA9" stop-opacity="0.8468"/>
<stop offset="0.5871" stop-color="#5E5A69" stop-opacity="0.9004"/>
<stop offset="0.674" stop-color="#353544" stop-opacity="0.9457"/>
<stop offset="0.7403" stop-color="#212231" stop-opacity="0.9803"/>
<stop offset="0.7781" stop-color="#1B1C2B"/>
</linearGradient>
<linearGradient id="paint55_linear_14_479" x1="77.0793" y1="60.7218" x2="100.152" y2="78.3281" gradientUnits="userSpaceOnUse">
<stop offset="0.1567" stop-color="#F2F1F5" stop-opacity="0.2"/>
<stop offset="0.4465" stop-color="#F2F1F5" stop-opacity="0.9"/>
</linearGradient>
<linearGradient id="paint56_linear_14_479" x1="81.7274" y1="61.7822" x2="90.8821" y2="73.9251" gradientUnits="userSpaceOnUse">
<stop stop-color="#9BA1BC"/>
<stop offset="0.2752" stop-color="#F2F1F5" stop-opacity="0.6022"/>
<stop offset="0.2767" stop-color="#F2F1F5" stop-opacity="0.6"/>
<stop offset="0.3551" stop-color="#ECECF1" stop-opacity="0.675"/>
<stop offset="0.4547" stop-color="#DCDCE6" stop-opacity="0.7704"/>
<stop offset="0.5657" stop-color="#C2C4D5" stop-opacity="0.8768"/>
<stop offset="0.6844" stop-color="#9EA3BE" stop-opacity="0.9904"/>
<stop offset="0.6944" stop-color="#9BA1BC"/>
<stop offset="1" stop-color="#9BA1BC" stop-opacity="0"/>
</linearGradient>
<linearGradient id="paint57_linear_14_479" x1="98.4101" y1="71.6239" x2="64.345" y2="34.9467" gradientUnits="userSpaceOnUse">
<stop stop-color="#9BA1BC"/>
<stop offset="0.0354" stop-color="#B1B4CA" stop-opacity="0.9397"/>
<stop offset="0.1089" stop-color="#EBEAF0" stop-opacity="0.8142"/>
<stop offset="0.1172" stop-color="#F2F1F5" stop-opacity="0.8"/>
<stop offset="0.379" stop-color="#F2F1F5" stop-opacity="0.8"/>
<stop offset="0.4219" stop-color="#ECECF1" stop-opacity="0.8375"/>
<stop offset="0.4764" stop-color="#DCDCE6" stop-opacity="0.8852"/>
<stop offset="0.5371" stop-color="#C2C4D5" stop-opacity="0.9384"/>
<stop offset="0.602" stop-color="#9EA3BE" stop-opacity="0.9952"/>
<stop offset="0.6075" stop-color="#9BA1BC"/>
</linearGradient>
<linearGradient id="paint58_linear_14_479" x1="102.129" y1="72.3173" x2="62.8332" y2="37.073" gradientUnits="userSpaceOnUse">
<stop offset="0.4031" stop-color="#F2F1F5" stop-opacity="0.4"/>
<stop offset="0.4627" stop-color="#ECECF1" stop-opacity="0.475"/>
<stop offset="0.5385" stop-color="#DCDCE6" stop-opacity="0.5704"/>
<stop offset="0.623" stop-color="#C2C4D5" stop-opacity="0.6768"/>
<stop offset="0.7132" stop-color="#9EA3BE" stop-opacity="0.7904"/>
<stop offset="0.7209" stop-color="#9BA1BC" stop-opacity="0.8"/>
<stop offset="0.7896" stop-color="#A6AAC3" stop-opacity="0.8504"/>
<stop offset="0.9092" stop-color="#C3C5D7" stop-opacity="0.938"/>
<stop offset="0.9938" stop-color="#DBDCE8"/>
</linearGradient>
<linearGradient id="paint59_linear_14_479" x1="70.7133" y1="42.8664" x2="112.188" y2="78.8579" gradientUnits="userSpaceOnUse">
<stop stop-color="#F2F1F5" stop-opacity="0"/>
<stop offset="0.0944" stop-color="#ECEBF1" stop-opacity="0.1907"/>
<stop offset="0.2144" stop-color="#DCDBE5" stop-opacity="0.4332"/>
<stop offset="0.3481" stop-color="#C1C1D1" stop-opacity="0.7035"/>
<stop offset="0.4911" stop-color="#9E9FB8" stop-opacity="0.9923"/>
<stop offset="0.4949" stop-color="#9D9EB7"/>
<stop offset="0.5414" stop-color="#9191A9"/>
<stop offset="0.6228" stop-color="#747288"/>
<stop offset="0.7294" stop-color="#4A485B"/>
<stop offset="0.8558" stop-color="#1E1D2A"/>
<stop offset="0.864" stop-color="#1B1B27"/>
</linearGradient>
<linearGradient id="paint60_linear_14_479" x1="138.285" y1="72.6289" x2="94.6946" y2="96.4771" gradientUnits="userSpaceOnUse">
<stop stop-color="#F2F1F5"/>
<stop offset="0.0777" stop-color="#ECECF1"/>
<stop offset="0.1765" stop-color="#DCDCE6"/>
<stop offset="0.2866" stop-color="#C2C4D5"/>
<stop offset="0.4042" stop-color="#9EA3BE"/>
<stop offset="0.4142" stop-color="#9BA1BC"/>
<stop offset="0.4651" stop-color="#8F94AE"/>
<stop offset="0.5543" stop-color="#72748D"/>
<stop offset="0.671" stop-color="#47495E"/>
<stop offset="0.8094" stop-color="#1C1D2C"/>
<stop offset="0.8132" stop-color="#1B1C2B"/>
</linearGradient>
<linearGradient id="paint61_linear_14_479" x1="127.698" y1="74.6861" x2="92.9487" y2="100.465" gradientUnits="userSpaceOnUse">
<stop stop-color="#F2F1F5" stop-opacity="0.2"/>
<stop offset="0.1312" stop-color="#EDECF2" stop-opacity="0.5043"/>
<stop offset="0.2975" stop-color="#DDDEE9" stop-opacity="0.8904"/>
<stop offset="0.312" stop-color="#DBDCE8" stop-opacity="0.9239"/>
<stop offset="0.7059" stop-color="#DBDCE8" stop-opacity="0.92"/>
<stop offset="0.7921" stop-color="#CCCEDE" stop-opacity="0.8555"/>
<stop offset="0.9561" stop-color="#A6ABC4" stop-opacity="0.7329"/>
<stop offset="1" stop-color="#9BA1BC" stop-opacity="0.7"/>
</linearGradient>
<linearGradient id="paint62_linear_14_479" x1="127.505" y1="92.8362" x2="106.549" y2="93.3032" gradientUnits="userSpaceOnUse">
<stop offset="0.0133" stop-color="#9BA1BC"/>
<stop offset="0.5668" stop-color="#F2F1F5"/>
<stop offset="0.5698" stop-color="#F2F1F5"/>
<stop offset="0.6505" stop-color="#ECECF1"/>
<stop offset="0.7531" stop-color="#DCDCE6"/>
<stop offset="0.8675" stop-color="#C2C4D5"/>
<stop offset="0.9897" stop-color="#9EA3BE"/>
<stop offset="1" stop-color="#9BA1BC"/>
</linearGradient>
<linearGradient id="paint63_linear_14_479" x1="111.301" y1="86.5212" x2="111.301" y2="101.897" gradientUnits="userSpaceOnUse">
<stop stop-color="#F2F1F5" stop-opacity="0"/>
<stop offset="0.1012" stop-color="#ECECF1" stop-opacity="0.1876"/>
<stop offset="0.2297" stop-color="#DCDCE6" stop-opacity="0.4261"/>
<stop offset="0.3731" stop-color="#C2C4D5" stop-opacity="0.692"/>
<stop offset="0.5263" stop-color="#9EA3BE" stop-opacity="0.976"/>
<stop offset="0.5392" stop-color="#9BA1BC"/>
<stop offset="0.5806" stop-color="#8F94AE"/>
<stop offset="0.6531" stop-color="#72748D"/>
<stop offset="0.748" stop-color="#47495E"/>
<stop offset="0.8605" stop-color="#1C1D2C"/>
<stop offset="0.8636" stop-color="#1B1C2B"/>
</linearGradient>
<linearGradient id="paint64_linear_14_479" x1="120.206" y1="88.3547" x2="102.767" y2="94.5604" gradientUnits="userSpaceOnUse">
<stop offset="0.0976" stop-color="#F2F1F5"/>
<stop offset="0.2669" stop-color="#ECECF1" stop-opacity="0.9437"/>
<stop offset="0.4821" stop-color="#DCDCE6" stop-opacity="0.8722"/>
<stop offset="0.722" stop-color="#C2C4D5" stop-opacity="0.7924"/>
<stop offset="0.9784" stop-color="#9EA3BE" stop-opacity="0.7072"/>
<stop offset="1" stop-color="#9BA1BC" stop-opacity="0.7"/>
</linearGradient>
<linearGradient id="paint65_linear_14_479" x1="111.638" y1="86.5776" x2="111.638" y2="97.9036" gradientUnits="userSpaceOnUse">
<stop stop-color="#9BA1BC"/>
<stop offset="0.2752" stop-color="#F2F1F5"/>
<stop offset="0.2767" stop-color="#F2F1F5"/>
<stop offset="0.3551" stop-color="#ECECF1"/>
<stop offset="0.4547" stop-color="#DCDCE6"/>
<stop offset="0.5657" stop-color="#C2C4D5"/>
<stop offset="0.6844" stop-color="#9EA3BE"/>
<stop offset="0.6944" stop-color="#9BA1BC"/>
<stop offset="1" stop-color="#9BA1BC" stop-opacity="0"/>
</linearGradient>
<linearGradient id="paint66_linear_14_479" x1="132.947" y1="69.0637" x2="100.5" y2="95.6192" gradientUnits="userSpaceOnUse">
<stop stop-color="#9BA1BC" stop-opacity="0"/>
<stop offset="0.3253" stop-color="#F2F1F5" stop-opacity="0.5"/>
<stop offset="0.4018" stop-color="#ECECF1" stop-opacity="0.5938"/>
<stop offset="0.499" stop-color="#DCDCE6" stop-opacity="0.713"/>
<stop offset="0.6075" stop-color="#C2C4D5" stop-opacity="0.846"/>
<stop offset="0.7233" stop-color="#9EA3BE" stop-opacity="0.988"/>
<stop offset="0.7331" stop-color="#9BA1BC"/>
<stop offset="0.7672" stop-color="#8F94AE"/>
<stop offset="0.8268" stop-color="#72748D"/>
<stop offset="0.9048" stop-color="#47495E"/>
<stop offset="0.9975" stop-color="#1C1D2C"/>
<stop offset="1" stop-color="#1B1C2B"/>
</linearGradient>
<linearGradient id="paint67_linear_14_479" x1="139.168" y1="65.6705" x2="114.239" y2="84.8481" gradientUnits="userSpaceOnUse">
<stop offset="0.0133" stop-color="#9BA1BC"/>
<stop offset="0.5668" stop-color="#F2F1F5"/>
<stop offset="0.5698" stop-color="#F2F1F5"/>
<stop offset="0.6505" stop-color="#ECECF1"/>
<stop offset="0.7531" stop-color="#DCDCE6"/>
<stop offset="0.8675" stop-color="#C2C4D5"/>
<stop offset="0.9897" stop-color="#9EA3BE"/>
<stop offset="1" stop-color="#9BA1BC"/>
</linearGradient>
<linearGradient id="paint68_linear_14_479" x1="130.498" y1="70.6412" x2="106.745" y2="88.9138" gradientUnits="userSpaceOnUse">
<stop offset="0.0133" stop-color="#9BA1BC" stop-opacity="0.6"/>
<stop offset="0.4024" stop-color="#F2F1F5" stop-opacity="0.4011"/>
<stop offset="0.4045" stop-color="#F2F1F5" stop-opacity="0.4"/>
<stop offset="0.4639" stop-color="#ECECF1" stop-opacity="0.475"/>
<stop offset="0.5393" stop-color="#DCDCE6" stop-opacity="0.5704"/>
<stop offset="0.6234" stop-color="#C2C4D5" stop-opacity="0.6768"/>
<stop offset="0.7133" stop-color="#9EA3BE" stop-opacity="0.7904"/>
<stop offset="0.7209" stop-color="#9BA1BC" stop-opacity="0.8"/>
<stop offset="0.7911" stop-color="#A6AAC3" stop-opacity="0.6741"/>
<stop offset="0.9135" stop-color="#C3C5D7" stop-opacity="0.4549"/>
<stop offset="1" stop-color="#DBDCE8" stop-opacity="0.3"/>
</linearGradient>
<linearGradient id="paint69_linear_14_479" x1="147.233" y1="42.9434" x2="95.952" y2="71.9909" gradientUnits="userSpaceOnUse">
<stop stop-color="#F2F1F5"/>
<stop offset="0.0777" stop-color="#ECECF1"/>
<stop offset="0.1765" stop-color="#DCDCE6"/>
<stop offset="0.2866" stop-color="#C2C4D5"/>
<stop offset="0.4042" stop-color="#9EA3BE"/>
<stop offset="0.4142" stop-color="#9BA1BC"/>
<stop offset="0.4651" stop-color="#8F94AE"/>
<stop offset="0.5543" stop-color="#72748D"/>
<stop offset="0.671" stop-color="#47495E"/>
<stop offset="0.8094" stop-color="#1C1D2C"/>
<stop offset="0.8132" stop-color="#1B1C2B"/>
</linearGradient>
<linearGradient id="paint70_linear_14_479" x1="138.908" y1="69.9666" x2="107.146" y2="69.9666" gradientUnits="userSpaceOnUse">
<stop offset="0.014" stop-color="#9BA1BC"/>
<stop offset="0.3587" stop-color="#F2F1F5"/>
<stop offset="0.3606" stop-color="#F2F1F5"/>
<stop offset="0.4805" stop-color="#ECECF1" stop-opacity="0.8874"/>
<stop offset="0.633" stop-color="#DCDCE6" stop-opacity="0.7444"/>
<stop offset="0.803" stop-color="#C2C4D5" stop-opacity="0.5848"/>
<stop offset="0.9847" stop-color="#9EA3BE" stop-opacity="0.4144"/>
<stop offset="1" stop-color="#9BA1BC" stop-opacity="0.4"/>
</linearGradient>
<linearGradient id="paint71_linear_14_479" x1="132.651" y1="37.9601" x2="97.2152" y2="79.1833" gradientUnits="userSpaceOnUse">
<stop stop-color="#F2F1F5" stop-opacity="0.2"/>
<stop offset="0.1312" stop-color="#EDECF2" stop-opacity="0.5043"/>
<stop offset="0.2975" stop-color="#DDDEE9" stop-opacity="0.8904"/>
<stop offset="0.312" stop-color="#DBDCE8" stop-opacity="0.9239"/>
<stop offset="0.704" stop-color="#DBDCE8" stop-opacity="0.8"/>
<stop offset="0.7908" stop-color="#CCCEDE" stop-opacity="0.5654"/>
<stop offset="0.9558" stop-color="#A6ABC4" stop-opacity="0.1195"/>
<stop offset="1" stop-color="#9BA1BC" stop-opacity="0"/>
</linearGradient>
<linearGradient id="paint72_linear_14_479" x1="126.449" y1="59.5222" x2="96.3082" y2="83.8069" gradientUnits="userSpaceOnUse">
<stop offset="0.0995" stop-color="#9BA1BC" stop-opacity="0.6"/>
<stop offset="0.1831" stop-color="#BEC0D3" stop-opacity="0.6567"/>
<stop offset="0.2668" stop-color="#DADAE5" stop-opacity="0.7135"/>
<stop offset="0.3401" stop-color="#ECEBF1" stop-opacity="0.7632"/>
<stop offset="0.3944" stop-color="#F2F1F5" stop-opacity="0.8"/>
<stop offset="0.4841" stop-color="#A29EA9" stop-opacity="0.8468"/>
<stop offset="0.5871" stop-color="#5E5A69" stop-opacity="0.9004"/>
<stop offset="0.674" stop-color="#353544" stop-opacity="0.9457"/>
<stop offset="0.7403" stop-color="#212231" stop-opacity="0.9803"/>
<stop offset="0.7781" stop-color="#1B1C2B"/>
</linearGradient>
<linearGradient id="paint73_linear_14_479" x1="124.821" y1="60.7218" x2="101.749" y2="78.3281" gradientUnits="userSpaceOnUse">
<stop offset="0.1567" stop-color="#F2F1F5" stop-opacity="0.2"/>
<stop offset="0.4465" stop-color="#F2F1F5" stop-opacity="0.9"/>
</linearGradient>
<linearGradient id="paint74_linear_14_479" x1="120.173" y1="61.7822" x2="111.019" y2="73.9251" gradientUnits="userSpaceOnUse">
<stop stop-color="#9BA1BC"/>
<stop offset="0.2752" stop-color="#F2F1F5" stop-opacity="0.6022"/>
<stop offset="0.2767" stop-color="#F2F1F5" stop-opacity="0.6"/>
<stop offset="0.3551" stop-color="#ECECF1" stop-opacity="0.675"/>
<stop offset="0.4547" stop-color="#DCDCE6" stop-opacity="0.7704"/>
<stop offset="0.5657" stop-color="#C2C4D5" stop-opacity="0.8768"/>
<stop offset="0.6844" stop-color="#9EA3BE" stop-opacity="0.9904"/>
<stop offset="0.6944" stop-color="#9BA1BC"/>
<stop offset="1" stop-color="#9BA1BC" stop-opacity="0"/>
</linearGradient>
<linearGradient id="paint75_linear_14_479" x1="103.491" y1="71.6239" x2="137.556" y2="34.9467" gradientUnits="userSpaceOnUse">
<stop stop-color="#9BA1BC"/>
<stop offset="0.0354" stop-color="#B1B4CA" stop-opacity="0.9397"/>
<stop offset="0.1089" stop-color="#EBEAF0" stop-opacity="0.8142"/>
<stop offset="0.1172" stop-color="#F2F1F5" stop-opacity="0.8"/>
<stop offset="0.379" stop-color="#F2F1F5" stop-opacity="0.8"/>
<stop offset="0.4219" stop-color="#ECECF1" stop-opacity="0.8375"/>
<stop offset="0.4764" stop-color="#DCDCE6" stop-opacity="0.8852"/>
<stop offset="0.5371" stop-color="#C2C4D5" stop-opacity="0.9384"/>
<stop offset="0.602" stop-color="#9EA3BE" stop-opacity="0.9952"/>
<stop offset="0.6075" stop-color="#9BA1BC"/>
</linearGradient>
<linearGradient id="paint76_linear_14_479" x1="99.7719" y1="72.3173" x2="139.067" y2="37.073" gradientUnits="userSpaceOnUse">
<stop offset="0.4031" stop-color="#F2F1F5" stop-opacity="0.4"/>
<stop offset="0.4627" stop-color="#ECECF1" stop-opacity="0.475"/>
<stop offset="0.5385" stop-color="#DCDCE6" stop-opacity="0.5704"/>
<stop offset="0.623" stop-color="#C2C4D5" stop-opacity="0.6768"/>
<stop offset="0.7132" stop-color="#9EA3BE" stop-opacity="0.7904"/>
<stop offset="0.7209" stop-color="#9BA1BC" stop-opacity="0.8"/>
<stop offset="0.7896" stop-color="#A6AAC3" stop-opacity="0.8504"/>
<stop offset="0.9092" stop-color="#C3C5D7" stop-opacity="0.938"/>
<stop offset="0.9938" stop-color="#DBDCE8"/>
</linearGradient>
<linearGradient id="paint77_linear_14_479" x1="131.187" y1="42.8664" x2="89.7121" y2="78.8579" gradientUnits="userSpaceOnUse">
<stop stop-color="#F2F1F5" stop-opacity="0"/>
<stop offset="0.0944" stop-color="#ECEBF1" stop-opacity="0.1907"/>
<stop offset="0.2144" stop-color="#DCDBE5" stop-opacity="0.4332"/>
<stop offset="0.3481" stop-color="#C1C1D1" stop-opacity="0.7035"/>
<stop offset="0.4911" stop-color="#9E9FB8" stop-opacity="0.9923"/>
<stop offset="0.4949" stop-color="#9D9EB7"/>
<stop offset="0.5414" stop-color="#9191A9"/>
<stop offset="0.6228" stop-color="#747288"/>
<stop offset="0.7294" stop-color="#4A485B"/>
<stop offset="0.8558" stop-color="#1E1D2A"/>
<stop offset="0.864" stop-color="#1B1B27"/>
</linearGradient>
</defs>
</svg>
