<svg width="183" height="76" viewBox="0 0 183 76" fill="none" xmlns="http://www.w3.org/2000/svg">
<path d="M122.444 65.7683L119.446 68.51C118.821 69.0712 118.115 69.0712 117.506 68.51L114.508 65.7683L117.506 63.0267C118.131 62.4655 118.837 62.4655 119.446 63.0267L122.444 65.7683Z" fill="white"/>
<path d="M66.2798 48.4204C66.2798 47.4745 66.4241 46.5926 66.7287 45.7749C67.0333 44.9572 67.4502 44.2518 68.0114 43.6425C68.5725 43.0493 69.2299 42.5683 69.9995 42.2316C70.7691 41.8788 71.6349 41.7185 72.5969 41.7185C73.5589 41.7185 74.4247 41.8949 75.1943 42.2316C75.9639 42.5843 76.6213 43.0493 77.1824 43.6425C77.7275 44.2357 78.1604 44.9572 78.4651 45.7749C78.7697 46.5926 78.914 47.4745 78.914 48.4204C78.914 49.2061 78.8018 49.9596 78.5933 50.6651C78.3849 51.3705 78.0963 51.9958 77.7115 52.557C77.3267 53.1182 76.8617 53.5992 76.3006 54C75.7394 54.4008 75.1141 54.6894 74.4247 54.8818C74.585 55.3468 74.8416 55.7797 75.1622 56.1805C75.4829 56.5814 75.8517 56.9341 76.2685 57.2387C76.6854 57.5434 77.1183 57.7678 77.5672 57.9442C78.0161 58.1045 78.433 58.2007 78.8338 58.2007V58.6978C78.1123 58.6978 77.3748 58.6336 76.6533 58.4893C75.9318 58.3611 75.2103 58.1366 74.5049 57.832C73.7994 57.5273 73.126 57.1265 72.4686 56.6455C71.8113 56.1645 71.202 55.5552 70.6088 54.8498C69.9514 54.6413 69.3421 54.3367 68.813 53.9359C68.2839 53.535 67.819 53.054 67.4502 52.4929C67.0814 51.9317 66.7929 51.3064 66.5844 50.617C66.376 49.9115 66.2798 49.19 66.2798 48.4204ZM76.2685 48.4204C76.2685 46.5606 75.9479 45.1176 75.3065 44.0914C74.6652 43.0813 73.7673 42.5683 72.5969 42.5683C71.4265 42.5683 70.5286 43.0813 69.9033 44.0914C69.278 45.1015 68.9573 46.5445 68.9573 48.4204C68.9573 50.2803 69.278 51.7233 69.9033 52.7494C70.5286 53.7595 71.4265 54.2726 72.5969 54.2726C73.7673 54.2726 74.6652 53.7595 75.3065 52.7494C75.9479 51.7233 76.2685 50.2803 76.2685 48.4204Z" fill="white"/>
<path d="M101.489 42.0871V42.9529H97.4805V54.7534H94.9793V42.9529H93.6325C92.9591 42.9529 92.414 43.1293 92.0292 43.466C91.6123 43.8027 91.4199 44.3959 91.4199 45.2457H90.8748V43.6103C90.8748 43.4179 90.8748 43.2255 90.9068 43.0491C90.9549 42.8567 91.0351 42.6964 91.1634 42.5521C91.2916 42.4078 91.452 42.3116 91.6604 42.2154C91.8688 42.1192 92.1414 42.0871 92.4781 42.0871H101.489Z" fill="white"/>
<path d="M117.746 48.9494H116.977V54.7374H114.46V44.5723C114.46 43.9951 114.379 43.5301 114.219 43.1774C114.059 42.8246 113.69 42.6483 113.113 42.6483H112.92V42.0711H118.211C118.516 42.0711 118.853 42.0871 119.221 42.1031C119.59 42.1352 119.975 42.1833 120.36 42.2795C120.745 42.3757 121.113 42.4879 121.482 42.6483C121.851 42.8086 122.172 43.017 122.444 43.2736C122.733 43.5301 122.957 43.8508 123.118 44.2356C123.326 44.6364 123.406 45.0853 123.406 45.6144C123.406 46.1115 123.31 46.5444 123.134 46.9131C122.941 47.2819 122.701 47.5865 122.412 47.827C122.107 48.0675 121.771 48.276 121.402 48.4363C121.033 48.5806 120.664 48.7089 120.312 48.8051L122.332 52.156C122.572 52.5568 122.813 52.8935 123.037 53.1661C123.262 53.4226 123.47 53.6311 123.679 53.7914C123.887 53.9517 124.08 54.064 124.24 54.1281C124.416 54.1922 124.577 54.2403 124.705 54.2724V54.7534C124.609 54.8015 124.416 54.8496 124.16 54.8817C123.903 54.9137 123.647 54.9458 123.406 54.9458C123.069 54.9458 122.749 54.8977 122.444 54.8175C122.124 54.7213 121.819 54.577 121.53 54.3526C121.226 54.1281 120.921 53.8395 120.632 53.4868C120.328 53.134 120.023 52.6851 119.702 52.156L117.746 48.9494ZM118.227 42.8567C118.067 42.8567 117.923 42.8567 117.762 42.8727C117.602 42.8888 117.474 42.9048 117.362 42.9369C117.217 42.9689 117.089 42.985 116.977 43.001V48.1958H118.131C118.436 48.1958 118.74 48.1477 119.045 48.0675C119.35 47.9713 119.622 47.827 119.879 47.6186C120.135 47.4102 120.328 47.1376 120.488 46.8009C120.648 46.4482 120.713 46.0313 120.713 45.5343C120.713 45.0372 120.632 44.6204 120.488 44.2837C120.328 43.947 120.135 43.6744 119.895 43.466C119.654 43.2575 119.382 43.0972 119.093 43.017C118.805 42.9048 118.516 42.8567 118.227 42.8567Z" fill="white"/>
<path d="M130.044 54.7534V53.5028C130.317 53.2303 130.653 52.9096 131.054 52.5408C131.455 52.1721 131.872 51.7712 132.305 51.3223C132.738 50.8734 133.186 50.4244 133.619 49.9274C134.068 49.4464 134.453 48.9494 134.806 48.4363C135.159 47.9232 135.431 47.4102 135.656 46.8971C135.88 46.384 135.976 45.887 135.976 45.406C135.976 44.909 135.912 44.4761 135.8 44.1234C135.672 43.7706 135.527 43.466 135.335 43.2415C135.143 43.0171 134.918 42.8407 134.662 42.7285C134.405 42.6162 134.148 42.5681 133.876 42.5681C133.074 42.5681 132.385 42.8407 131.84 43.3698C131.295 43.9149 130.926 44.7647 130.733 45.9191H130.124C130.124 45.4381 130.092 44.9411 130.124 44.428C130.156 43.9149 130.3 43.5301 130.525 43.2255C130.878 42.8086 131.375 42.4399 132.048 42.1352C132.722 41.8306 133.459 41.6863 134.261 41.6863C134.694 41.6863 135.175 41.7344 135.688 41.8146C136.201 41.9108 136.682 42.0871 137.131 42.3597C137.58 42.6323 137.932 43.001 138.237 43.4981C138.526 43.9791 138.686 44.6204 138.686 45.39C138.686 45.9832 138.542 46.5925 138.253 47.1857C137.964 47.7789 137.596 48.3561 137.147 48.9173C136.698 49.4785 136.201 50.0076 135.656 50.5206C135.11 51.0337 134.581 51.4987 134.068 51.9316C133.555 52.3645 133.09 52.7332 132.673 53.0699C132.257 53.4066 131.936 53.6632 131.727 53.8716H135.704C136.473 53.8716 137.067 53.6952 137.483 53.3265C137.9 52.9577 138.109 52.4446 138.109 51.7712H138.686V53.2142C138.686 53.4066 138.67 53.599 138.622 53.7754C138.574 53.9678 138.493 54.1281 138.365 54.2724C138.237 54.4167 138.077 54.529 137.868 54.6252C137.66 54.7214 137.387 54.7534 137.05 54.7534H130.044Z" fill="white"/>
<path d="M145.404 41.7026C146.318 41.7026 147.103 41.863 147.729 42.1997C148.354 42.5203 148.867 42.9853 149.268 43.5785C149.653 44.1717 149.941 44.8772 150.118 45.6949C150.294 46.5126 150.39 47.4265 150.39 48.4366C150.39 49.4307 150.294 50.3446 150.118 51.1623C149.941 51.98 149.653 52.6854 149.268 53.2786C148.883 53.8719 148.37 54.3208 147.729 54.6575C147.087 54.9942 146.318 55.1545 145.404 55.1545C144.49 55.1545 143.704 54.9942 143.079 54.6575C142.454 54.3368 141.941 53.8719 141.54 53.2786C141.155 52.6854 140.866 51.98 140.69 51.1623C140.514 50.3446 140.417 49.4307 140.417 48.4366C140.417 47.4425 140.514 46.5286 140.69 45.6949C140.866 44.8772 141.155 44.1717 141.54 43.5785C141.925 42.9853 142.438 42.5364 143.079 42.1997C143.704 41.863 144.49 41.7026 145.404 41.7026ZM145.404 42.5684C144.602 42.5684 144.009 43.0334 143.656 43.9793C143.287 44.9253 143.111 46.4004 143.111 48.4206C143.111 50.4408 143.287 51.9158 143.656 52.8618C144.025 53.8077 144.602 54.2727 145.404 54.2727C146.205 54.2727 146.799 53.8077 147.151 52.8618C147.52 51.9158 147.697 50.4408 147.697 48.4206C147.697 46.4004 147.52 44.9253 147.151 43.9793C146.799 43.0334 146.205 42.5684 145.404 42.5684Z" fill="white"/>
<path d="M165.558 42.9531C164.788 42.9531 164.195 43.1294 163.778 43.4982C163.361 43.867 163.153 44.38 163.153 45.0534H162.575V43.6104C162.575 43.418 162.592 43.2256 162.64 43.0493C162.688 42.8569 162.768 42.6965 162.896 42.5522C163.024 42.4079 163.185 42.2957 163.393 42.1995C163.602 42.1033 163.874 42.0712 164.211 42.0712H170.688V42.937L165.91 47.4263C166.087 47.3943 166.247 47.3782 166.359 47.3782C166.488 47.3782 166.616 47.3622 166.76 47.3622C166.904 47.3622 167.033 47.3462 167.145 47.3462C167.578 47.3462 168.043 47.4103 168.54 47.5546C169.037 47.6829 169.486 47.9073 169.919 48.212C170.336 48.5166 170.688 48.9174 170.961 49.3984C171.233 49.8955 171.378 50.4887 171.378 51.1942C171.378 51.9958 171.217 52.6532 170.881 53.1663C170.544 53.6793 170.143 54.0802 169.678 54.3687C169.213 54.6573 168.716 54.8497 168.187 54.962C167.674 55.0742 167.225 55.1223 166.872 55.1223C166.263 55.1223 165.718 55.0742 165.237 54.978C164.756 54.8818 164.323 54.7375 163.954 54.5611C163.57 54.3687 163.233 54.1603 162.944 53.9038C162.64 53.6473 162.367 53.3747 162.094 53.054L162.624 52.4929C163.153 53.0861 163.73 53.535 164.323 53.8236C164.916 54.1122 165.494 54.2565 166.039 54.2565C166.407 54.2565 166.76 54.1924 167.081 54.0802C167.401 53.9679 167.69 53.7755 167.931 53.535C168.171 53.2785 168.363 52.9739 168.492 52.573C168.636 52.1882 168.7 51.7233 168.7 51.1781C168.7 50.6651 168.636 50.2161 168.508 49.8474C168.38 49.4626 168.203 49.1579 167.979 48.9174C167.754 48.6769 167.498 48.5006 167.193 48.3883C166.888 48.2761 166.584 48.212 166.247 48.212C165.959 48.212 165.686 48.228 165.445 48.2761C165.205 48.3082 164.997 48.3563 164.82 48.4044C164.596 48.4525 164.403 48.5166 164.243 48.5807L163.762 47.8592L169.005 42.9531H165.558Z" fill="white"/>
<path d="M112.055 53.6792C111.718 53.3425 111.445 52.8935 111.205 52.3324L109.874 49.1418C110.403 48.9814 110.916 48.8692 111.445 48.789C110.868 48.757 110.291 48.773 109.746 48.8211L106.908 42.0871H106.058L100.398 54.7534H101.36C103.156 52.7492 105.305 51.1299 107.549 50.0557L108.511 52.3484C108.736 52.8935 109.008 53.3425 109.313 53.6631C109.618 53.9838 109.938 54.2403 110.275 54.4167C110.612 54.5931 110.964 54.7053 111.317 54.7694C111.67 54.8336 111.99 54.8496 112.311 54.8496C112.455 54.8496 112.616 54.8336 112.808 54.8175C113.001 54.8015 113.129 54.7694 113.241 54.7534V54.2724C112.776 54.1922 112.391 53.9998 112.055 53.6792ZM103.092 50.9054L105.577 45.39L107.197 49.2059C105.449 49.6388 103.99 50.2962 103.092 50.9054Z" fill="white"/>
<path d="M101.362 54.7358V54.7534H101.344L101.362 54.7358Z" fill="white"/>
<path d="M91.051 53.6793C90.7303 53.3426 90.4417 52.8937 90.2172 52.3325L88.8704 49.1419C89.3995 48.9816 89.9126 48.8694 90.4417 48.7892C89.8645 48.7571 89.2873 48.7732 88.7422 48.8213L85.9203 42.0873H85.0545L79.3948 54.7375H80.3568C82.1525 52.7334 84.301 51.114 86.5456 50.0398L87.5076 52.3325C87.7321 52.8777 88.0046 53.3266 88.3093 53.6473C88.6139 53.9679 88.9346 54.2245 89.2713 54.4008C89.608 54.5772 89.9607 54.6894 90.3134 54.7536C90.6662 54.8177 90.9868 54.8337 91.3075 54.8337C91.4518 54.8337 91.6121 54.8177 91.8045 54.8017C91.9969 54.7856 92.1252 54.7536 92.2374 54.7375V54.2565C91.7725 54.1924 91.3877 54 91.051 53.6793ZM82.0884 50.9056L84.5735 45.3901L86.1929 49.2061C84.4453 49.639 82.9862 50.2963 82.0884 50.9056Z" fill="white"/>
<path d="M151.961 54.7534V53.5028C152.234 53.2303 152.571 52.9096 152.972 52.5408C153.372 52.1721 153.789 51.7712 154.222 51.3223C154.655 50.8734 155.088 50.4244 155.537 49.9274C155.986 49.4464 156.371 48.9494 156.723 48.4363C157.076 47.9232 157.349 47.4102 157.573 46.8971C157.798 46.384 157.894 45.887 157.894 45.406C157.894 44.909 157.83 44.4761 157.717 44.1234C157.589 43.7706 157.445 43.466 157.252 43.2415C157.06 43.0171 156.836 42.8407 156.579 42.7285C156.322 42.6162 156.066 42.5681 155.793 42.5681C154.992 42.5681 154.302 42.8407 153.757 43.3698C153.212 43.9149 152.843 44.7647 152.651 45.9191H152.042C152.042 45.4381 152.01 44.9411 152.042 44.428C152.074 43.9149 152.218 43.5301 152.442 43.2255C152.795 42.8086 153.292 42.4399 153.966 42.1352C154.639 41.8306 155.377 41.6863 156.178 41.6863C156.611 41.6863 157.092 41.7344 157.605 41.8146C158.118 41.9108 158.599 42.0871 159.048 42.3597C159.497 42.6323 159.85 43.001 160.154 43.4981C160.443 43.9791 160.603 44.6204 160.603 45.39C160.603 45.9832 160.459 46.5925 160.17 47.1857C159.882 47.7789 159.513 48.3561 159.064 48.9173C158.615 49.4785 158.118 50.0076 157.573 50.5206C157.028 51.0337 156.499 51.4987 155.986 51.9316C155.473 52.3645 155.008 52.7332 154.591 53.0699C154.174 53.4066 153.853 53.6632 153.645 53.8716H157.621C158.391 53.8716 158.984 53.6952 159.401 53.3265C159.818 52.9577 160.026 52.4446 160.026 51.7712H160.603V53.2142C160.603 53.4066 160.587 53.599 160.539 53.7754C160.491 53.9678 160.411 54.1281 160.283 54.2724C160.154 54.4167 159.994 54.529 159.786 54.6252C159.577 54.7214 159.305 54.7534 158.968 54.7534H151.961Z" fill="white"/>
<path d="M175.611 44.7166H175.162V42.0872H175.563L176.428 43.2576L177.246 42.1513H177.695V44.7327H177.182V42.953L176.476 43.915H176.38L175.627 42.953V44.7166H175.611ZM173.895 42.6002V44.7327H173.382V42.6002H172.677V42.0872H174.649V42.6002H173.895Z" fill="#21254C"/>
<path d="M94.6426 22.1899H89.2715L89.8326 24.162V36.3153L89.2715 38.2874H94.6426L94.0815 36.3153V24.162L94.6426 22.1899Z" fill="white"/>
<path d="M129.226 38.2874V22.1899H124.961V31.8099L118.789 22.1899H114.588L114.636 38.2874H118.837V28.7155L125.074 38.2874H129.226Z" fill="white"/>
<path d="M100.912 22.1899L101.473 24.162L95.6045 38.2874H99.9655L100.783 36.3634L100.302 35.0005H107.485L108.8 38.2874H113.161L106.491 22.1899H100.912ZM102.338 31.858L104.407 26.4388L106.427 31.858H102.338Z" fill="white"/>
<path d="M80.3569 27.8497C79.908 27.5932 79.6995 27.2404 79.6995 26.8396C79.6995 26.3907 79.8438 26.086 80.3088 25.8295C80.7577 25.6211 81.367 25.5249 82.0885 25.5249L85.9365 25.4768L87.155 22.1899H81.3349C80.1645 22.1899 79.1063 22.3342 78.1924 22.7511C77.2304 23.1519 76.5249 23.665 76.0119 24.3705C75.4988 25.0759 75.2583 25.8455 75.2583 26.7434C75.2583 27.8016 75.5629 28.7155 76.2684 29.421C76.9739 30.2386 78.0962 30.6876 79.0582 31.0884C80.2607 31.6496 81.7197 32.1145 82.842 32.9162C83.0986 33.0605 83.3551 33.3651 83.3551 33.7339C83.3551 34.0866 83.2589 34.3432 83.0024 34.4875C82.2488 35.0967 81.1746 35.0005 80.2607 35.0005H75.3064L69.9834 22.1899H64.4198L64.981 24.162L59.1128 38.2874H63.4738L64.2915 36.3153L63.8426 35.0005H71.0255L72.3883 38.2874H81.3991C83.5315 38.2874 85.1508 37.8865 86.2571 37.1169C87.3634 36.2511 88.0368 34.7921 87.7322 33.3651C87.0428 30.0302 83.0344 29.4691 80.3569 27.8497ZM65.8307 31.858L67.899 26.4388L69.9192 31.858H65.8307Z" fill="white"/>
<path d="M159.401 38.592C161.373 38.592 163.65 38.0309 164.916 36.7161C166.135 35.4495 166.744 33.734 166.744 31.5534V22.19H162.64V31.6015C162.64 32.6597 162.335 33.4774 161.774 34.0386C161.213 34.5998 160.411 34.9044 159.401 34.9044C158.343 34.9044 157.573 34.5998 156.964 34.0386C156.403 33.4774 156.098 32.6758 156.098 31.6015V22.19H151.994V31.5534C151.994 33.734 152.603 35.4495 153.87 36.7161C155.104 38.0309 157.381 38.592 159.401 38.592Z" fill="white"/>
<path d="M181.479 30.7838C182.04 29.9661 182.232 28.9079 182.232 27.7535C182.232 25.9738 181.719 24.611 180.613 23.649C179.555 22.687 178.08 22.1739 176.156 22.1739H168.861V38.2874H173.109V34.5837L172.66 33.2689H176.252C177.214 33.2689 178.32 33.1246 179.234 32.7078C180.356 32.1626 181.126 31.2968 181.479 30.7838ZM176.973 29.3729C176.525 29.6775 175.915 29.8218 175.049 29.8218H172.725V25.6211H175.049C175.915 25.6211 176.525 25.7654 176.973 26.07C177.422 26.3746 177.631 26.9358 177.631 27.7375C177.631 28.5071 177.422 29.0682 176.973 29.3729Z" fill="white"/>
<path d="M139.408 37.5819C138.045 36.9246 136.97 35.9626 136.217 34.696C135.511 33.4293 135.111 31.9543 135.111 30.2868C135.111 28.5712 135.511 27.0962 136.217 25.8296C136.97 24.5629 138.045 23.6009 139.408 22.9436C140.77 22.2381 142.39 21.9335 144.169 21.9335C145.388 21.9335 146.446 22.0297 147.36 22.2381C148.322 22.4946 149.188 22.8474 149.989 23.3444V27.1924C149.284 26.6312 148.466 26.2304 147.617 26.022C146.703 25.7654 145.693 25.6211 144.586 25.6211C142.967 25.6211 141.7 26.022 140.786 26.8877C139.921 27.7054 139.472 28.8117 139.472 30.2868C139.472 31.6977 139.921 32.8682 140.786 33.6859C141.7 34.5036 142.967 34.9044 144.586 34.9044C145.757 34.9044 146.767 34.8082 147.681 34.5517C148.563 34.231 149.38 33.8302 150.182 33.269V37.117C148.659 38.079 146.639 38.592 144.201 38.592C142.39 38.592 140.77 38.2393 139.408 37.5819Z" fill="white"/>
<path d="M123.454 8.93038V6.47729H115.245V17.925H118.195V14.2855L117.875 13.3556H122.06V11.0147H118.195V8.93038H123.454Z" fill="white"/>
<path d="M127.03 17.3962C126.052 16.9312 125.298 16.2418 124.769 15.3439C124.224 14.4781 123.983 13.4039 123.983 12.2174C123.983 11.031 124.24 9.95674 124.769 9.09094C125.314 8.19307 126.068 7.50364 127.03 7.00661C128.008 6.54165 129.114 6.28511 130.413 6.28511C131.279 6.28511 132.032 6.34925 132.673 6.54165C133.363 6.68595 133.972 6.94248 134.517 7.29521V10.0369C134.052 9.63607 133.475 9.39557 132.866 9.20317C132.225 9.02681 131.503 8.94664 130.701 8.94664C129.515 8.94664 128.617 9.23524 128.008 9.81244C127.366 10.3896 127.078 11.1753 127.078 12.2174C127.078 13.2596 127.366 14.0613 128.008 14.6224C128.649 15.1996 129.563 15.5203 130.701 15.5203C131.487 15.5203 132.257 15.4081 132.866 15.2317C133.507 15.0553 134.132 14.7667 134.662 14.3338V17.0755C133.619 17.7649 132.176 18.1177 130.413 18.1177C129.114 18.1016 127.992 17.8932 127.03 17.3962Z" fill="white"/>
<path d="M114.283 17.9249L109.489 6.47712H105.561L105.962 7.88805L101.777 17.9409H104.872L105.449 16.53L105.128 15.552H110.243L111.173 17.9249H114.283ZM106.571 13.3233L108.014 9.50741L109.489 13.3233H106.571Z" fill="white"/>
<path d="M1.23517 9.62005C0.994671 9.86055 0.690038 10.1652 0.513672 10.3416C0.641938 10.2133 0.75417 10.085 0.882437 9.95675C0.94657 9.89262 0.99467 9.84452 1.0588 9.78039C1.07484 9.76435 1.09087 9.74832 1.1069 9.73229C1.155 9.70022 1.2031 9.65212 1.23517 9.62005Z" fill="url(#paint0_linear_14_616)"/>
<path d="M30.0147 21.0518C29.9024 20.5868 29.5657 19.9455 28.5717 19.24C28.5717 19.24 26.6477 17.7489 23.0562 16.5785C19.4648 17.7649 17.5408 19.24 17.5408 19.24C16.5467 19.9294 16.194 20.5868 16.0978 21.0518C15.5366 19.1759 13.6768 18.3261 12.2498 17.8451C10.7266 17.3481 7.63222 16.4502 6.41369 15.873C1.9404 13.7887 0.673773 10.9348 0.369141 10.4698C0.369141 10.4698 0.401209 10.4377 0.433275 10.4057C0.449308 10.3896 0.449303 10.3896 0.465336 10.3736C0.48137 10.3576 0.497407 10.3415 0.51344 10.3255C0.641707 10.1972 0.753939 10.069 0.882205 9.94069C0.946338 9.87656 0.994439 9.82846 1.05857 9.76433C1.07461 9.74829 1.09064 9.73226 1.10667 9.71623C1.13874 9.68416 1.18684 9.63606 1.2189 9.604C1.23494 9.58796 1.25097 9.57193 1.28304 9.5559C1.29907 9.53986 1.31511 9.52383 1.34717 9.5078C1.37924 9.47573 1.39527 9.4597 1.42734 9.44366C1.6037 9.28333 1.7961 9.123 1.97247 8.96266C2.98257 8.12893 4.07283 7.3914 5.17912 6.70197C6.95882 5.59567 8.85074 4.66574 10.8068 3.92822C12.7629 3.19068 14.7831 2.62952 16.8514 2.26075C18.9036 1.90802 20.9879 1.71562 23.0723 1.73165C25.1566 1.73165 27.2409 1.90802 29.2932 2.26075C31.3454 2.62952 33.3656 3.19068 35.3377 3.92822C37.2938 4.66574 39.1857 5.59567 40.9654 6.70197C42.0717 7.3914 43.162 8.12893 44.1721 8.96266C44.3645 9.123 44.5408 9.28333 44.7172 9.44366C44.7332 9.4597 44.7653 9.49176 44.7974 9.5078C44.8134 9.52383 44.8294 9.52383 44.8294 9.53986C44.8294 9.53986 44.8294 9.53986 44.8455 9.5559C44.8615 9.57193 44.8775 9.58796 44.9096 9.604L44.9256 9.62003C44.9737 9.66813 45.0218 9.70019 45.0539 9.74829C45.1341 9.81243 45.1982 9.8926 45.2623 9.95673C45.2944 9.98879 45.3265 10.0209 45.3585 10.0529C45.3906 10.085 45.4227 10.1171 45.4547 10.1491L45.4708 10.1652C45.5189 10.2133 45.567 10.2774 45.6311 10.3255L45.6471 10.3415C45.6632 10.3576 45.6632 10.3576 45.6792 10.3736C45.7273 10.4217 45.7433 10.4377 45.7433 10.4377C45.4387 10.9027 44.1721 13.7406 39.6988 15.8409C38.4802 16.4021 35.3858 17.316 33.8627 17.813C32.4357 18.3101 30.5758 19.1598 30.0147 21.0518Z" fill="url(#paint1_radial_14_616)"/>
<path d="M45.6472 10.3733C45.4869 10.213 45.1822 9.89229 44.9097 9.63576C44.9578 9.68386 45.0059 9.71592 45.0379 9.76402C45.1181 9.82816 45.1822 9.90833 45.2464 9.97246C45.2784 10.0045 45.3105 10.0366 45.3426 10.0687C45.3746 10.1007 45.4067 10.1328 45.4388 10.1649L45.4548 10.1809C45.5029 10.229 45.551 10.2931 45.6151 10.3412C45.6312 10.3573 45.6472 10.3733 45.6472 10.3733Z" fill="url(#paint2_linear_14_616)"/>
<path d="M18.102 33.5737C18.0379 33.5096 18.0379 33.5096 18.102 33.5737C17.9898 32.756 16.7071 24.0019 16.2101 21.4045C15.7933 19.2881 13.7891 18.3581 12.2659 17.8611C10.7428 17.3641 7.64835 16.4662 6.42982 15.889C1.95653 13.8047 0.689903 10.9508 0.385271 10.4858C0.257005 10.4698 0.0485737 10.4377 0.0485737 10.4377C0.0485737 10.4377 -0.0796918 11.4478 0.080641 12.3457C0.240974 13.2435 0.51354 13.8047 0.51354 13.8047L3.38349 19.5606C3.38349 19.5606 4.37756 22.0618 4.66616 22.9116C4.95476 23.7774 4.98682 24.1301 4.98682 24.1301C5.11509 24.4027 5.25939 24.6592 5.38765 24.9158C5.90072 25.8457 7.08718 26.8879 7.08718 26.8879C9.26771 28.7317 12.4263 29.838 15.2161 31.4734L18.102 33.5737Z" fill="url(#paint3_linear_14_616)"/>
<path d="M30.8965 31.4734C33.6863 29.8219 36.8448 28.7156 39.0254 26.8879C39.0254 26.8879 40.2279 25.8457 40.7249 24.9158C40.8692 24.6592 41.0135 24.4027 41.1257 24.1301C41.1257 24.1301 41.1738 23.7774 41.4464 22.9116C41.735 22.0458 42.7291 19.5606 42.7291 19.5606L45.599 13.8047C45.599 13.8047 45.8716 13.2435 46.0319 12.3457C46.1922 11.4478 46.064 10.4377 46.064 10.4377C46.064 10.4377 45.8555 10.4698 45.7273 10.4858C45.4226 10.9508 44.156 13.7887 39.6827 15.889C38.4642 16.4502 35.3698 17.3641 33.8466 17.8611C32.3234 18.3581 30.3193 19.2881 29.9024 21.4045C29.3894 24.0179 28.1227 32.756 28.0105 33.5737C28.0746 33.5256 28.0746 33.5256 28.0105 33.5737L30.8965 31.4734Z" fill="url(#paint4_linear_14_616)"/>
<path d="M29.1812 20.0736C29.8385 20.6508 30.1111 21.1959 29.9989 21.8533C30.6242 19.7529 31.522 18.839 33.6384 18.2137C35.7548 17.5884 43.0018 15.953 45.8237 10.5017C45.8237 10.5017 45.6954 10.4215 45.4229 10.149C37.9033 17.0593 30.1111 11.2553 29.1812 20.0736Z" fill="url(#paint5_linear_14_616)"/>
<path d="M16.9477 20.0736C16.2904 20.6508 16.0178 21.1959 16.13 21.8533C15.5047 19.7529 14.6069 18.839 12.4905 18.2137C10.3741 17.5884 3.12703 15.953 0.305176 10.5017C0.305176 10.5017 0.433442 10.4215 0.706008 10.149C8.24165 17.0593 16.0338 11.2553 16.9477 20.0736Z" fill="url(#paint6_linear_14_616)"/>
<path d="M29.9185 17.2357C28.6359 11.3515 23.0723 9.04268 23.0723 9.04268C23.0723 9.04268 17.5088 11.3515 16.2261 17.2357C15.9535 18.5504 15.8894 20.1377 16.1299 21.8533C16.162 19.6888 20.6192 17.9251 23.0723 17.1074C25.5254 17.9251 29.9987 19.5926 30.0308 21.7731C30.2713 20.0575 30.1911 18.5504 29.9185 17.2357Z" fill="url(#paint7_radial_14_616)"/>
<path d="M23.0725 3.44705C23.0725 3.55929 23.0725 3.65548 23.0725 3.76772C23.0725 3.67152 23.0725 3.55929 23.0725 3.44705C23.0725 8.6739 16.9477 7.4233 16.2102 17.2998C17.4608 11.3675 23.0725 9.04267 23.0725 9.04267C23.0725 9.04267 28.6841 11.3675 29.9347 17.2998C29.1811 7.4233 23.0725 8.6739 23.0725 3.44705Z" fill="url(#paint8_linear_14_616)"/>
<path opacity="0.63" d="M23.0884 12.8105C18.8236 13.2113 16.5629 18.807 16.146 21.4204C16.5629 19.5285 20.7155 17.9091 23.0724 17.1235C25.5255 17.9412 29.9346 19.6728 30.0308 21.6609C30.0308 21.6288 30.0308 21.5968 30.0468 21.5647C29.6941 19.0154 27.4174 13.2113 23.0884 12.8105Z" fill="url(#paint9_linear_14_616)"/>
<path d="M5.29146 8.04863C7.35975 6.79804 9.76474 5.54744 12.3942 4.56941C15.3123 3.57535 18.7915 2.82178 23.0563 2.66145C19.5611 3.46311 15.4245 6.55754 16.13 15.9851C14.0456 8.33723 6.36568 14.029 2.10083 10.4216C2.90249 9.76419 3.99276 8.93046 5.29146 8.04863Z" fill="url(#paint10_linear_14_616)"/>
<path d="M5.29146 8.04863C7.35975 6.79804 9.76474 5.54744 12.3942 4.56941C15.3123 3.57535 18.7915 2.82178 23.0563 2.66145C19.5611 3.46311 15.4245 6.55754 16.13 15.9851C14.206 5.86811 6.67032 13.9809 2.10083 10.4216C2.90249 9.76419 3.99276 8.93046 5.29146 8.04863Z" fill="url(#paint11_linear_14_616)"/>
<path d="M5.29162 8.04861C7.35991 6.79801 9.7649 5.54742 12.3944 4.56939C15.3124 3.57532 18.7916 2.82176 23.0565 2.66142C12.2501 3.97615 9.73283 13.3396 2.08496 10.4215C2.90266 9.76417 3.99292 8.93044 5.29162 8.04861Z" fill="url(#paint12_linear_14_616)"/>
<path d="M5.29162 8.04882C7.35991 6.79822 9.7649 5.54763 12.3944 4.5696C15.3124 3.57553 18.7916 2.82197 23.0565 2.66164C9.21977 3.7519 7.07131 12.0251 2.08496 10.4217C2.90266 9.76438 3.99292 8.93065 5.29162 8.04882Z" fill="url(#paint13_linear_14_616)"/>
<path d="M40.8533 8.04863C38.785 6.79804 36.38 5.54744 33.7505 4.56941C30.8325 3.57535 27.3532 2.82178 23.0884 2.66145C26.5836 3.46311 30.7202 6.55754 30.0148 15.9851C32.0991 8.33723 39.779 14.029 44.0439 10.4216C43.2422 9.76419 42.152 8.93046 40.8533 8.04863Z" fill="url(#paint14_linear_14_616)"/>
<path d="M40.8533 8.04863C38.785 6.79804 36.38 5.54744 33.7505 4.56941C30.8325 3.57535 27.3532 2.82178 23.0884 2.66145C26.5836 3.46311 30.7202 6.55754 30.0148 15.9851C31.9387 5.86811 39.4744 13.9809 44.0439 10.4216C43.2422 9.76419 42.152 8.93046 40.8533 8.04863Z" fill="url(#paint15_linear_14_616)"/>
<path d="M40.8533 8.04861C38.785 6.79801 36.38 5.54742 33.7505 4.56939C30.8325 3.57532 27.3532 2.82176 23.0884 2.66142C33.8948 3.97615 36.412 13.3396 44.0599 10.4215C43.2422 9.76417 42.152 8.93044 40.8533 8.04861Z" fill="url(#paint16_linear_14_616)"/>
<path d="M40.8533 8.04882C38.785 6.79822 36.38 5.54763 33.7505 4.5696C30.8325 3.57553 27.3532 2.82197 23.0884 2.66164C36.9251 3.7519 39.0736 12.0251 44.0599 10.4217C43.2422 9.76438 42.152 8.93065 40.8533 8.04882Z" fill="url(#paint17_linear_14_616)"/>
<path d="M30.0147 21.725C29.9987 21.7892 29.9185 22.2862 29.9025 22.3503C30.0628 21.1799 28.2831 20.1377 28.2831 20.1377C24.6596 18.0534 23.1204 17.8931 23.0563 17.8931C22.9761 17.8931 21.453 18.0534 17.8294 20.1377C17.8294 20.1377 16.0497 21.1639 16.2101 22.3503C16.194 22.2862 16.1139 21.7892 16.0978 21.725C16.0818 21.6449 15.697 20.5225 17.5408 19.2399C17.5408 19.2399 19.4648 17.7488 23.0563 16.5784C26.6477 17.7648 28.5717 19.2399 28.5717 19.2399C30.4156 20.5225 30.0308 21.6449 30.0147 21.725Z" fill="url(#paint18_linear_14_616)"/>
<path d="M29.9506 21.741C29.9346 21.4524 29.9025 21.1477 29.7422 20.9072C29.5498 20.6026 29.2773 20.33 29.0047 20.1056C28.4275 19.6406 27.7862 19.2879 27.1288 18.9672C25.8301 18.3419 24.4673 17.8769 23.0724 17.4601C21.6935 17.8769 20.3146 18.3579 19.0159 18.9672C18.3586 19.2879 17.7012 19.6566 17.1401 20.1056C16.8515 20.33 16.5949 20.6026 16.4025 20.9072C16.2422 21.1477 16.2101 21.4524 16.1941 21.741C16.1941 21.4684 16.1941 21.0996 16.3384 20.8591C16.5148 20.5224 16.7713 20.2338 17.0439 19.9773C17.605 19.4642 18.2303 19.0474 18.8877 18.6786C20.2024 17.9411 21.5813 17.1394 22.9922 16.6103L23.0884 16.5783L23.1846 16.6103C24.5795 17.1394 25.9744 17.9411 27.2891 18.6786C27.9465 19.0474 28.5718 19.4642 29.1329 19.9773C29.4055 20.2338 29.662 20.5224 29.8384 20.8591C29.9506 21.0996 29.9506 21.4684 29.9506 21.741Z" fill="url(#paint19_linear_14_616)"/>
<path d="M18.102 33.5737C17.5889 33.0767 17.0277 32.6438 16.4345 32.243C16.3383 31.6658 15.6008 27.2887 15.4725 26.5672C15.3282 25.7976 14.9274 22.4787 13.3882 20.715C10.6946 17.6046 8.06514 18.1176 4.10492 15.4561C1.31513 13.5802 0.0324707 10.4377 0.0324707 10.4377C0.0324707 10.4377 0.240902 10.4698 0.369168 10.4858C0.6738 10.9508 1.94043 13.7887 6.41371 15.889C7.63224 16.4502 10.7267 17.3641 12.2498 17.8611C13.773 18.3581 15.7771 19.2881 16.194 21.4045C16.7071 24.0019 17.9737 32.756 18.102 33.5737Z" fill="url(#paint20_linear_14_616)"/>
<path d="M18.102 33.5737C17.5889 33.0767 17.0277 32.6438 16.4345 32.243C16.3383 31.6658 15.6008 27.2887 15.4725 26.5672C15.3282 25.7976 14.9274 22.4787 13.3882 20.715C10.6946 17.6046 8.06514 18.1176 4.10492 15.4561C1.31513 13.5802 0.0324707 10.4377 0.0324707 10.4377C0.0324707 10.4377 1.94043 13.965 6.41371 16.0654C7.63224 16.6266 9.74863 17.4282 11.2718 17.9252C12.795 18.4223 14.8793 19.2079 15.8413 21.5488C16.3704 22.8154 16.9155 25.7976 17.3163 28.4591C17.7172 30.9443 18.0378 33.1729 18.102 33.5737Z" fill="url(#paint21_linear_14_616)"/>
<path d="M18.1019 33.5737C17.5888 33.0767 17.0276 32.6438 16.4344 32.243C16.3863 32.0025 16.258 30.335 16.0015 28.3469C15.6327 25.5411 14.9273 22.158 13.8691 20.9235C11.1915 17.797 8.06504 18.1176 4.12085 15.4561C10.3738 18.2619 13.9653 19.6087 15.1838 21.661C16.4344 23.7453 17.0437 26.3588 17.6209 30.335C17.8614 31.9864 18.0538 33.2691 18.1019 33.5737Z" fill="url(#paint22_linear_14_616)"/>
<path d="M17.7334 33.2368C17.2684 32.836 16.7714 32.4672 16.2584 32.1145C16.1141 31.5373 15.9698 30.8639 15.8255 30.0943C15.4888 28.8437 15.1521 27.7214 14.8635 26.8235C12.8753 20.779 5.80465 25.0438 0.513672 13.7884C0.625905 13.9648 0.722106 14.1412 0.834339 14.3175C7.64848 25.156 15.6972 19.2398 16.9157 27.8817C17.2684 30.3989 17.541 32.0985 17.7334 33.2368Z" fill="url(#paint23_linear_14_616)"/>
<path d="M17.2524 32.8362C16.9317 32.5796 16.5951 32.3391 16.2584 32.1147C16.1141 31.5375 15.9698 30.8641 15.8255 30.0945C15.4888 28.8439 15.1521 27.7216 14.8635 26.8237C12.8753 20.7792 5.80465 25.044 0.513672 13.7886C0.625905 13.965 0.738139 14.1414 0.834339 14.3177C7.63245 25.3967 15.2964 20.202 16.4828 27.914C16.8195 30.0945 16.9317 30.6396 17.2524 32.8362Z" fill="url(#paint24_linear_14_616)"/>
<path d="M16.6752 32.4033C16.5309 32.3071 16.3866 32.2109 16.2584 32.1147C16.1141 31.5375 15.9698 30.8641 15.8255 30.0945C15.4888 28.8439 15.1521 27.7216 14.8635 26.8237C12.8753 20.7792 5.80465 25.044 0.513672 13.7887C0.625905 13.965 0.738136 14.1414 0.818302 14.3178C5.99705 24.8997 14.0297 21.2121 15.5208 27.3208C16.1622 29.9502 16.4187 31.1688 16.6752 32.4033Z" fill="url(#paint25_linear_14_616)"/>
<path d="M16.948 32.5957C16.4029 32.1949 15.8257 31.8101 15.2485 31.4734C15.1202 31.0244 14.992 30.5755 14.8477 30.1266C13.4207 25.8617 5.77283 27.0482 3.3999 19.5606C6.97532 26.455 14.9599 25.6693 16.4189 30.0624C16.6434 30.8 16.8037 31.6497 16.948 32.5957Z" fill="url(#paint26_linear_14_616)"/>
<path d="M16.2583 32.1145C15.9216 31.89 15.5849 31.6816 15.2321 31.4732C15.1039 31.0242 14.9756 30.5753 14.8313 30.1264C13.4043 25.8615 5.75647 27.048 3.38354 19.5604C6.79863 26.8396 14.8794 26.086 15.7933 30.0141C15.9697 30.7677 16.0819 31.1685 16.2583 32.1145Z" fill="url(#paint27_linear_14_616)"/>
<path d="M46.08 10.4216L45.7433 10.4697C45.4066 10.117 45.0539 9.76426 44.7012 9.42756C44.5248 9.26723 44.3324 9.1069 44.1561 8.94656C43.146 8.11283 42.0557 7.3753 40.9494 6.68587C39.1697 5.57958 37.2778 4.64965 35.3217 3.91212C33.3657 3.17458 31.3455 2.61342 29.2772 2.24466C27.2249 1.89192 25.1406 1.69952 23.0563 1.71556C20.9719 1.71556 18.8876 1.89192 16.8353 2.24466C14.7831 2.61342 12.7629 3.17458 10.7908 3.91212C8.83474 4.64965 6.94281 5.57958 5.16312 6.68587C4.05682 7.3753 2.96656 8.11283 1.95646 8.94656C1.76406 9.1069 1.58769 9.26723 1.41133 9.42756C1.04256 9.74823 0.689834 10.117 0.369168 10.4697L0.0324707 10.4216C0.048504 10.4056 1.61976 8.56177 2.22903 7.98457C3.01466 7.24704 3.83236 6.55761 4.69815 5.91628C6.42975 4.63361 8.30564 3.52732 10.2777 2.64549C12.2498 1.76366 14.3342 1.10629 16.4505 0.657359C17.5087 0.432893 18.583 0.272561 19.6572 0.160328C20.7314 0.0480947 21.8217 -5.72205e-06 22.8959 -5.72205e-06C22.944 -5.72205e-06 22.9921 -5.72205e-06 23.0242 -5.72205e-06C23.0723 -5.72205e-06 23.1204 -5.72205e-06 23.1525 -5.72205e-06C24.2427 -5.72205e-06 25.3169 0.0480947 26.3912 0.160328C27.4654 0.272561 28.5396 0.432893 29.5978 0.657359C31.7142 1.09026 33.7985 1.76366 35.7706 2.64549C37.7427 3.52732 39.6186 4.61758 41.3502 5.91628C42.216 6.55761 43.0337 7.24704 43.8194 7.98457C44.4927 8.5778 46.064 10.4056 46.08 10.4216Z" fill="url(#paint28_linear_14_616)"/>
<path d="M46.08 10.4216L45.7433 10.4697C45.7433 10.4697 45.0539 9.76426 44.7012 9.42756C44.5248 9.26723 44.3324 9.1069 44.1561 8.94656C43.146 8.11283 42.0557 7.3753 40.9494 6.68587C39.1697 5.57958 37.2778 4.64965 35.3217 3.91212C33.3657 3.17458 31.3455 2.61342 29.2772 2.24466C27.2249 1.89192 25.1406 1.69952 23.0563 1.71556C20.9719 1.71556 18.8876 1.89192 16.8353 2.24466C14.7831 2.61342 12.7629 3.17458 10.7908 3.91212C8.83474 4.64965 6.94281 5.57958 5.16312 6.68587C4.05682 7.3753 2.96656 8.11283 1.95646 8.94656C1.76406 9.1069 1.58769 9.26723 1.41133 9.42756C1.04256 9.74823 0.369168 10.4697 0.369168 10.4697L0.0324707 10.4216C0.112637 10.3415 1.6358 8.70607 2.22903 8.17697C3.01466 7.48754 3.83236 6.86224 4.69815 6.26901C6.42975 5.08254 8.30564 4.07245 10.2777 3.25475C12.2498 2.43705 14.3342 1.82779 16.4505 1.42696C17.5087 1.21853 18.583 1.07423 19.6572 0.978025C20.7314 0.881825 21.8217 0.833726 22.8959 0.833726C22.944 0.833726 22.9921 0.833726 23.0242 0.833726C23.0723 0.833726 23.1204 0.833726 23.1525 0.833726C24.2427 0.833726 25.3169 0.881825 26.3912 0.978025C27.4654 1.07423 28.5396 1.23456 29.5978 1.42696C31.7142 1.82779 33.7985 2.43705 35.7706 3.25475C37.7427 4.07245 39.6186 5.08254 41.3502 6.26901C42.216 6.86224 43.0337 7.50357 43.8194 8.17697C44.4767 8.70607 45.9999 10.3415 46.08 10.4216Z" fill="url(#paint29_linear_14_616)"/>
<path d="M0.048584 10.4218L0.224951 10.4378L0.385281 10.4699C0.689914 10.9349 1.95654 13.7728 6.42983 15.8731C7.64836 16.4343 10.7428 17.3482 12.2659 17.8452C5.4518 16.1297 2.24514 14.5263 0.048584 10.4218Z" fill="url(#paint30_linear_14_616)"/>
<path d="M28.0427 33.5737C28.5558 33.0767 29.117 32.6438 29.7102 32.243C29.8064 31.6658 30.5439 27.2887 30.6722 26.5672C30.8165 25.7976 31.2173 22.4787 32.7565 20.715C35.4501 17.6046 38.0796 18.1176 42.0398 15.4561C44.8296 13.5802 46.1122 10.4377 46.1122 10.4377C46.1122 10.4377 45.9038 10.4698 45.7755 10.4858C45.4709 10.9508 44.2043 13.7887 39.731 15.889C38.5125 16.4502 35.418 17.3641 33.8949 17.8611C32.3717 18.3581 30.3676 19.2881 29.9507 21.4045C29.4216 24.0019 28.155 32.756 28.0427 33.5737Z" fill="url(#paint31_linear_14_616)"/>
<path d="M28.0427 33.5737C28.5558 33.0767 29.117 32.6438 29.7102 32.243C29.8064 31.6658 30.5439 27.2887 30.6722 26.5672C30.8165 25.7976 31.2173 22.4787 32.7565 20.715C35.4501 17.6046 38.0796 18.1176 42.0398 15.4561C44.8296 13.5802 46.1122 10.4377 46.1122 10.4377C46.1122 10.4377 44.2043 13.965 39.731 16.0654C38.5125 16.6266 36.3961 17.4282 34.8729 17.9252C33.3497 18.4223 31.2654 19.2079 30.3034 21.5488C29.7743 22.8154 29.2292 25.7976 28.8284 28.4591C28.4115 30.9443 28.0908 33.1729 28.0427 33.5737Z" fill="url(#paint32_linear_14_616)"/>
<path d="M28.0427 33.5737C28.5558 33.0767 29.117 32.6438 29.7102 32.243C29.7583 32.0025 29.8866 30.335 30.1431 28.3469C30.5119 25.5411 31.2173 22.158 32.2755 20.9235C34.9531 17.797 38.0796 18.1176 42.0237 15.4561C35.7708 18.2619 32.1793 19.6087 30.9608 21.661C29.7102 23.7453 29.1009 26.3588 28.5237 30.335C28.2832 31.9864 28.0748 33.2691 28.0427 33.5737Z" fill="url(#paint33_linear_14_616)"/>
<path d="M28.3955 33.2368C28.8605 32.836 29.3575 32.4672 29.8706 32.1145C30.0149 31.5373 30.1592 30.8639 30.3035 30.0943C30.6402 28.8437 30.9769 27.7214 31.2655 26.8235C33.2536 20.779 40.3243 25.0438 45.6152 13.7884C45.503 13.9648 45.4068 14.1412 45.2946 14.3175C38.4804 25.156 30.4317 19.2398 29.2132 27.8817C28.8605 30.3989 28.5879 32.0985 28.3955 33.2368Z" fill="url(#paint34_linear_14_616)"/>
<path d="M28.8765 32.8362C29.1971 32.5796 29.5338 32.3391 29.8705 32.1147C30.0148 31.5375 30.1591 30.8641 30.3034 30.0945C30.6401 28.8439 30.9768 27.7216 31.2654 26.8237C33.2536 20.7792 40.3242 25.044 45.6152 13.7886C45.503 13.965 45.3907 14.1414 45.2945 14.3177C38.4964 25.3967 30.8325 20.202 29.6461 27.914C29.3094 30.0945 29.1971 30.6396 28.8765 32.8362Z" fill="url(#paint35_linear_14_616)"/>
<path d="M29.4536 32.4033C29.5979 32.3071 29.7422 32.2109 29.8705 32.1147C30.0148 31.5375 30.1591 30.8641 30.3034 30.0945C30.6401 28.8439 30.9768 27.7216 31.2654 26.8237C33.2535 20.7792 40.3242 25.044 45.6152 13.7887C45.5029 13.965 45.3907 14.1414 45.3105 14.3178C40.1318 24.8997 32.0991 21.2121 30.608 27.3208C29.9827 29.9502 29.7101 31.1688 29.4536 32.4033Z" fill="url(#paint36_linear_14_616)"/>
<path d="M29.1812 32.5957C29.7263 32.1949 30.3035 31.8101 30.8807 31.4734C31.0089 31.0244 31.1372 30.5755 31.2815 30.1266C32.7085 25.8617 40.3563 27.0482 42.7293 19.5606C39.1539 26.455 31.1693 25.6693 29.7103 30.0624C29.4858 30.8 29.3255 31.6497 29.1812 32.5957Z" fill="url(#paint37_linear_14_616)"/>
<path d="M29.8706 32.1145C30.2073 31.89 30.544 31.6816 30.8967 31.4732C31.025 31.0242 31.1533 30.5753 31.2976 30.1264C32.7245 25.8615 40.3724 27.048 42.7453 19.5604C39.3302 26.8396 31.2495 26.086 30.3356 30.0141C30.1592 30.7677 30.047 31.1685 29.8706 32.1145Z" fill="url(#paint38_linear_14_616)"/>
<path d="M46.0801 10.4218L45.9038 10.4378L45.7435 10.4699C45.4388 10.9349 44.1722 13.7728 39.6989 15.8731C38.4804 16.4343 35.386 17.3482 33.8628 17.8452C40.6769 16.1297 43.8996 14.5263 46.0801 10.4218Z" fill="url(#paint39_linear_14_616)"/>
<path d="M16.098 68.1574C18.4228 68.1574 27.7061 68.1574 30.0309 68.1574C32.4038 68.1574 32.9009 69.0232 32.9009 69.0232C32.8207 67.9971 31.3296 65.9448 30.0309 65.9448C28.7482 65.9448 17.3806 65.9448 16.098 65.9448C14.7993 65.9448 13.3082 68.0131 13.228 69.0232C13.228 69.0232 13.7251 68.1574 16.098 68.1574Z" fill="#1B1C2B"/>
<path d="M30.0309 65.6723C28.7322 65.6723 17.3806 65.6723 16.098 65.6723C14.7993 65.6723 13.3563 67.7406 13.2761 68.7507C13.2761 68.7507 13.7411 67.8849 16.098 67.8849C18.4388 67.8849 27.69 67.8849 30.0309 67.8849C32.4038 67.8849 32.8528 68.7507 32.8528 68.7507C32.7726 67.7246 31.3296 65.6723 30.0309 65.6723Z" fill="url(#paint40_radial_14_616)"/>
<path d="M31.7784 70.7067C30.4957 70.7067 15.6489 70.7067 14.3502 70.7067C13.0515 70.7067 11.4802 72.6147 11.4802 75.196C11.4802 75.196 11.9933 73.1598 14.3502 73.1598C16.691 73.1598 29.4375 73.1598 31.7784 73.1598C34.1513 73.1598 34.6483 75.196 34.6483 75.196C34.6483 72.5987 33.0771 70.7067 31.7784 70.7067Z" fill="#1B1C2B"/>
<path d="M31.7784 70.3058C30.4957 70.3058 15.6489 70.3058 14.3502 70.3058C13.0515 70.3058 11.4802 72.2138 11.4802 74.7952C11.4802 74.7952 11.9773 72.7589 14.3502 72.7589C16.691 72.7589 29.4375 72.7589 31.7784 72.7589C34.1513 72.7589 34.6483 74.7952 34.6483 74.7952C34.6483 72.1978 33.0771 70.3058 31.7784 70.3058Z" fill="url(#paint41_radial_14_616)"/>
<path d="M22.2226 59.3391C22.2226 59.3391 22.0623 60.2049 21.934 60.6538L21.8699 60.8462L21.7737 60.6698C20.2506 57.7678 18.1823 57.1746 16.1781 56.5974C14.2541 56.0522 12.4423 55.5231 11.5445 52.8937L11.4322 52.541C14.7672 55.7957 18.2624 53.7274 21.2767 58.1847C21.3889 58.329 21.5012 58.5053 21.6134 58.6657C21.6936 57.0303 21.3889 55.8117 20.8438 54.8337C18.8236 51.579 13.5486 51.8195 11.0955 48.9014C10.7589 48.5326 10.4863 48.1158 10.3099 47.6348V47.6187C10.0374 46.9774 9.86099 46.2078 9.82892 45.3099C9.81289 45.0534 9.81289 44.7808 9.82892 44.4922C11.785 49.0778 24.3711 47.6508 22.2226 59.3391Z" fill="url(#paint42_linear_14_616)"/>
<path d="M22.2867 58.4571C22.2386 59.4031 22.1103 59.9482 21.9981 60.4773C22.1264 59.868 21.9981 59.2588 21.6454 58.6655C21.7255 57.0301 21.4209 55.8116 20.8758 54.8336C18.8556 51.5788 13.5806 51.8193 11.1275 48.9013C10.7908 48.5325 10.5183 48.1156 10.3419 47.6346V47.6186C10.0693 46.9773 9.89297 46.2077 9.8609 45.3098C9.84487 45.0533 9.84487 44.7807 9.8609 44.4921C11.7208 50.8413 22.8639 47.33 22.2867 58.4571Z" fill="url(#paint43_linear_14_616)"/>
<path d="M21.9339 60.6538C21.8698 60.8462 21.8698 60.8462 21.8698 60.8462L21.7736 60.6698C20.2504 57.7678 18.1821 57.1746 16.178 56.5974C14.254 56.0522 12.4422 55.5231 11.5444 52.8937L11.4321 52.541C13.9333 55.7957 18.615 54.3527 21.5812 58.6176C21.5812 58.6176 21.5972 58.6336 21.6133 58.6657C22.0141 59.323 22.1424 59.9964 21.9339 60.6538Z" fill="url(#paint44_linear_14_616)"/>
<path d="M21.9339 60.6538C21.8698 60.8462 21.8698 60.8462 21.8698 60.8462L21.7736 60.6698C20.2504 57.7678 18.3104 57.0303 16.3062 56.4691C14.3823 55.924 12.6827 55.3788 11.5444 52.8937L11.4321 52.541C13.9333 55.7957 18.615 54.3527 21.5812 58.6176C21.5812 58.6176 21.5972 58.6336 21.6133 58.6657C22.0462 59.3391 22.1424 59.9964 21.9339 60.6538Z" fill="url(#paint45_linear_14_616)"/>
<path d="M16.5308 56.1162C14.6068 55.5711 12.4583 54.8656 11.5605 52.8935L11.4482 52.5408C13.9494 55.7956 18.6311 54.3526 21.5973 58.6174L21.6294 58.6655C19.6733 57.0301 18.5349 56.6934 16.5308 56.1162Z" fill="url(#paint46_linear_14_616)"/>
<path d="M20.3306 57.431C19.6572 56.9339 17.6851 55.8276 16.1459 55.4749C13.4684 54.8496 12.1697 53.9678 11.4642 52.637L11.4321 52.5408C13.9333 55.7956 18.615 54.3526 21.5812 58.6174C21.5812 58.6174 21.5972 58.6335 21.6133 58.6655C21.2926 58.3288 20.4589 57.5432 20.3306 57.431Z" fill="url(#paint47_linear_14_616)"/>
<path d="M22.2867 58.4571C22.2546 59.4031 22.1103 59.9482 21.9981 60.4773C22.1264 59.868 21.9981 59.2588 21.6454 58.6655C21.7255 57.0301 21.4209 55.8116 20.8758 54.8336C18.8556 51.5788 13.5806 51.8193 11.1275 48.9013C10.7908 48.5325 10.5183 48.1156 10.3419 47.6346V47.6186C10.0693 46.9773 9.89297 46.2077 9.8609 45.3098C9.84487 45.0533 9.84487 44.7807 9.8609 44.4921C11.849 51.6911 22.6234 47.9553 22.2867 58.4571Z" fill="url(#paint48_linear_14_616)"/>
<path d="M22.2868 58.4571C22.2548 59.4031 22.1105 59.9482 21.9982 60.4773C22.1265 59.868 21.9982 59.2588 21.6455 58.6655C21.7257 57.0301 21.4852 55.539 20.94 54.577C18.9199 51.3223 12.0095 51.194 10.4543 47.6026V47.5865C10.1817 46.9452 9.84502 45.9832 9.84502 45.3098C9.84502 45.0533 9.82898 44.7807 9.84502 44.4921C11.8492 51.6911 22.6235 47.9553 22.2868 58.4571Z" fill="url(#paint49_linear_14_616)"/>
<path d="M22.2867 58.4572C22.2547 59.4032 22.1264 55.6353 21.1163 54.032C17.5409 49.222 11.9934 50.3123 10.5824 47.1377C10.5824 47.1377 9.82886 45.5825 9.82886 44.4922C11.8491 51.6912 22.6234 47.9554 22.2867 58.4572Z" fill="url(#paint50_linear_14_616)"/>
<path d="M20.9399 46.3363C20.9399 46.3524 20.5231 48.1481 20.4589 48.3726C17.5088 40.2116 7.60022 45.6148 7.27956 36.7003C7.27956 36.7003 7.27956 36.6362 7.27956 36.6041C7.29559 36.6362 7.31163 36.6683 7.32766 36.7003C8.17743 38.4319 10.1816 38.9931 12.33 39.426C13.2119 39.5863 14.1097 39.7306 14.9595 39.9711C14.9595 39.9711 18.07 40.7728 19.0159 42.312C19.0159 42.2959 19.1121 41.2538 19.1282 40.7568C19.1282 39.3619 18.8075 38.2716 18.2944 37.3898C16.7873 35.113 14.4945 34.2152 11.0795 32.8523C7.66436 31.4895 4.52183 29.8862 4.9868 23.9058C5.11507 24.1783 5.25937 24.4349 5.38763 24.6914C5.91673 25.6534 7.1032 26.6956 7.1032 26.6956C11.7208 30.5917 20.7475 31.2009 21.3889 40.6766C21.5492 43.0495 21.3407 44.3001 20.9399 46.3363Z" fill="url(#paint51_linear_14_616)"/>
<path d="M20.475 48.3884C17.5249 40.2275 7.61632 45.6307 7.29565 36.7162C7.29565 36.7162 7.29565 36.6521 7.29565 36.62C7.31169 36.6521 7.32772 36.6841 7.34375 36.7162C8.27368 38.9128 10.1977 39.3457 12.3461 39.7786C13.228 39.9389 14.0617 40.0672 14.9115 40.3077C16.2903 40.6444 17.8295 41.2536 19.1442 42.889C19.1442 42.889 19.8657 43.6265 20.1543 45.0695C20.475 46.8011 20.475 48.3884 20.475 48.3884Z" fill="url(#paint52_linear_14_616)"/>
<path d="M20.9561 46.3363C20.9561 46.3524 20.5392 48.1481 20.4751 48.3726C20.4751 48.3726 20.4751 46.7853 20.1384 45.0537C19.8177 43.3381 19.016 42.328 19.016 42.328C19.016 42.312 19.1122 41.2698 19.1283 40.7728C19.1283 39.3779 18.8076 38.2876 18.2945 37.4058C16.7874 35.1291 14.4947 34.2312 11.0635 32.8684C7.63241 31.5216 4.50592 28.5715 4.97089 23.9218C5.09915 24.1944 5.24345 24.4509 5.38775 24.7074C5.90081 25.6374 7.08728 26.8559 7.08728 26.8559C11.769 31.0245 20.6675 32.0507 21.1966 40.5644C21.3729 42.9533 21.3409 44.2841 20.9561 46.3363Z" fill="url(#paint53_linear_14_616)"/>
<path d="M20.475 48.3884C18.4228 40.0672 9.01122 44.8932 7.29565 36.7162C7.29565 36.7162 7.29565 36.6521 7.29565 36.62C7.31169 36.6521 7.32772 36.6841 7.34375 36.7162C8.27368 38.9128 10.1977 39.3457 12.3461 39.7786C13.228 39.9389 14.0617 40.0672 14.9115 40.3077C16.2903 40.6444 17.8295 41.2536 19.1442 42.889C19.1442 42.889 19.8657 43.6265 20.1543 45.0695C20.475 46.8011 20.475 48.3884 20.475 48.3884Z" fill="url(#paint54_linear_14_616)"/>
<path d="M20.475 48.3884C19.4489 38.4478 9.82891 44.1236 7.29565 36.7162C7.29565 36.7162 7.29565 36.6521 7.29565 36.62C7.31169 36.6521 7.32772 36.6841 7.34375 36.7162C8.27368 38.9128 10.1977 39.3457 12.3461 39.7786C13.228 39.9389 14.0617 40.0672 14.9115 40.3077C16.2903 40.6444 17.8295 41.2536 19.1442 42.889C19.1442 42.889 19.8657 43.6265 20.1543 45.0695C20.475 46.8011 20.475 48.3884 20.475 48.3884Z" fill="url(#paint55_linear_14_616)"/>
<path d="M20.475 48.3884C20.1383 37.4537 8.88295 42.5523 7.29565 36.7162C7.29565 36.7162 7.29565 36.6521 7.29565 36.62C7.31169 36.6521 7.32772 36.6841 7.34375 36.7162C8.27368 38.9128 10.1977 39.3457 12.3461 39.7786C13.228 39.9389 14.0617 40.0672 14.9115 40.3077C16.2903 40.6444 17.8295 41.2536 19.1442 42.889C19.1442 42.889 19.8657 43.6265 20.1543 45.0695C20.475 46.8011 20.475 48.3884 20.475 48.3884Z" fill="url(#paint56_linear_14_616)"/>
<path d="M20.9558 46.3363C20.9558 46.3524 20.539 48.1481 20.4748 48.3726C20.4748 48.3726 20.4748 46.7853 20.1381 45.0537C20.0259 44.4765 19.8656 43.9794 19.7052 43.5626C19.8816 41.3179 20.0099 39.8268 19.2082 37.8708C18.4065 35.9147 16.5467 34.5198 13.1156 33.173C8.49797 31.3612 4.50568 28.5554 4.98668 23.9218C5.11494 24.1944 5.25924 24.4509 5.40354 24.7074C5.91661 25.6374 7.10307 26.8559 7.10307 26.8559C11.7848 31.0245 20.6833 32.0507 21.2124 40.5644C21.3727 42.9533 21.3406 44.2841 20.9558 46.3363Z" fill="url(#paint57_linear_14_616)"/>
<path d="M20.956 46.3364C20.956 46.3524 21.3889 40.0674 20.475 37.8227C19.2726 34.8726 16.2904 32.4195 12.8592 31.0727C8.24165 29.261 5.30756 26.391 5.00293 23.9379C5.1312 24.2105 5.27549 24.467 5.41979 24.7235C5.93286 25.6535 7.11932 26.872 7.11932 26.872C11.801 31.0406 20.6995 32.0668 21.2286 40.5804C21.3729 42.9534 21.3408 44.2841 20.956 46.3364Z" fill="url(#paint58_linear_14_616)"/>
<path d="M19.8337 41.5422C19.5932 38.7364 19.3687 37.9027 18.2143 36.62C16.7874 35.0488 15.8895 34.4876 12.4744 33.1408C7.85684 31.329 4.53795 28.5873 5.00292 23.9377C5.33962 26.9359 7.13534 28.908 7.13534 28.908C10.4863 31.6337 11.9453 31.7299 14.5908 33.0446C16.4186 33.9425 17.8295 35.0808 18.7434 36.1711C20.1544 37.9027 19.9139 39.3777 19.8337 41.5422Z" fill="url(#paint59_linear_14_616)"/>
<path d="M23.906 59.3391C23.906 59.3391 24.0663 60.2049 24.1946 60.6538L24.2587 60.8462L24.3549 60.6698C25.8781 57.7678 27.9464 57.1746 29.9505 56.5974C31.8745 56.0522 33.6863 55.5231 34.5842 52.8937L34.6964 52.541C31.3615 55.7957 27.8662 53.7274 24.852 58.1847C24.7397 58.329 24.6275 58.5053 24.5153 58.6657C24.4351 57.0303 24.7397 55.8117 25.2849 54.8337C27.3051 51.579 32.58 51.8195 35.0331 48.9014C35.3698 48.5326 35.6424 48.1158 35.8187 47.6348V47.6187C36.0913 46.9774 36.2677 46.2078 36.2997 45.3099C36.3158 45.0534 36.3158 44.7808 36.2997 44.4922C34.3437 49.0778 21.7575 47.6508 23.906 59.3391Z" fill="url(#paint60_linear_14_616)"/>
<path d="M23.858 58.4571C23.9061 59.4031 24.0344 59.9482 24.1466 60.4773C24.0184 59.868 24.1466 59.2588 24.4994 58.6655C24.4192 57.0301 24.7238 55.8116 25.269 54.8336C27.2892 51.5788 32.5641 51.8193 35.0172 48.9013C35.3539 48.5325 35.6265 48.1156 35.8028 47.6346V47.6186C36.0754 46.9773 36.2518 46.2077 36.2838 45.3098C36.2999 45.0533 36.2999 44.7807 36.2838 44.4921C34.4079 50.8413 23.2648 47.33 23.858 58.4571Z" fill="url(#paint61_linear_14_616)"/>
<path d="M24.1947 60.6538C24.2588 60.8462 24.2588 60.8462 24.2588 60.8462L24.355 60.6698C25.8782 57.7678 27.9465 57.1746 29.9506 56.5974C31.8746 56.0522 33.6864 55.5231 34.5842 52.8937L34.6965 52.541C32.1953 55.7957 27.5136 54.3527 24.5474 58.6176C24.5474 58.6176 24.5314 58.6336 24.5153 58.6657C24.1145 59.323 24.0023 59.9964 24.1947 60.6538Z" fill="url(#paint62_linear_14_616)"/>
<path d="M24.1948 60.6538C24.2589 60.8462 24.2589 60.8462 24.2589 60.8462L24.3551 60.6698C25.8783 57.7678 27.8183 57.0303 29.8225 56.4691C31.7464 55.924 33.446 55.3788 34.5843 52.8937L34.6966 52.541C32.1954 55.7957 27.5137 54.3527 24.5475 58.6176C24.5475 58.6176 24.5315 58.6336 24.5154 58.6657C24.0825 59.3391 24.0024 59.9964 24.1948 60.6538Z" fill="url(#paint63_linear_14_616)"/>
<path d="M29.5979 56.1162C31.5218 55.5711 33.6703 54.8656 34.5682 52.8935L34.6804 52.5408C32.1792 55.7956 27.4975 54.3526 24.5313 58.6174L24.4993 58.6655C26.4553 57.0301 27.5937 56.6934 29.5979 56.1162Z" fill="url(#paint64_linear_14_616)"/>
<path d="M25.798 57.431C26.4714 56.9339 28.4435 55.8276 29.9827 55.4749C32.6603 54.8496 33.959 53.9678 34.6644 52.637L34.6965 52.5408C32.1953 55.7956 27.5136 54.3526 24.5474 58.6174C24.5474 58.6174 24.5314 58.6335 24.5154 58.6655C24.836 58.3288 25.6698 57.5432 25.798 57.431Z" fill="url(#paint65_linear_14_616)"/>
<path d="M23.8581 58.4571C23.8901 59.4031 24.0344 59.9482 24.1467 60.4773C24.0184 59.868 24.1467 59.2588 24.4994 58.6655C24.4192 57.0301 24.7239 55.8116 25.269 54.8336C27.2892 51.5788 32.5642 51.8193 35.0172 48.9013C35.3539 48.5325 35.6265 48.1156 35.8029 47.6346V47.6186C36.0754 46.9773 36.2518 46.2077 36.2839 45.3098C36.2999 45.0533 36.2999 44.7807 36.2839 44.4921C34.2797 51.6911 23.5053 47.9553 23.8581 58.4571Z" fill="url(#paint66_linear_14_616)"/>
<path d="M23.8581 58.4571C23.8901 59.4031 24.0344 59.9482 24.1467 60.4773C24.0184 59.868 24.1467 59.2588 24.4994 58.6655C24.4192 57.0301 24.6597 55.539 25.2049 54.577C27.2251 51.3223 34.1354 51.194 35.6906 47.6026V47.5865C35.9632 46.9452 36.2999 45.9832 36.2999 45.3098C36.2999 45.0533 36.3159 44.7807 36.2999 44.4921C34.2797 51.6911 23.5053 47.9553 23.8581 58.4571Z" fill="url(#paint67_linear_14_616)"/>
<path d="M23.8581 58.4572C23.8901 59.4032 24.0184 55.6353 25.0285 54.032C28.6039 49.222 34.1514 50.3123 35.5624 47.1377C35.5624 47.1377 36.3159 45.5825 36.3159 44.4922C34.2797 51.6912 23.5053 47.9554 23.8581 58.4572Z" fill="url(#paint68_linear_14_616)"/>
<path d="M25.1887 46.3363C25.1887 46.3524 25.6056 48.1481 25.6697 48.3726C28.6198 40.2116 38.5284 45.6148 38.849 36.7003C38.849 36.7003 38.849 36.6362 38.849 36.6041C38.833 36.6362 38.817 36.6683 38.8009 36.7003C37.9512 38.4319 35.947 38.9931 33.7986 39.426C32.9167 39.5863 32.0189 39.7306 31.1691 39.9711C31.1691 39.9711 28.0587 40.7728 27.1127 42.312C27.1127 42.2959 27.0165 41.2538 27.0005 40.7568C27.0005 39.3619 27.3211 38.2716 27.8342 37.3898C29.3413 35.113 31.6341 34.2152 35.0492 32.8523C38.4642 31.4895 41.6068 29.8862 41.1418 23.9058C41.0135 24.1783 40.8692 24.4349 40.741 24.6914C40.2279 25.6213 39.0414 26.6635 39.0414 26.6635C34.4239 30.5596 25.3971 31.1689 24.7558 40.6445C24.5794 43.0495 24.7879 44.3001 25.1887 46.3363Z" fill="url(#paint69_linear_14_616)"/>
<path d="M25.6538 48.3884C28.6039 40.2275 38.5125 45.6307 38.8332 36.7162C38.8332 36.7162 38.8332 36.6521 38.8332 36.62C38.8171 36.6521 38.8011 36.6841 38.7851 36.7162C37.8551 38.9128 35.9311 39.3457 33.7827 39.7786C32.9009 39.9389 32.0671 40.0672 31.2174 40.3077C29.8385 40.6444 28.2993 41.2536 26.9846 42.889C26.9846 42.889 26.2631 43.6265 25.9745 45.0695C25.6538 46.8011 25.6538 48.3884 25.6538 48.3884Z" fill="url(#paint70_linear_14_616)"/>
<path d="M25.1727 46.3363C25.1727 46.3524 25.5896 48.1481 25.6537 48.3726C25.6537 48.3726 25.6537 46.7853 25.9904 45.0537C26.3111 43.3381 27.1127 42.328 27.1127 42.328C27.1127 42.312 27.0165 41.2698 27.0005 40.7728C27.0005 39.3779 27.3212 38.2876 27.8342 37.4058C29.3414 35.1291 31.6341 34.2312 35.0652 32.8684C38.4964 31.5216 41.6229 28.5715 41.1579 23.9218C41.0296 24.1944 40.8853 24.4509 40.741 24.7074C40.228 25.6374 39.0415 26.8559 39.0415 26.8559C34.3598 31.0245 25.4613 32.0507 24.9322 40.5644C24.7559 42.9533 24.7879 44.2841 25.1727 46.3363Z" fill="url(#paint71_linear_14_616)"/>
<path d="M25.6538 48.3884C27.7061 40.0672 37.1176 44.8932 38.8332 36.7162C38.8332 36.7162 38.8332 36.6521 38.8332 36.62C38.8171 36.6521 38.8011 36.6841 38.7851 36.7162C37.8551 38.9128 35.9311 39.3457 33.7827 39.7786C32.9009 39.9389 32.0671 40.0672 31.2174 40.3077C29.8385 40.6444 28.2993 41.2536 26.9846 42.889C26.9846 42.889 26.2631 43.6265 25.9745 45.0695C25.6538 46.8011 25.6538 48.3884 25.6538 48.3884Z" fill="url(#paint72_linear_14_616)"/>
<path d="M25.6538 48.3884C26.6799 38.4478 36.2999 44.1236 38.8332 36.7162C38.8332 36.7162 38.8332 36.6521 38.8332 36.62C38.8171 36.6521 38.8011 36.6841 38.7851 36.7162C37.8551 38.9128 35.9311 39.3457 33.7827 39.7786C32.9009 39.9389 32.0671 40.0672 31.2174 40.3077C29.8385 40.6444 28.2993 41.2536 26.9846 42.889C26.9846 42.889 26.2631 43.6265 25.9745 45.0695C25.6538 46.8011 25.6538 48.3884 25.6538 48.3884Z" fill="url(#paint73_linear_14_616)"/>
<path d="M25.6538 48.3884C25.9905 37.4537 37.2459 42.5523 38.8332 36.7162C38.8332 36.7162 38.8332 36.6521 38.8332 36.62C38.8171 36.6521 38.8011 36.6841 38.7851 36.7162C37.8551 38.9128 35.9311 39.3457 33.7827 39.7786C32.9009 39.9389 32.0671 40.0672 31.2174 40.3077C29.8385 40.6444 28.2993 41.2536 26.9846 42.889C26.9846 42.889 26.2631 43.6265 25.9745 45.0695C25.6538 46.8011 25.6538 48.3884 25.6538 48.3884Z" fill="url(#paint74_linear_14_616)"/>
<path d="M25.1726 46.3363C25.1726 46.3524 25.5895 48.1481 25.6536 48.3726C25.6536 48.3726 25.6536 46.7853 25.9903 45.0537C26.1025 44.4765 26.2629 43.9794 26.4232 43.5626C26.2468 41.3179 26.1186 39.8268 26.9202 37.8708C27.7219 35.9147 29.5818 34.5198 33.0129 33.173C37.6305 31.3612 41.6228 28.5554 41.1418 23.9218C41.0135 24.1944 40.8692 24.4509 40.7249 24.7074C40.2118 25.6374 39.0254 26.8559 39.0254 26.8559C34.3436 31.0245 25.4452 32.0507 24.9161 40.5644C24.7557 42.9533 24.7878 44.2841 25.1726 46.3363Z" fill="url(#paint75_linear_14_616)"/>
<path d="M25.1727 46.3364C25.1727 46.3524 24.7399 40.0674 25.6538 37.8227C26.8562 34.8726 29.8384 32.4195 33.2696 31.0727C37.8871 29.261 40.8212 26.391 41.1259 23.9379C40.9976 24.2105 40.8533 24.467 40.709 24.7235C40.1959 25.6535 39.0095 26.872 39.0095 26.872C34.3278 31.0406 25.4293 32.0668 24.9002 40.5804C24.7559 42.9534 24.7879 44.2841 25.1727 46.3364Z" fill="url(#paint76_linear_14_616)"/>
<path d="M26.2951 41.5422C26.5356 38.7364 26.7601 37.9027 27.9145 36.62C29.3414 35.0488 30.2393 34.4876 33.6544 33.1408C38.272 31.329 41.5908 28.5873 41.1259 23.9377C40.7892 26.9359 38.9935 28.908 38.9935 28.908C35.6425 31.6337 34.1835 31.7299 31.538 33.0446C29.7102 33.9425 28.2993 35.0808 27.3854 36.1711C25.9744 37.9027 26.231 39.3777 26.2951 41.5422Z" fill="url(#paint77_linear_14_616)"/>
<defs>
<linearGradient id="paint0_linear_14_616" x1="1.14971" y1="9.97744" x2="0.685709" y2="9.97744" gradientUnits="userSpaceOnUse">
<stop stop-color="#B8B7CA"/>
<stop offset="0.5084" stop-color="#F2F1F5"/>
<stop offset="0.6019" stop-color="#ECEBF1"/>
<stop offset="0.7209" stop-color="#DCDBE5"/>
<stop offset="0.8535" stop-color="#C1C1D1"/>
<stop offset="0.9951" stop-color="#9E9FB8"/>
<stop offset="0.9989" stop-color="#9D9EB7"/>
</linearGradient>
<radialGradient id="paint1_radial_14_616" cx="0" cy="0" r="1" gradientUnits="userSpaceOnUse" gradientTransform="translate(24.0517 10.9211) scale(26.9088 26.9088)">
<stop stop-color="#CC0C31"/>
<stop offset="0.1568" stop-color="#CA0D30"/>
<stop offset="0.2647" stop-color="#C21130"/>
<stop offset="0.3577" stop-color="#B61530"/>
<stop offset="0.4421" stop-color="#A4182F"/>
<stop offset="0.4497" stop-color="#A2192F"/>
<stop offset="0.5169" stop-color="#9A1D2F"/>
<stop offset="0.6345" stop-color="#83242D"/>
<stop offset="0.7872" stop-color="#612528"/>
<stop offset="0.9067" stop-color="#432020"/>
</radialGradient>
<linearGradient id="paint2_linear_14_616" x1="45.5579" y1="10.0111" x2="45.0838" y2="10.0111" gradientUnits="userSpaceOnUse">
<stop stop-color="#B8B7CA"/>
<stop offset="0.5084" stop-color="#F2F1F5"/>
<stop offset="0.6019" stop-color="#ECEBF1"/>
<stop offset="0.7209" stop-color="#DCDBE5"/>
<stop offset="0.8535" stop-color="#C1C1D1"/>
<stop offset="0.9951" stop-color="#9E9FB8"/>
<stop offset="0.9989" stop-color="#9D9EB7"/>
</linearGradient>
<linearGradient id="paint3_linear_14_616" x1="-3.05579" y1="5.32502" x2="15.6134" y2="28.9611" gradientUnits="userSpaceOnUse">
<stop offset="0.3338" stop-color="#CC0C31"/>
<stop offset="0.3908" stop-color="#C80E30"/>
<stop offset="0.4632" stop-color="#BA1330"/>
<stop offset="0.5436" stop-color="#A5182F"/>
<stop offset="0.5539" stop-color="#A2192F"/>
<stop offset="0.6156" stop-color="#9A1D2F"/>
<stop offset="0.7236" stop-color="#83242D"/>
<stop offset="0.864" stop-color="#612528"/>
<stop offset="0.9738" stop-color="#432020"/>
</linearGradient>
<linearGradient id="paint4_linear_14_616" x1="49.1876" y1="5.32421" x2="30.5176" y2="28.961" gradientUnits="userSpaceOnUse">
<stop offset="0.3338" stop-color="#CC0C31"/>
<stop offset="0.3908" stop-color="#C80E30"/>
<stop offset="0.4632" stop-color="#BA1330"/>
<stop offset="0.5436" stop-color="#A5182F"/>
<stop offset="0.5539" stop-color="#A2192F"/>
<stop offset="0.6158" stop-color="#9A1D2F"/>
<stop offset="0.7242" stop-color="#83242D"/>
<stop offset="0.8651" stop-color="#612528"/>
<stop offset="0.9753" stop-color="#432020"/>
</linearGradient>
<linearGradient id="paint5_linear_14_616" x1="26.3099" y1="25.7579" x2="43.4128" y2="8.4238" gradientUnits="userSpaceOnUse">
<stop stop-color="#CC0C31"/>
<stop offset="0.1164" stop-color="#C80E30"/>
<stop offset="0.2644" stop-color="#BA1330"/>
<stop offset="0.4288" stop-color="#A5182F"/>
<stop offset="0.4497" stop-color="#A2192F"/>
<stop offset="0.5307" stop-color="#9A1D2F"/>
<stop offset="0.6722" stop-color="#83242D"/>
<stop offset="0.8561" stop-color="#612528"/>
<stop offset="1" stop-color="#432020"/>
</linearGradient>
<linearGradient id="paint6_linear_14_616" x1="19.8223" y1="25.7579" x2="2.71802" y2="8.4238" gradientUnits="userSpaceOnUse">
<stop stop-color="#CC0C31"/>
<stop offset="0.1164" stop-color="#C80E30"/>
<stop offset="0.2644" stop-color="#BA1330"/>
<stop offset="0.4288" stop-color="#A5182F"/>
<stop offset="0.4497" stop-color="#A2192F"/>
<stop offset="0.5307" stop-color="#9A1D2F"/>
<stop offset="0.6722" stop-color="#83242D"/>
<stop offset="0.8561" stop-color="#612528"/>
<stop offset="1" stop-color="#432020"/>
</linearGradient>
<radialGradient id="paint7_radial_14_616" cx="0" cy="0" r="1" gradientUnits="userSpaceOnUse" gradientTransform="translate(23.0741 9.15716) scale(17.1155 17.1155)">
<stop stop-color="#CC0C31"/>
<stop offset="0.1033" stop-color="#C80E30"/>
<stop offset="0.2346" stop-color="#BA1330"/>
<stop offset="0.3804" stop-color="#A5182F"/>
<stop offset="0.399" stop-color="#A2192F"/>
<stop offset="0.4874" stop-color="#9A1D2F"/>
<stop offset="0.642" stop-color="#83242D"/>
<stop offset="0.8429" stop-color="#612528"/>
<stop offset="1" stop-color="#432020"/>
</radialGradient>
<linearGradient id="paint8_linear_14_616" x1="23.228" y1="1.96013" x2="23.0322" y2="20.8626" gradientUnits="userSpaceOnUse">
<stop stop-color="#CC0C31" stop-opacity="0"/>
<stop offset="0.6497" stop-color="#70272A" stop-opacity="0.6497"/>
<stop offset="1" stop-color="#432020"/>
</linearGradient>
<linearGradient id="paint9_linear_14_616" x1="22.4468" y1="9.65308" x2="23.1049" y2="21.6904" gradientUnits="userSpaceOnUse">
<stop stop-color="#C90C31" stop-opacity="0"/>
<stop offset="0.0298" stop-color="#CC0C31" stop-opacity="0"/>
<stop offset="0.6601" stop-color="#70272A" stop-opacity="0.6497"/>
<stop offset="1" stop-color="#432020"/>
</linearGradient>
<linearGradient id="paint10_linear_14_616" x1="3.69967" y1="-3.07237" x2="19.9896" y2="14.5775" gradientUnits="userSpaceOnUse">
<stop stop-color="#432020"/>
<stop offset="0.3352" stop-color="#CC0C31" stop-opacity="0.6"/>
<stop offset="0.4357" stop-color="#C80E30" stop-opacity="0.7036"/>
<stop offset="0.5634" stop-color="#BA1330" stop-opacity="0.8351"/>
<stop offset="0.7054" stop-color="#A5182F" stop-opacity="0.9814"/>
<stop offset="0.7235" stop-color="#A2192F"/>
<stop offset="0.7641" stop-color="#9A1D2F"/>
<stop offset="0.8353" stop-color="#83242D"/>
<stop offset="0.9277" stop-color="#612528"/>
<stop offset="1" stop-color="#432020"/>
</linearGradient>
<linearGradient id="paint11_linear_14_616" x1="9.41874" y1="15.5017" x2="14.2148" y2="1.91302" gradientUnits="userSpaceOnUse">
<stop stop-color="#432020"/>
<stop offset="0.436" stop-color="#A2192F"/>
<stop offset="0.5678" stop-color="#AB1730"/>
<stop offset="0.7973" stop-color="#C31030"/>
<stop offset="0.8762" stop-color="#CC0C31"/>
</linearGradient>
<linearGradient id="paint12_linear_14_616" x1="24.6571" y1="-0.383616" x2="-2.68606" y2="14.5337" gradientUnits="userSpaceOnUse">
<stop stop-color="#CC0C31" stop-opacity="0"/>
<stop offset="0.6497" stop-color="#70272A" stop-opacity="0.6497"/>
<stop offset="1" stop-color="#432020"/>
</linearGradient>
<linearGradient id="paint13_linear_14_616" x1="25.9773" y1="-1.10474" x2="-2.70755" y2="14.5474" gradientUnits="userSpaceOnUse">
<stop stop-color="#C90C31" stop-opacity="0"/>
<stop offset="0.551" stop-color="#6F2328" stop-opacity="0.551"/>
<stop offset="1" stop-color="#2C1313"/>
</linearGradient>
<linearGradient id="paint14_linear_14_616" x1="42.4463" y1="-3.07237" x2="26.1541" y2="14.5775" gradientUnits="userSpaceOnUse">
<stop stop-color="#432020"/>
<stop offset="0.3352" stop-color="#CC0C31" stop-opacity="0.6"/>
<stop offset="0.4357" stop-color="#C80E30" stop-opacity="0.7036"/>
<stop offset="0.5634" stop-color="#BA1330" stop-opacity="0.8351"/>
<stop offset="0.7054" stop-color="#A5182F" stop-opacity="0.9814"/>
<stop offset="0.7235" stop-color="#A2192F"/>
<stop offset="0.7641" stop-color="#9A1D2F"/>
<stop offset="0.8353" stop-color="#83242D"/>
<stop offset="0.9277" stop-color="#612528"/>
<stop offset="1" stop-color="#432020"/>
</linearGradient>
<linearGradient id="paint15_linear_14_616" x1="36.726" y1="15.5017" x2="31.9317" y2="1.91302" gradientUnits="userSpaceOnUse">
<stop stop-color="#432020"/>
<stop offset="0.436" stop-color="#A2192F"/>
<stop offset="0.5678" stop-color="#AB1730"/>
<stop offset="0.7973" stop-color="#C31030"/>
<stop offset="0.8762" stop-color="#CC0C31"/>
</linearGradient>
<linearGradient id="paint16_linear_14_616" x1="21.4881" y1="-0.383616" x2="48.8324" y2="14.5338" gradientUnits="userSpaceOnUse">
<stop stop-color="#CC0C31" stop-opacity="0"/>
<stop offset="0.6497" stop-color="#70272A" stop-opacity="0.6497"/>
<stop offset="1" stop-color="#432020"/>
</linearGradient>
<linearGradient id="paint17_linear_14_616" x1="20.1697" y1="-1.10474" x2="48.8543" y2="14.5474" gradientUnits="userSpaceOnUse">
<stop stop-color="#C90C31" stop-opacity="0"/>
<stop offset="0.551" stop-color="#6F2328" stop-opacity="0.551"/>
<stop offset="1" stop-color="#2C1313"/>
</linearGradient>
<linearGradient id="paint18_linear_14_616" x1="14.8339" y1="19.4623" x2="31.1791" y2="19.4623" gradientUnits="userSpaceOnUse">
<stop stop-color="#1B1C2B"/>
<stop offset="0.1275" stop-color="#9BA1BC"/>
<stop offset="0.1755" stop-color="#A0A5C0"/>
<stop offset="0.2364" stop-color="#B0B4CA"/>
<stop offset="0.304" stop-color="#CACCDD"/>
<stop offset="0.3395" stop-color="#DBDCE8"/>
<stop offset="0.7277" stop-color="#DBDCE8"/>
<stop offset="0.7988" stop-color="#BCBFD3"/>
<stop offset="0.8656" stop-color="#9BA1BC"/>
<stop offset="0.8835" stop-color="#959AB5"/>
<stop offset="0.9062" stop-color="#8488A2"/>
<stop offset="0.9315" stop-color="#6A6D84"/>
<stop offset="0.9588" stop-color="#4A4C61"/>
<stop offset="0.9872" stop-color="#292A3B"/>
<stop offset="1" stop-color="#1B1C2B"/>
</linearGradient>
<linearGradient id="paint19_linear_14_616" x1="15.5906" y1="19.1546" x2="30.3253" y2="19.1546" gradientUnits="userSpaceOnUse">
<stop stop-color="#9BA1BC"/>
<stop offset="0.3367" stop-color="#F2F1F5"/>
<stop offset="0.7096" stop-color="#F2F1F5"/>
<stop offset="0.7641" stop-color="#ECECF1"/>
<stop offset="0.8333" stop-color="#DCDCE6"/>
<stop offset="0.9105" stop-color="#C2C4D5"/>
<stop offset="0.993" stop-color="#9EA3BE"/>
<stop offset="1" stop-color="#9BA1BC"/>
</linearGradient>
<linearGradient id="paint20_linear_14_616" x1="2.92359" y1="7.55236" x2="23.7287" y2="40.5458" gradientUnits="userSpaceOnUse">
<stop offset="0.1743" stop-color="#F2F1F5"/>
<stop offset="0.2626" stop-color="#ECECF1"/>
<stop offset="0.3748" stop-color="#DCDCE6"/>
<stop offset="0.5" stop-color="#C2C4D5"/>
<stop offset="0.6336" stop-color="#9EA3BE"/>
<stop offset="0.6449" stop-color="#9BA1BC"/>
<stop offset="0.661" stop-color="#8F94AE"/>
<stop offset="0.6892" stop-color="#72748D"/>
<stop offset="0.7261" stop-color="#47495E"/>
<stop offset="0.7698" stop-color="#1C1D2C"/>
<stop offset="0.771" stop-color="#1B1C2B"/>
</linearGradient>
<linearGradient id="paint21_linear_14_616" x1="2.69736" y1="7.69505" x2="23.5025" y2="40.6885" gradientUnits="userSpaceOnUse">
<stop offset="0.1985" stop-color="#F2F1F5"/>
<stop offset="0.2444" stop-color="#ECECF1" stop-opacity="0.8499"/>
<stop offset="0.3027" stop-color="#DCDCE6" stop-opacity="0.6592"/>
<stop offset="0.3677" stop-color="#C2C4D5" stop-opacity="0.4464"/>
<stop offset="0.4372" stop-color="#9EA3BE" stop-opacity="0.2192"/>
<stop offset="0.4431" stop-color="#9BA1BC" stop-opacity="0.2"/>
<stop offset="0.6146" stop-color="#9BA1BC"/>
<stop offset="0.6486" stop-color="#8F94AE"/>
<stop offset="0.708" stop-color="#72748D"/>
<stop offset="0.7858" stop-color="#47495E"/>
<stop offset="0.8782" stop-color="#1C1D2C"/>
<stop offset="0.8807" stop-color="#1B1C2B"/>
</linearGradient>
<linearGradient id="paint22_linear_14_616" x1="6.30202" y1="13.2349" x2="22.5391" y2="38.9842" gradientUnits="userSpaceOnUse">
<stop offset="0.0745" stop-color="#F2F1F5"/>
<stop offset="0.4087" stop-color="#F2F1F5" stop-opacity="0.7"/>
<stop offset="0.4601" stop-color="#ECECF1" stop-opacity="0.5687"/>
<stop offset="0.5254" stop-color="#DCDCE6" stop-opacity="0.4018"/>
<stop offset="0.5982" stop-color="#C2C4D5" stop-opacity="0.2156"/>
<stop offset="0.676" stop-color="#9EA3BE" stop-opacity="0.0168"/>
<stop offset="0.6826" stop-color="#9BA1BC" stop-opacity="0"/>
</linearGradient>
<linearGradient id="paint23_linear_14_616" x1="2.67913" y1="12.2996" x2="23.3157" y2="39.8961" gradientUnits="userSpaceOnUse">
<stop offset="0.253" stop-color="#F2F1F5"/>
<stop offset="0.4732" stop-color="#F2F1F5"/>
<stop offset="0.5493" stop-color="#E7E7EE"/>
<stop offset="0.68" stop-color="#CBCCDC"/>
<stop offset="0.8484" stop-color="#9FA4BF"/>
<stop offset="0.8639" stop-color="#9BA1BC"/>
</linearGradient>
<linearGradient id="paint24_linear_14_616" x1="1.89446" y1="11.6992" x2="19.9048" y2="35.7837" gradientUnits="userSpaceOnUse">
<stop offset="0.1837" stop-color="#F2F1F5"/>
<stop offset="0.4027" stop-color="#F2F1F5" stop-opacity="0.6"/>
<stop offset="0.4853" stop-color="#ECECF1" stop-opacity="0.675"/>
<stop offset="0.5903" stop-color="#DCDCE6" stop-opacity="0.7704"/>
<stop offset="0.7075" stop-color="#C2C4D5" stop-opacity="0.8768"/>
<stop offset="0.8326" stop-color="#9EA3BE" stop-opacity="0.9904"/>
<stop offset="0.8431" stop-color="#9BA1BC"/>
<stop offset="0.8632" stop-color="#8F94AE"/>
<stop offset="0.8982" stop-color="#72748D"/>
<stop offset="0.9441" stop-color="#47495E"/>
<stop offset="0.9985" stop-color="#1C1D2C"/>
<stop offset="1" stop-color="#1B1C2B"/>
</linearGradient>
<linearGradient id="paint25_linear_14_616" x1="2.12453" y1="12.708" x2="20.2636" y2="36.9646" gradientUnits="userSpaceOnUse">
<stop offset="0.253" stop-color="#F2F1F5"/>
<stop offset="0.347" stop-color="#ECECF1" stop-opacity="0.9625"/>
<stop offset="0.4664" stop-color="#DCDCE6" stop-opacity="0.9148"/>
<stop offset="0.5996" stop-color="#C2C4D5" stop-opacity="0.8616"/>
<stop offset="0.7418" stop-color="#9EA3BE" stop-opacity="0.8048"/>
<stop offset="0.7538" stop-color="#9BA1BC" stop-opacity="0.8"/>
</linearGradient>
<linearGradient id="paint26_linear_14_616" x1="1.1445" y1="17.8225" x2="43.7948" y2="54.8202" gradientUnits="userSpaceOnUse">
<stop stop-color="#F2F1F5"/>
<stop offset="0.0844" stop-color="#ECECF1"/>
<stop offset="0.1916" stop-color="#DCDCE6"/>
<stop offset="0.3112" stop-color="#C2C4D5"/>
<stop offset="0.4389" stop-color="#9EA3BE"/>
<stop offset="0.4497" stop-color="#9BA1BC"/>
<stop offset="0.52" stop-color="#8F94AE"/>
<stop offset="0.6429" stop-color="#72748D"/>
<stop offset="0.8038" stop-color="#47495E"/>
<stop offset="0.9948" stop-color="#1C1D2C"/>
<stop offset="1" stop-color="#1B1C2B"/>
</linearGradient>
<linearGradient id="paint27_linear_14_616" x1="1.12221" y1="18.04" x2="26.2082" y2="39.8013" gradientUnits="userSpaceOnUse">
<stop offset="0.1502" stop-color="#F2F1F5"/>
<stop offset="0.2158" stop-color="#ECECF1"/>
<stop offset="0.2992" stop-color="#DCDCE6"/>
<stop offset="0.3922" stop-color="#C2C4D5"/>
<stop offset="0.4915" stop-color="#9EA3BE"/>
<stop offset="0.4999" stop-color="#9BA1BC"/>
<stop offset="0.5638" stop-color="#8F94AE"/>
<stop offset="0.6755" stop-color="#72748D"/>
<stop offset="0.8217" stop-color="#47495E"/>
<stop offset="0.9952" stop-color="#1C1D2C"/>
<stop offset="1" stop-color="#1B1C2B"/>
</linearGradient>
<linearGradient id="paint28_linear_14_616" x1="0.0478626" y1="5.23919" x2="46.0839" y2="5.23919" gradientUnits="userSpaceOnUse">
<stop stop-color="#9BA1BC"/>
<stop offset="0.0359" stop-color="#B3B6CC"/>
<stop offset="0.094" stop-color="#D5D5E2"/>
<stop offset="0.1422" stop-color="#EAEAF0"/>
<stop offset="0.174" stop-color="#F2F1F5"/>
<stop offset="0.2613" stop-color="#ECECF1"/>
<stop offset="0.3722" stop-color="#DCDCE6"/>
<stop offset="0.4954" stop-color="#C2C4D5"/>
<stop offset="0.5009" stop-color="#C1C2D5"/>
<stop offset="0.5334" stop-color="#C9CADA"/>
<stop offset="0.637" stop-color="#DFDFE9"/>
<stop offset="0.7364" stop-color="#EDEDF2"/>
<stop offset="0.8259" stop-color="#F2F1F5"/>
<stop offset="0.8586" stop-color="#ECECF1"/>
<stop offset="0.9001" stop-color="#DCDCE6"/>
<stop offset="0.9464" stop-color="#C2C4D5"/>
<stop offset="0.9958" stop-color="#9EA3BE"/>
<stop offset="1" stop-color="#9BA1BC"/>
</linearGradient>
<linearGradient id="paint29_linear_14_616" x1="46.0839" y1="5.65477" x2="0.0478643" y2="5.65477" gradientUnits="userSpaceOnUse">
<stop offset="0.0898" stop-color="#9BA1BC"/>
<stop offset="0.3558" stop-color="#F2F1F5"/>
<stop offset="0.7124" stop-color="#F2F1F5"/>
<stop offset="0.7479" stop-color="#ECECF1"/>
<stop offset="0.7931" stop-color="#DCDCE6"/>
<stop offset="0.8435" stop-color="#C2C4D5"/>
<stop offset="0.8973" stop-color="#9EA3BE"/>
<stop offset="0.9019" stop-color="#9BA1BC"/>
</linearGradient>
<linearGradient id="paint30_linear_14_616" x1="0.478115" y1="11.814" x2="14.2951" y2="18.7035" gradientUnits="userSpaceOnUse">
<stop offset="0.2729" stop-color="#9BA1BC"/>
<stop offset="0.6731" stop-color="#DBDCE8"/>
</linearGradient>
<linearGradient id="paint31_linear_14_616" x1="43.2083" y1="7.55172" x2="22.4025" y2="40.5461" gradientUnits="userSpaceOnUse">
<stop offset="0.1743" stop-color="#F2F1F5"/>
<stop offset="0.2626" stop-color="#ECECF1"/>
<stop offset="0.3748" stop-color="#DCDCE6"/>
<stop offset="0.5" stop-color="#C2C4D5"/>
<stop offset="0.6336" stop-color="#9EA3BE"/>
<stop offset="0.6449" stop-color="#9BA1BC"/>
<stop offset="0.661" stop-color="#8F94AE"/>
<stop offset="0.6892" stop-color="#72748D"/>
<stop offset="0.7261" stop-color="#47495E"/>
<stop offset="0.7698" stop-color="#1C1D2C"/>
<stop offset="0.771" stop-color="#1B1C2B"/>
</linearGradient>
<linearGradient id="paint32_linear_14_616" x1="43.4337" y1="7.69442" x2="22.628" y2="40.6888" gradientUnits="userSpaceOnUse">
<stop offset="0.1985" stop-color="#F2F1F5"/>
<stop offset="0.2444" stop-color="#ECECF1" stop-opacity="0.8499"/>
<stop offset="0.3027" stop-color="#DCDCE6" stop-opacity="0.6592"/>
<stop offset="0.3677" stop-color="#C2C4D5" stop-opacity="0.4464"/>
<stop offset="0.4372" stop-color="#9EA3BE" stop-opacity="0.2192"/>
<stop offset="0.4431" stop-color="#9BA1BC" stop-opacity="0.2"/>
<stop offset="0.6146" stop-color="#9BA1BC"/>
<stop offset="0.6486" stop-color="#8F94AE"/>
<stop offset="0.708" stop-color="#72748D"/>
<stop offset="0.7858" stop-color="#47495E"/>
<stop offset="0.8782" stop-color="#1C1D2C"/>
<stop offset="0.8807" stop-color="#1B1C2B"/>
</linearGradient>
<linearGradient id="paint33_linear_14_616" x1="39.8293" y1="13.2349" x2="23.5925" y2="38.9842" gradientUnits="userSpaceOnUse">
<stop offset="0.0745" stop-color="#F2F1F5"/>
<stop offset="0.4087" stop-color="#F2F1F5" stop-opacity="0.7"/>
<stop offset="0.4601" stop-color="#ECECF1" stop-opacity="0.5687"/>
<stop offset="0.5254" stop-color="#DCDCE6" stop-opacity="0.4018"/>
<stop offset="0.5982" stop-color="#C2C4D5" stop-opacity="0.2156"/>
<stop offset="0.676" stop-color="#9EA3BE" stop-opacity="0.0168"/>
<stop offset="0.6826" stop-color="#9BA1BC" stop-opacity="0"/>
</linearGradient>
<linearGradient id="paint34_linear_14_616" x1="43.4525" y1="12.2996" x2="22.8159" y2="39.8961" gradientUnits="userSpaceOnUse">
<stop offset="0.253" stop-color="#F2F1F5"/>
<stop offset="0.4732" stop-color="#F2F1F5"/>
<stop offset="0.5493" stop-color="#E7E7EE"/>
<stop offset="0.68" stop-color="#CBCCDC"/>
<stop offset="0.8484" stop-color="#9FA4BF"/>
<stop offset="0.8639" stop-color="#9BA1BC"/>
</linearGradient>
<linearGradient id="paint35_linear_14_616" x1="44.2354" y1="11.6992" x2="26.2262" y2="35.7837" gradientUnits="userSpaceOnUse">
<stop offset="0.1837" stop-color="#F2F1F5"/>
<stop offset="0.4027" stop-color="#F2F1F5" stop-opacity="0.6"/>
<stop offset="0.4853" stop-color="#ECECF1" stop-opacity="0.675"/>
<stop offset="0.5903" stop-color="#DCDCE6" stop-opacity="0.7704"/>
<stop offset="0.7075" stop-color="#C2C4D5" stop-opacity="0.8768"/>
<stop offset="0.8326" stop-color="#9EA3BE" stop-opacity="0.9904"/>
<stop offset="0.8431" stop-color="#9BA1BC"/>
<stop offset="0.8632" stop-color="#8F94AE"/>
<stop offset="0.8982" stop-color="#72748D"/>
<stop offset="0.9441" stop-color="#47495E"/>
<stop offset="0.9985" stop-color="#1C1D2C"/>
<stop offset="1" stop-color="#1B1C2B"/>
</linearGradient>
<linearGradient id="paint36_linear_14_616" x1="44.0067" y1="12.708" x2="25.866" y2="36.9646" gradientUnits="userSpaceOnUse">
<stop offset="0.253" stop-color="#F2F1F5"/>
<stop offset="0.347" stop-color="#ECECF1" stop-opacity="0.9625"/>
<stop offset="0.4664" stop-color="#DCDCE6" stop-opacity="0.9148"/>
<stop offset="0.5996" stop-color="#C2C4D5" stop-opacity="0.8616"/>
<stop offset="0.7418" stop-color="#9EA3BE" stop-opacity="0.8048"/>
<stop offset="0.7538" stop-color="#9BA1BC" stop-opacity="0.8"/>
</linearGradient>
<linearGradient id="paint37_linear_14_616" x1="44.9869" y1="17.8225" x2="2.33599" y2="54.8202" gradientUnits="userSpaceOnUse">
<stop stop-color="#F2F1F5"/>
<stop offset="0.0844" stop-color="#ECECF1"/>
<stop offset="0.1916" stop-color="#DCDCE6"/>
<stop offset="0.3112" stop-color="#C2C4D5"/>
<stop offset="0.4389" stop-color="#9EA3BE"/>
<stop offset="0.4497" stop-color="#9BA1BC"/>
<stop offset="0.52" stop-color="#8F94AE"/>
<stop offset="0.6429" stop-color="#72748D"/>
<stop offset="0.8038" stop-color="#47495E"/>
<stop offset="0.9948" stop-color="#1C1D2C"/>
<stop offset="1" stop-color="#1B1C2B"/>
</linearGradient>
<linearGradient id="paint38_linear_14_616" x1="45.0089" y1="18.04" x2="19.9224" y2="39.8013" gradientUnits="userSpaceOnUse">
<stop offset="0.1502" stop-color="#F2F1F5"/>
<stop offset="0.2158" stop-color="#ECECF1"/>
<stop offset="0.2992" stop-color="#DCDCE6"/>
<stop offset="0.3922" stop-color="#C2C4D5"/>
<stop offset="0.4915" stop-color="#9EA3BE"/>
<stop offset="0.4999" stop-color="#9BA1BC"/>
<stop offset="0.5638" stop-color="#8F94AE"/>
<stop offset="0.6755" stop-color="#72748D"/>
<stop offset="0.8217" stop-color="#47495E"/>
<stop offset="0.9952" stop-color="#1C1D2C"/>
<stop offset="1" stop-color="#1B1C2B"/>
</linearGradient>
<linearGradient id="paint39_linear_14_616" x1="45.654" y1="11.8137" x2="31.8346" y2="18.7036" gradientUnits="userSpaceOnUse">
<stop offset="0.2729" stop-color="#9BA1BC"/>
<stop offset="0.6731" stop-color="#DBDCE8"/>
</linearGradient>
<radialGradient id="paint40_radial_14_616" cx="0" cy="0" r="1" gradientUnits="userSpaceOnUse" gradientTransform="translate(21.9122 63.8466) scale(17.4048 15.6575)">
<stop stop-color="#F2F1F5"/>
<stop offset="0.0928" stop-color="#ECECF1"/>
<stop offset="0.2108" stop-color="#DCDCE6"/>
<stop offset="0.3424" stop-color="#C2C4D5"/>
<stop offset="0.483" stop-color="#9EA3BE"/>
<stop offset="0.4949" stop-color="#9BA1BC"/>
<stop offset="0.542" stop-color="#8F94AE"/>
<stop offset="0.6244" stop-color="#72748D"/>
<stop offset="0.7324" stop-color="#47495E"/>
<stop offset="0.8604" stop-color="#1C1D2C"/>
<stop offset="0.864" stop-color="#1B1C2B"/>
</radialGradient>
<radialGradient id="paint41_radial_14_616" cx="0" cy="0" r="1" gradientUnits="userSpaceOnUse" gradientTransform="translate(22.8008 69.149) scale(18.8333 16.9425)">
<stop stop-color="#F2F1F5"/>
<stop offset="0.0928" stop-color="#ECECF1"/>
<stop offset="0.2108" stop-color="#DCDCE6"/>
<stop offset="0.3424" stop-color="#C2C4D5"/>
<stop offset="0.483" stop-color="#9EA3BE"/>
<stop offset="0.4949" stop-color="#9BA1BC"/>
<stop offset="0.542" stop-color="#8F94AE"/>
<stop offset="0.6244" stop-color="#72748D"/>
<stop offset="0.7324" stop-color="#47495E"/>
<stop offset="0.8604" stop-color="#1C1D2C"/>
<stop offset="0.864" stop-color="#1B1C2B"/>
</radialGradient>
<linearGradient id="paint42_linear_14_616" x1="0.243745" y1="44.1312" x2="26.8882" y2="58.7094" gradientUnits="userSpaceOnUse">
<stop stop-color="#F2F1F5"/>
<stop offset="0.0777" stop-color="#ECECF1"/>
<stop offset="0.1765" stop-color="#DCDCE6"/>
<stop offset="0.2866" stop-color="#C2C4D5"/>
<stop offset="0.4042" stop-color="#9EA3BE"/>
<stop offset="0.4142" stop-color="#9BA1BC"/>
<stop offset="0.4651" stop-color="#8F94AE"/>
<stop offset="0.5543" stop-color="#72748D"/>
<stop offset="0.671" stop-color="#47495E"/>
<stop offset="0.8094" stop-color="#1C1D2C"/>
<stop offset="0.8132" stop-color="#1B1C2B"/>
</linearGradient>
<linearGradient id="paint43_linear_14_616" x1="6.71565" y1="45.3884" x2="27.9551" y2="61.1467" gradientUnits="userSpaceOnUse">
<stop stop-color="#F2F1F5" stop-opacity="0.2"/>
<stop offset="0.1312" stop-color="#EDECF2" stop-opacity="0.5043"/>
<stop offset="0.2975" stop-color="#DDDEE9" stop-opacity="0.8904"/>
<stop offset="0.312" stop-color="#DBDCE8" stop-opacity="0.9239"/>
<stop offset="0.7059" stop-color="#DBDCE8" stop-opacity="0.92"/>
<stop offset="0.7921" stop-color="#CCCEDE" stop-opacity="0.8555"/>
<stop offset="0.9561" stop-color="#A6ABC4" stop-opacity="0.7329"/>
<stop offset="1" stop-color="#9BA1BC" stop-opacity="0.7"/>
</linearGradient>
<linearGradient id="paint44_linear_14_616" x1="6.83346" y1="56.4821" x2="19.6428" y2="56.7676" gradientUnits="userSpaceOnUse">
<stop offset="0.0133" stop-color="#9BA1BC"/>
<stop offset="0.5668" stop-color="#F2F1F5"/>
<stop offset="0.5698" stop-color="#F2F1F5"/>
<stop offset="0.6505" stop-color="#ECECF1"/>
<stop offset="0.7531" stop-color="#DCDCE6"/>
<stop offset="0.8675" stop-color="#C2C4D5"/>
<stop offset="0.9897" stop-color="#9EA3BE"/>
<stop offset="1" stop-color="#9BA1BC"/>
</linearGradient>
<linearGradient id="paint45_linear_14_616" x1="16.738" y1="52.6222" x2="16.738" y2="62.0198" gradientUnits="userSpaceOnUse">
<stop stop-color="#F2F1F5" stop-opacity="0"/>
<stop offset="0.1012" stop-color="#ECECF1" stop-opacity="0.1876"/>
<stop offset="0.2297" stop-color="#DCDCE6" stop-opacity="0.4261"/>
<stop offset="0.3731" stop-color="#C2C4D5" stop-opacity="0.692"/>
<stop offset="0.5263" stop-color="#9EA3BE" stop-opacity="0.976"/>
<stop offset="0.5392" stop-color="#9BA1BC"/>
<stop offset="0.5807" stop-color="#8F94AE"/>
<stop offset="0.6532" stop-color="#72748D"/>
<stop offset="0.7482" stop-color="#47495E"/>
<stop offset="0.8609" stop-color="#1C1D2C"/>
<stop offset="0.864" stop-color="#1B1C2B"/>
</linearGradient>
<linearGradient id="paint46_linear_14_616" x1="11.2948" y1="53.7427" x2="21.9548" y2="57.5363" gradientUnits="userSpaceOnUse">
<stop offset="0.0976" stop-color="#F2F1F5"/>
<stop offset="0.2669" stop-color="#ECECF1" stop-opacity="0.9437"/>
<stop offset="0.4821" stop-color="#DCDCE6" stop-opacity="0.8722"/>
<stop offset="0.722" stop-color="#C2C4D5" stop-opacity="0.7924"/>
<stop offset="0.9784" stop-color="#9EA3BE" stop-opacity="0.7072"/>
<stop offset="1" stop-color="#9BA1BC" stop-opacity="0.7"/>
</linearGradient>
<linearGradient id="paint47_linear_14_616" x1="16.532" y1="52.6566" x2="16.532" y2="59.5791" gradientUnits="userSpaceOnUse">
<stop stop-color="#9BA1BC"/>
<stop offset="0.2752" stop-color="#F2F1F5"/>
<stop offset="0.2767" stop-color="#F2F1F5"/>
<stop offset="0.3551" stop-color="#ECECF1"/>
<stop offset="0.4547" stop-color="#DCDCE6"/>
<stop offset="0.5657" stop-color="#C2C4D5"/>
<stop offset="0.6844" stop-color="#9EA3BE"/>
<stop offset="0.6944" stop-color="#9BA1BC"/>
<stop offset="1" stop-color="#9BA1BC" stop-opacity="0"/>
</linearGradient>
<linearGradient id="paint48_linear_14_616" x1="3.50707" y1="41.9518" x2="23.3393" y2="58.1847" gradientUnits="userSpaceOnUse">
<stop stop-color="#9BA1BC" stop-opacity="0"/>
<stop offset="0.3253" stop-color="#F2F1F5" stop-opacity="0.5"/>
<stop offset="0.4018" stop-color="#ECECF1" stop-opacity="0.5938"/>
<stop offset="0.499" stop-color="#DCDCE6" stop-opacity="0.713"/>
<stop offset="0.6075" stop-color="#C2C4D5" stop-opacity="0.846"/>
<stop offset="0.7233" stop-color="#9EA3BE" stop-opacity="0.988"/>
<stop offset="0.7331" stop-color="#9BA1BC"/>
<stop offset="0.7672" stop-color="#8F94AE"/>
<stop offset="0.8268" stop-color="#72748D"/>
<stop offset="0.9048" stop-color="#47495E"/>
<stop offset="0.9975" stop-color="#1C1D2C"/>
<stop offset="1" stop-color="#1B1C2B"/>
</linearGradient>
<linearGradient id="paint49_linear_14_616" x1="-0.295709" y1="39.8781" x2="14.9417" y2="51.6009" gradientUnits="userSpaceOnUse">
<stop offset="0.0133" stop-color="#9BA1BC"/>
<stop offset="0.5668" stop-color="#F2F1F5"/>
<stop offset="0.5698" stop-color="#F2F1F5"/>
<stop offset="0.6505" stop-color="#ECECF1"/>
<stop offset="0.7531" stop-color="#DCDCE6"/>
<stop offset="0.8675" stop-color="#C2C4D5"/>
<stop offset="0.9897" stop-color="#9EA3BE"/>
<stop offset="1" stop-color="#9BA1BC"/>
</linearGradient>
<linearGradient id="paint50_linear_14_616" x1="5.00396" y1="42.9161" x2="19.5224" y2="54.0859" gradientUnits="userSpaceOnUse">
<stop offset="0.0133" stop-color="#9BA1BC" stop-opacity="0.6"/>
<stop offset="0.4024" stop-color="#F2F1F5" stop-opacity="0.4011"/>
<stop offset="0.4045" stop-color="#F2F1F5" stop-opacity="0.4"/>
<stop offset="0.4639" stop-color="#ECECF1" stop-opacity="0.475"/>
<stop offset="0.5393" stop-color="#DCDCE6" stop-opacity="0.5704"/>
<stop offset="0.6234" stop-color="#C2C4D5" stop-opacity="0.6768"/>
<stop offset="0.7133" stop-color="#9EA3BE" stop-opacity="0.7904"/>
<stop offset="0.7209" stop-color="#9BA1BC" stop-opacity="0.8"/>
<stop offset="0.7911" stop-color="#A6AAC3" stop-opacity="0.6741"/>
<stop offset="0.9135" stop-color="#C3C5D7" stop-opacity="0.4549"/>
<stop offset="1" stop-color="#DBDCE8" stop-opacity="0.3"/>
</linearGradient>
<linearGradient id="paint51_linear_14_616" x1="-5.22608" y1="25.9874" x2="26.1193" y2="43.7441" gradientUnits="userSpaceOnUse">
<stop stop-color="#F2F1F5"/>
<stop offset="0.0777" stop-color="#ECECF1"/>
<stop offset="0.1765" stop-color="#DCDCE6"/>
<stop offset="0.2866" stop-color="#C2C4D5"/>
<stop offset="0.4042" stop-color="#9EA3BE"/>
<stop offset="0.4142" stop-color="#9BA1BC"/>
<stop offset="0.4651" stop-color="#8F94AE"/>
<stop offset="0.5543" stop-color="#72748D"/>
<stop offset="0.671" stop-color="#47495E"/>
<stop offset="0.8094" stop-color="#1C1D2C"/>
<stop offset="0.8132" stop-color="#1B1C2B"/>
</linearGradient>
<linearGradient id="paint52_linear_14_616" x1="-0.137055" y1="42.5041" x2="19.278" y2="42.5041" gradientUnits="userSpaceOnUse">
<stop offset="0.014" stop-color="#9BA1BC"/>
<stop offset="0.3587" stop-color="#F2F1F5"/>
<stop offset="0.3606" stop-color="#F2F1F5"/>
<stop offset="0.4805" stop-color="#ECECF1" stop-opacity="0.8874"/>
<stop offset="0.633" stop-color="#DCDCE6" stop-opacity="0.7444"/>
<stop offset="0.803" stop-color="#C2C4D5" stop-opacity="0.5848"/>
<stop offset="0.9847" stop-color="#9EA3BE" stop-opacity="0.4144"/>
<stop offset="1" stop-color="#9BA1BC" stop-opacity="0.4"/>
</linearGradient>
<linearGradient id="paint53_linear_14_616" x1="3.68822" y1="22.9415" x2="25.3463" y2="48.1396" gradientUnits="userSpaceOnUse">
<stop stop-color="#F2F1F5" stop-opacity="0.2"/>
<stop offset="0.1312" stop-color="#EDECF2" stop-opacity="0.5043"/>
<stop offset="0.2975" stop-color="#DDDEE9" stop-opacity="0.8904"/>
<stop offset="0.312" stop-color="#DBDCE8" stop-opacity="0.9239"/>
<stop offset="0.704" stop-color="#DBDCE8" stop-opacity="0.8"/>
<stop offset="0.7908" stop-color="#CCCEDE" stop-opacity="0.5654"/>
<stop offset="0.9558" stop-color="#A6ABC4" stop-opacity="0.1195"/>
<stop offset="1" stop-color="#9BA1BC" stop-opacity="0"/>
</linearGradient>
<linearGradient id="paint54_linear_14_616" x1="7.47891" y1="36.1204" x2="25.9016" y2="50.9651" gradientUnits="userSpaceOnUse">
<stop offset="0.0995" stop-color="#9BA1BC" stop-opacity="0.6"/>
<stop offset="0.1831" stop-color="#BEC0D3" stop-opacity="0.6567"/>
<stop offset="0.2668" stop-color="#DADAE5" stop-opacity="0.7135"/>
<stop offset="0.3401" stop-color="#ECEBF1" stop-opacity="0.7632"/>
<stop offset="0.3944" stop-color="#F2F1F5" stop-opacity="0.8"/>
<stop offset="0.4841" stop-color="#A29EA9" stop-opacity="0.8468"/>
<stop offset="0.5871" stop-color="#5E5A69" stop-opacity="0.9004"/>
<stop offset="0.674" stop-color="#353544" stop-opacity="0.9457"/>
<stop offset="0.7403" stop-color="#212231" stop-opacity="0.9803"/>
<stop offset="0.7781" stop-color="#1B1C2B"/>
</linearGradient>
<linearGradient id="paint55_linear_14_616" x1="8.47394" y1="36.8536" x2="22.5765" y2="47.6159" gradientUnits="userSpaceOnUse">
<stop offset="0.1567" stop-color="#F2F1F5" stop-opacity="0.2"/>
<stop offset="0.4465" stop-color="#F2F1F5" stop-opacity="0.9"/>
</linearGradient>
<linearGradient id="paint56_linear_14_616" x1="11.315" y1="37.5017" x2="16.9105" y2="44.9241" gradientUnits="userSpaceOnUse">
<stop stop-color="#9BA1BC"/>
<stop offset="0.2752" stop-color="#F2F1F5" stop-opacity="0.6022"/>
<stop offset="0.2767" stop-color="#F2F1F5" stop-opacity="0.6"/>
<stop offset="0.3551" stop-color="#ECECF1" stop-opacity="0.675"/>
<stop offset="0.4547" stop-color="#DCDCE6" stop-opacity="0.7704"/>
<stop offset="0.5657" stop-color="#C2C4D5" stop-opacity="0.8768"/>
<stop offset="0.6844" stop-color="#9EA3BE" stop-opacity="0.9904"/>
<stop offset="0.6944" stop-color="#9BA1BC"/>
<stop offset="1" stop-color="#9BA1BC" stop-opacity="0"/>
</linearGradient>
<linearGradient id="paint57_linear_14_616" x1="21.5125" y1="43.5172" x2="0.691687" y2="21.0977" gradientUnits="userSpaceOnUse">
<stop stop-color="#9BA1BC"/>
<stop offset="0.0354" stop-color="#B1B4CA" stop-opacity="0.9397"/>
<stop offset="0.1089" stop-color="#EBEAF0" stop-opacity="0.8142"/>
<stop offset="0.1172" stop-color="#F2F1F5" stop-opacity="0.8"/>
<stop offset="0.379" stop-color="#F2F1F5" stop-opacity="0.8"/>
<stop offset="0.4219" stop-color="#ECECF1" stop-opacity="0.8375"/>
<stop offset="0.4764" stop-color="#DCDCE6" stop-opacity="0.8852"/>
<stop offset="0.5371" stop-color="#C2C4D5" stop-opacity="0.9384"/>
<stop offset="0.602" stop-color="#9EA3BE" stop-opacity="0.9952"/>
<stop offset="0.6075" stop-color="#9BA1BC"/>
</linearGradient>
<linearGradient id="paint58_linear_14_616" x1="23.7859" y1="43.941" x2="-0.232258" y2="22.3971" gradientUnits="userSpaceOnUse">
<stop offset="0.4031" stop-color="#F2F1F5" stop-opacity="0.4"/>
<stop offset="0.4627" stop-color="#ECECF1" stop-opacity="0.475"/>
<stop offset="0.5385" stop-color="#DCDCE6" stop-opacity="0.5704"/>
<stop offset="0.623" stop-color="#C2C4D5" stop-opacity="0.6768"/>
<stop offset="0.7132" stop-color="#9EA3BE" stop-opacity="0.7904"/>
<stop offset="0.7209" stop-color="#9BA1BC" stop-opacity="0.8"/>
<stop offset="0.7896" stop-color="#A6AAC3" stop-opacity="0.8504"/>
<stop offset="0.9092" stop-color="#C3C5D7" stop-opacity="0.938"/>
<stop offset="0.9938" stop-color="#DBDCE8"/>
</linearGradient>
<linearGradient id="paint59_linear_14_616" x1="4.58269" y1="25.9403" x2="29.9329" y2="47.941" gradientUnits="userSpaceOnUse">
<stop stop-color="#F2F1F5" stop-opacity="0"/>
<stop offset="0.0944" stop-color="#ECEBF1" stop-opacity="0.1907"/>
<stop offset="0.2144" stop-color="#DCDBE5" stop-opacity="0.4332"/>
<stop offset="0.3481" stop-color="#C1C1D1" stop-opacity="0.7035"/>
<stop offset="0.4911" stop-color="#9E9FB8" stop-opacity="0.9923"/>
<stop offset="0.4949" stop-color="#9D9EB7"/>
<stop offset="0.5414" stop-color="#9191A9"/>
<stop offset="0.6228" stop-color="#747288"/>
<stop offset="0.7294" stop-color="#4A485B"/>
<stop offset="0.8558" stop-color="#1E1D2A"/>
<stop offset="0.864" stop-color="#1B1B27"/>
</linearGradient>
<linearGradient id="paint60_linear_14_616" x1="45.8855" y1="44.1312" x2="19.2427" y2="58.7094" gradientUnits="userSpaceOnUse">
<stop stop-color="#F2F1F5"/>
<stop offset="0.0777" stop-color="#ECECF1"/>
<stop offset="0.1765" stop-color="#DCDCE6"/>
<stop offset="0.2866" stop-color="#C2C4D5"/>
<stop offset="0.4042" stop-color="#9EA3BE"/>
<stop offset="0.4142" stop-color="#9BA1BC"/>
<stop offset="0.4651" stop-color="#8F94AE"/>
<stop offset="0.5543" stop-color="#72748D"/>
<stop offset="0.671" stop-color="#47495E"/>
<stop offset="0.8094" stop-color="#1C1D2C"/>
<stop offset="0.8132" stop-color="#1B1C2B"/>
</linearGradient>
<linearGradient id="paint61_linear_14_616" x1="39.4159" y1="45.3884" x2="18.175" y2="61.1467" gradientUnits="userSpaceOnUse">
<stop stop-color="#F2F1F5" stop-opacity="0.2"/>
<stop offset="0.1312" stop-color="#EDECF2" stop-opacity="0.5043"/>
<stop offset="0.2975" stop-color="#DDDEE9" stop-opacity="0.8904"/>
<stop offset="0.312" stop-color="#DBDCE8" stop-opacity="0.9239"/>
<stop offset="0.7059" stop-color="#DBDCE8" stop-opacity="0.92"/>
<stop offset="0.7921" stop-color="#CCCEDE" stop-opacity="0.8555"/>
<stop offset="0.9561" stop-color="#A6ABC4" stop-opacity="0.7329"/>
<stop offset="1" stop-color="#9BA1BC" stop-opacity="0.7"/>
</linearGradient>
<linearGradient id="paint62_linear_14_616" x1="39.2969" y1="56.4821" x2="26.489" y2="56.7676" gradientUnits="userSpaceOnUse">
<stop offset="0.0133" stop-color="#9BA1BC"/>
<stop offset="0.5668" stop-color="#F2F1F5"/>
<stop offset="0.5698" stop-color="#F2F1F5"/>
<stop offset="0.6505" stop-color="#ECECF1"/>
<stop offset="0.7531" stop-color="#DCDCE6"/>
<stop offset="0.8675" stop-color="#C2C4D5"/>
<stop offset="0.9897" stop-color="#9EA3BE"/>
<stop offset="1" stop-color="#9BA1BC"/>
</linearGradient>
<linearGradient id="paint63_linear_14_616" x1="29.3921" y1="52.6222" x2="29.3921" y2="62.0198" gradientUnits="userSpaceOnUse">
<stop stop-color="#F2F1F5" stop-opacity="0"/>
<stop offset="0.1012" stop-color="#ECECF1" stop-opacity="0.1876"/>
<stop offset="0.2297" stop-color="#DCDCE6" stop-opacity="0.4261"/>
<stop offset="0.3731" stop-color="#C2C4D5" stop-opacity="0.692"/>
<stop offset="0.5263" stop-color="#9EA3BE" stop-opacity="0.976"/>
<stop offset="0.5392" stop-color="#9BA1BC"/>
<stop offset="0.5806" stop-color="#8F94AE"/>
<stop offset="0.6531" stop-color="#72748D"/>
<stop offset="0.748" stop-color="#47495E"/>
<stop offset="0.8605" stop-color="#1C1D2C"/>
<stop offset="0.8636" stop-color="#1B1C2B"/>
</linearGradient>
<linearGradient id="paint64_linear_14_616" x1="34.8345" y1="53.7427" x2="24.1749" y2="57.5363" gradientUnits="userSpaceOnUse">
<stop offset="0.0976" stop-color="#F2F1F5"/>
<stop offset="0.2669" stop-color="#ECECF1" stop-opacity="0.9437"/>
<stop offset="0.4821" stop-color="#DCDCE6" stop-opacity="0.8722"/>
<stop offset="0.722" stop-color="#C2C4D5" stop-opacity="0.7924"/>
<stop offset="0.9784" stop-color="#9EA3BE" stop-opacity="0.7072"/>
<stop offset="1" stop-color="#9BA1BC" stop-opacity="0.7"/>
</linearGradient>
<linearGradient id="paint65_linear_14_616" x1="29.5987" y1="52.6566" x2="29.5987" y2="59.5791" gradientUnits="userSpaceOnUse">
<stop stop-color="#9BA1BC"/>
<stop offset="0.2752" stop-color="#F2F1F5"/>
<stop offset="0.2767" stop-color="#F2F1F5"/>
<stop offset="0.3551" stop-color="#ECECF1"/>
<stop offset="0.4547" stop-color="#DCDCE6"/>
<stop offset="0.5657" stop-color="#C2C4D5"/>
<stop offset="0.6844" stop-color="#9EA3BE"/>
<stop offset="0.6944" stop-color="#9BA1BC"/>
<stop offset="1" stop-color="#9BA1BC" stop-opacity="0"/>
</linearGradient>
<linearGradient id="paint66_linear_14_616" x1="42.6226" y1="41.9518" x2="22.7909" y2="58.1847" gradientUnits="userSpaceOnUse">
<stop stop-color="#9BA1BC" stop-opacity="0"/>
<stop offset="0.3253" stop-color="#F2F1F5" stop-opacity="0.5"/>
<stop offset="0.4018" stop-color="#ECECF1" stop-opacity="0.5938"/>
<stop offset="0.499" stop-color="#DCDCE6" stop-opacity="0.713"/>
<stop offset="0.6075" stop-color="#C2C4D5" stop-opacity="0.846"/>
<stop offset="0.7233" stop-color="#9EA3BE" stop-opacity="0.988"/>
<stop offset="0.7331" stop-color="#9BA1BC"/>
<stop offset="0.7672" stop-color="#8F94AE"/>
<stop offset="0.8268" stop-color="#72748D"/>
<stop offset="0.9048" stop-color="#47495E"/>
<stop offset="0.9975" stop-color="#1C1D2C"/>
<stop offset="1" stop-color="#1B1C2B"/>
</linearGradient>
<linearGradient id="paint67_linear_14_616" x1="46.4275" y1="39.8781" x2="31.1896" y2="51.601" gradientUnits="userSpaceOnUse">
<stop offset="0.0133" stop-color="#9BA1BC"/>
<stop offset="0.5668" stop-color="#F2F1F5"/>
<stop offset="0.5698" stop-color="#F2F1F5"/>
<stop offset="0.6505" stop-color="#ECECF1"/>
<stop offset="0.7531" stop-color="#DCDCE6"/>
<stop offset="0.8675" stop-color="#C2C4D5"/>
<stop offset="0.9897" stop-color="#9EA3BE"/>
<stop offset="1" stop-color="#9BA1BC"/>
</linearGradient>
<linearGradient id="paint68_linear_14_616" x1="41.1258" y1="42.9161" x2="26.6081" y2="54.0859" gradientUnits="userSpaceOnUse">
<stop offset="0.0133" stop-color="#9BA1BC" stop-opacity="0.6"/>
<stop offset="0.4024" stop-color="#F2F1F5" stop-opacity="0.4011"/>
<stop offset="0.4045" stop-color="#F2F1F5" stop-opacity="0.4"/>
<stop offset="0.4639" stop-color="#ECECF1" stop-opacity="0.475"/>
<stop offset="0.5393" stop-color="#DCDCE6" stop-opacity="0.5704"/>
<stop offset="0.6234" stop-color="#C2C4D5" stop-opacity="0.6768"/>
<stop offset="0.7133" stop-color="#9EA3BE" stop-opacity="0.7904"/>
<stop offset="0.7209" stop-color="#9BA1BC" stop-opacity="0.8"/>
<stop offset="0.7911" stop-color="#A6AAC3" stop-opacity="0.6741"/>
<stop offset="0.9135" stop-color="#C3C5D7" stop-opacity="0.4549"/>
<stop offset="1" stop-color="#DBDCE8" stop-opacity="0.3"/>
</linearGradient>
<linearGradient id="paint69_linear_14_616" x1="51.3563" y1="25.9874" x2="20.0099" y2="43.7441" gradientUnits="userSpaceOnUse">
<stop stop-color="#F2F1F5"/>
<stop offset="0.0777" stop-color="#ECECF1"/>
<stop offset="0.1765" stop-color="#DCDCE6"/>
<stop offset="0.2866" stop-color="#C2C4D5"/>
<stop offset="0.4042" stop-color="#9EA3BE"/>
<stop offset="0.4142" stop-color="#9BA1BC"/>
<stop offset="0.4651" stop-color="#8F94AE"/>
<stop offset="0.5543" stop-color="#72748D"/>
<stop offset="0.671" stop-color="#47495E"/>
<stop offset="0.8094" stop-color="#1C1D2C"/>
<stop offset="0.8132" stop-color="#1B1C2B"/>
</linearGradient>
<linearGradient id="paint70_linear_14_616" x1="46.2678" y1="42.5041" x2="26.8525" y2="42.5041" gradientUnits="userSpaceOnUse">
<stop offset="0.014" stop-color="#9BA1BC"/>
<stop offset="0.3587" stop-color="#F2F1F5"/>
<stop offset="0.3606" stop-color="#F2F1F5"/>
<stop offset="0.4805" stop-color="#ECECF1" stop-opacity="0.8874"/>
<stop offset="0.633" stop-color="#DCDCE6" stop-opacity="0.7444"/>
<stop offset="0.803" stop-color="#C2C4D5" stop-opacity="0.5848"/>
<stop offset="0.9847" stop-color="#9EA3BE" stop-opacity="0.4144"/>
<stop offset="1" stop-color="#9BA1BC" stop-opacity="0.4"/>
</linearGradient>
<linearGradient id="paint71_linear_14_616" x1="42.4409" y1="22.9415" x2="20.7834" y2="48.1396" gradientUnits="userSpaceOnUse">
<stop stop-color="#F2F1F5" stop-opacity="0.2"/>
<stop offset="0.1312" stop-color="#EDECF2" stop-opacity="0.5043"/>
<stop offset="0.2975" stop-color="#DDDEE9" stop-opacity="0.8904"/>
<stop offset="0.312" stop-color="#DBDCE8" stop-opacity="0.9239"/>
<stop offset="0.704" stop-color="#DBDCE8" stop-opacity="0.8"/>
<stop offset="0.7908" stop-color="#CCCEDE" stop-opacity="0.5654"/>
<stop offset="0.9558" stop-color="#A6ABC4" stop-opacity="0.1195"/>
<stop offset="1" stop-color="#9BA1BC" stop-opacity="0"/>
</linearGradient>
<linearGradient id="paint72_linear_14_616" x1="38.652" y1="36.1204" x2="20.2293" y2="50.9651" gradientUnits="userSpaceOnUse">
<stop offset="0.0995" stop-color="#9BA1BC" stop-opacity="0.6"/>
<stop offset="0.1831" stop-color="#BEC0D3" stop-opacity="0.6567"/>
<stop offset="0.2668" stop-color="#DADAE5" stop-opacity="0.7135"/>
<stop offset="0.3401" stop-color="#ECEBF1" stop-opacity="0.7632"/>
<stop offset="0.3944" stop-color="#F2F1F5" stop-opacity="0.8"/>
<stop offset="0.4841" stop-color="#A29EA9" stop-opacity="0.8468"/>
<stop offset="0.5871" stop-color="#5E5A69" stop-opacity="0.9004"/>
<stop offset="0.674" stop-color="#353544" stop-opacity="0.9457"/>
<stop offset="0.7403" stop-color="#212231" stop-opacity="0.9803"/>
<stop offset="0.7781" stop-color="#1B1C2B"/>
</linearGradient>
<linearGradient id="paint73_linear_14_616" x1="37.6562" y1="36.8536" x2="23.5549" y2="47.6161" gradientUnits="userSpaceOnUse">
<stop offset="0.1567" stop-color="#F2F1F5" stop-opacity="0.2"/>
<stop offset="0.4465" stop-color="#F2F1F5" stop-opacity="0.9"/>
</linearGradient>
<linearGradient id="paint74_linear_14_616" x1="34.8159" y1="37.5017" x2="29.2199" y2="44.9241" gradientUnits="userSpaceOnUse">
<stop stop-color="#9BA1BC"/>
<stop offset="0.2752" stop-color="#F2F1F5" stop-opacity="0.6022"/>
<stop offset="0.2767" stop-color="#F2F1F5" stop-opacity="0.6"/>
<stop offset="0.3551" stop-color="#ECECF1" stop-opacity="0.675"/>
<stop offset="0.4547" stop-color="#DCDCE6" stop-opacity="0.7704"/>
<stop offset="0.5657" stop-color="#C2C4D5" stop-opacity="0.8768"/>
<stop offset="0.6844" stop-color="#9EA3BE" stop-opacity="0.9904"/>
<stop offset="0.6944" stop-color="#9BA1BC"/>
<stop offset="1" stop-color="#9BA1BC" stop-opacity="0"/>
</linearGradient>
<linearGradient id="paint75_linear_14_616" x1="24.6164" y1="43.5172" x2="45.4377" y2="21.0977" gradientUnits="userSpaceOnUse">
<stop stop-color="#9BA1BC"/>
<stop offset="0.0354" stop-color="#B1B4CA" stop-opacity="0.9397"/>
<stop offset="0.1089" stop-color="#EBEAF0" stop-opacity="0.8142"/>
<stop offset="0.1172" stop-color="#F2F1F5" stop-opacity="0.8"/>
<stop offset="0.379" stop-color="#F2F1F5" stop-opacity="0.8"/>
<stop offset="0.4219" stop-color="#ECECF1" stop-opacity="0.8375"/>
<stop offset="0.4764" stop-color="#DCDCE6" stop-opacity="0.8852"/>
<stop offset="0.5371" stop-color="#C2C4D5" stop-opacity="0.9384"/>
<stop offset="0.602" stop-color="#9EA3BE" stop-opacity="0.9952"/>
<stop offset="0.6075" stop-color="#9BA1BC"/>
</linearGradient>
<linearGradient id="paint76_linear_14_616" x1="22.3461" y1="43.941" x2="46.3617" y2="22.3971" gradientUnits="userSpaceOnUse">
<stop offset="0.4031" stop-color="#F2F1F5" stop-opacity="0.4"/>
<stop offset="0.4627" stop-color="#ECECF1" stop-opacity="0.475"/>
<stop offset="0.5385" stop-color="#DCDCE6" stop-opacity="0.5704"/>
<stop offset="0.623" stop-color="#C2C4D5" stop-opacity="0.6768"/>
<stop offset="0.7132" stop-color="#9EA3BE" stop-opacity="0.7904"/>
<stop offset="0.7209" stop-color="#9BA1BC" stop-opacity="0.8"/>
<stop offset="0.7896" stop-color="#A6AAC3" stop-opacity="0.8504"/>
<stop offset="0.9092" stop-color="#C3C5D7" stop-opacity="0.938"/>
<stop offset="0.9938" stop-color="#DBDCE8"/>
</linearGradient>
<linearGradient id="paint77_linear_14_616" x1="41.5485" y1="25.9403" x2="16.1991" y2="47.941" gradientUnits="userSpaceOnUse">
<stop stop-color="#F2F1F5" stop-opacity="0"/>
<stop offset="0.0944" stop-color="#ECEBF1" stop-opacity="0.1907"/>
<stop offset="0.2144" stop-color="#DCDBE5" stop-opacity="0.4332"/>
<stop offset="0.3481" stop-color="#C1C1D1" stop-opacity="0.7035"/>
<stop offset="0.4911" stop-color="#9E9FB8" stop-opacity="0.9923"/>
<stop offset="0.4949" stop-color="#9D9EB7"/>
<stop offset="0.5414" stop-color="#9191A9"/>
<stop offset="0.6228" stop-color="#747288"/>
<stop offset="0.7294" stop-color="#4A485B"/>
<stop offset="0.8558" stop-color="#1E1D2A"/>
<stop offset="0.864" stop-color="#1B1B27"/>
</linearGradient>
</defs>
</svg>
